{
.appVersion = "895";
copyright = "Copyright 2016 The Montserrat and Sector Project Authors";
customParameters = (
{
name = fsType;
value = (
);
},
{
name = license;
value = "This Font Software is licensed under the SIL Open Font License Version 1.1.";
},
{
name = licenseURL;
value = "http://scripts.sil.org/OFL";
}
);
date = "2016-04-14 23:39:46 +0000";
designer = "Montserrat by Julieta Ulanovsky; Sector Gurmukhi by Gunnar Vilhjalmsson";
designerURL = "Montserrat http://www.zkysky.com.ar; Sector Gurmukhi http://universalthirst.com";
familyName = Sector;
fontMaster = (
{
alignmentZones = (
"{850, 20}",
"{694, 20}",
"{52, -18}",
"{-179, -20}"
);
ascender = 854;
capHeight = 694;
descender = -194;
id = "5F4BB537-F6D4-41E2-86C5-F7A1868B70F1";
weight = Bold;
weightValue = 215;
xHeight = 694;
}
);
glyphs = (
{
glyphname = A;
layers = (
{
anchors = (
{
name = ogonek;
position = "{809, 10}";
},
{
name = top;
position = "{400, 701}";
}
);
layerId = "5F4BB537-F6D4-41E2-86C5-F7A1868B70F1";
paths = (
{
closed = 1;
nodes = (
"286 701 LINE",
"-10 0 LINE",
"228 0 LINE",
"398 470 LINE",
"562 0 LINE",
"809 0 LINE",
"524 701 LINE"
);
},
{
closed = 1;
nodes = (
"190 265 LINE",
"190 99 LINE SMOOTH",
"592 99 LINE",
"592 265 LINE"
);
}
);
width = 799;
}
);
leftKerningGroup = A;
rightKerningGroup = A;
unicode = 0041;
},
{
glyphname = Aogonek;
layers = (
{
layerId = "5F4BB537-F6D4-41E2-86C5-F7A1868B70F1";
paths = (
{
closed = 1;
nodes = (
"286 701 LINE",
"-10 0 LINE",
"228 0 LINE",
"264 99 LINE",
"527 99 LINE",
"562 0 LINE",
"636 0 LINE",
"612 -36 OFFCURVE",
"593 -75 OFFCURVE",
"593 -116 CURVE SMOOTH",
"593 -185 OFFCURVE",
"647 -204 OFFCURVE",
"689 -204 CURVE SMOOTH",
"738 -204 OFFCURVE",
"781 -179 OFFCURVE",
"809 -128 CURVE",
"754 -64 LINE",
"743 -83 OFFCURVE",
"730 -94 OFFCURVE",
"717 -94 CURVE SMOOTH",
"709 -94 OFFCURVE",
"703 -89 OFFCURVE",
"703 -79 CURVE SMOOTH",
"703 -63 OFFCURVE",
"719 -33 OFFCURVE",
"741 0 CURVE",
"809 0 LINE",
"524 701 LINE"
);
},
{
closed = 1;
nodes = (
"470 265 LINE",
"324 265 LINE",
"398 470 LINE"
);
}
);
width = 799;
}
);
leftKerningGroup = A;
rightKerningGroup = A;
unicode = 0104;
},
{
glyphname = Aring;
layers = (
{
components = (
{
name = A;
}
);
layerId = "5F4BB537-F6D4-41E2-86C5-F7A1868B70F1";
paths = (
{
closed = 1;
nodes = (
"329 895 OFFCURVE",
"270 836 OFFCURVE",
"270 761 CURVE SMOOTH",
"270 686 OFFCURVE",
"329 627 OFFCURVE",
"404 627 CURVE SMOOTH",
"479 627 OFFCURVE",
"538 686 OFFCURVE",
"538 761 CURVE SMOOTH",
"538 836 OFFCURVE",
"479 895 OFFCURVE",
"404 895 CURVE SMOOTH"
);
},
{
closed = 1;
nodes = (
"428 803 OFFCURVE",
"446 785 OFFCURVE",
"446 761 CURVE SMOOTH",
"446 737 OFFCURVE",
"428 719 OFFCURVE",
"404 719 CURVE SMOOTH",
"380 719 OFFCURVE",
"362 737 OFFCURVE",
"362 761 CURVE SMOOTH",
"362 785 OFFCURVE",
"380 803 OFFCURVE",
"404 803 CURVE SMOOTH"
);
}
);
width = 799;
}
);
leftKerningGroup = A;
leftMetricsKey = A;
rightKerningGroup = A;
rightMetricsKey = A;
unicode = 00C5;
},
{
glyphname = AE;
layers = (
{
anchors = (
{
name = bottom;
position = "{808, 0}";
},
{
name = ogonek;
position = "{1101, 10}";
},
{
name = top;
position = "{658, 701}";
}
);
layerId = "5F4BB537-F6D4-41E2-86C5-F7A1868B70F1";
paths = (
{
closed = 1;
nodes = (
"380 701 LINE",
"-10 0 LINE",
"230 0 LINE",
"490 525 LINE",
"784 525 LINE",
"776 701 LINE"
);
},
{
closed = 1;
nodes = (
"225 288 LINE",
"220 122 LINE",
"623 122 LINE",
"628 288 LINE"
);
},
{
closed = 1;
nodes = (
"507 701 LINE",
"507 0 LINE",
"1109 0 LINE",
"1109 176 LINE",
"739 176 LINE",
"739 263 LINE",
"1067 263 LINE",
"1067 439 LINE",
"739 439 LINE",
"739 525 LINE",
"1100 525 LINE",
"1100 701 LINE"
);
}
);
width = 1147;
}
);
leftKerningGroup = A;
leftMetricsKey = A;
rightKerningGroup = E;
rightMetricsKey = E;
unicode = 00C6;
},
{
glyphname = B;
layers = (
{
layerId = "5F4BB537-F6D4-41E2-86C5-F7A1868B70F1";
paths = (
{
closed = 1;
nodes = (
"50 701 LINE",
"50 0 LINE",
"422 0 LINE SMOOTH",
"593 0 OFFCURVE",
"704 77 OFFCURVE",
"704 197 CURVE SMOOTH",
"704 285 OFFCURVE",
"649 355 OFFCURVE",
"565 374 CURVE",
"637 396 OFFCURVE",
"683 455 OFFCURVE",
"683 524 CURVE SMOOTH",
"683 631 OFFCURVE",
"574 701 OFFCURVE",
"405 701 CURVE SMOOTH"
);
},
{
closed = 1;
nodes = (
"435 277 OFFCURVE",
"463 257 OFFCURVE",
"463 226 CURVE SMOOTH",
"463 192 OFFCURVE",
"435 170 OFFCURVE",
"392 170 CURVE SMOOTH",
"281 170 LINE",
"281 277 LINE",
"392 277 LINE SMOOTH"
);
},
{
closed = 1;
nodes = (
"424 531 OFFCURVE",
"445 512 OFFCURVE",
"445 482 CURVE SMOOTH",
"445 451 OFFCURVE",
"424 431 OFFCURVE",
"392 431 CURVE SMOOTH",
"281 431 LINE",
"281 531 LINE",
"392 531 LINE SMOOTH"
);
}
);
width = 724;
}
);
leftKerningGroup = H;
rightKerningGroup = B;
unicode = 0042;
},
{
glyphname = C;
layers = (
{
anchors = (
{
name = bottom;
position = "{368, 0}";
},
{
name = top;
position = "{394, 701}";
}
);
layerId = "5F4BB537-F6D4-41E2-86C5-F7A1868B70F1";
paths = (
{
closed = 1;
nodes = (
"175 708 OFFCURVE",
"15 558 OFFCURVE",
"15 352 CURVE SMOOTH",
"15 143 OFFCURVE",
"171 -10 OFFCURVE",
"386 -10 CURVE SMOOTH",
"494 -10 OFFCURVE",
"613 45 OFFCURVE",
"691 130 CURVE",
"557 273 LINE",
"511 224 OFFCURVE",
"448 193 OFFCURVE",
"398 193 CURVE SMOOTH",
"314 193 OFFCURVE",
"253 261 OFFCURVE",
"253 355 CURVE SMOOTH",
"253 448 OFFCURVE",
"314 515 OFFCURVE",
"398 515 CURVE SMOOTH",
"452 515 OFFCURVE",
"515 478 OFFCURVE",
"557 421 CURVE",
"691 580 LINE",
"619 658 OFFCURVE",
"502 708 OFFCURVE",
"395 708 CURVE SMOOTH"
);
}
);
width = 688;
}
);
leftKerningGroup = O;
rightKerningGroup = C;
unicode = 0043;
},
{
glyphname = D;
layers = (
{
anchors = (
{
name = center;
position = "{372, 351}";
},
{
name = top;
position = "{352, 701}";
}
);
layerId = "5F4BB537-F6D4-41E2-86C5-F7A1868B70F1";
paths = (
{
closed = 1;
nodes = (
"50 701 LINE",
"50 0 LINE",
"354 0 LINE SMOOTH",
"591 0 OFFCURVE",
"744 138 OFFCURVE",
"744 351 CURVE SMOOTH",
"744 564 OFFCURVE",
"594 701 OFFCURVE",
"363 701 CURVE SMOOTH"
);
},
{
closed = 1;
nodes = (
"448 521 OFFCURVE",
"507 453 OFFCURVE",
"507 349 CURVE SMOOTH",
"507 246 OFFCURVE",
"453 180 OFFCURVE",
"369 180 CURVE SMOOTH",
"282 180 LINE",
"282 521 LINE",
"358 521 LINE SMOOTH"
);
}
);
width = 759;
}
);
leftKerningGroup = H;
rightKerningGroup = O;
unicode = 0044;
},
{
glyphname = Eth;
layers = (
{
components = (
{
name = D;
transform = "{1, 0, 0, 1, 43, 0}";
}
);
layerId = "5F4BB537-F6D4-41E2-86C5-F7A1868B70F1";
paths = (
{
closed = 1;
nodes = (
"0 410 LINE",
"0 291 LINE",
"448 291 LINE",
"448 410 LINE"
);
}
);
width = 802;
}
);
leftKerningGroup = H;
rightKerningGroup = O;
rightMetricsKey = D;
unicode = 00D0;
},
{
glyphname = E;
layers = (
{
anchors = (
{
name = bottom;
position = "{351, 0}";
},
{
name = ogonek;
position = "{644, 10}";
},
{
name = top;
position = "{348, 701}";
}
);
layerId = "5F4BB537-F6D4-41E2-86C5-F7A1868B70F1";
paths = (
{
closed = 1;
nodes = (
"50 701 LINE",
"50 0 LINE",
"652 0 LINE",
"652 176 LINE",
"282 176 LINE",
"282 263 LINE",
"610 263 LINE",
"610 439 LINE",
"282 439 LINE",
"282 525 LINE",
"643 525 LINE",
"643 701 LINE"
);
}
);
width = 690;
}
);
leftKerningGroup = H;
rightKerningGroup = E;
unicode = 0045;
},
{
glyphname = Eogonek;
layers = (
{
layerId = "5F4BB537-F6D4-41E2-86C5-F7A1868B70F1";
paths = (
{
closed = 1;
nodes = (
"50 701 LINE",
"50 0 LINE",
"471 0 LINE",
"447 -36 OFFCURVE",
"428 -75 OFFCURVE",
"428 -116 CURVE SMOOTH",
"428 -185 OFFCURVE",
"482 -204 OFFCURVE",
"524 -204 CURVE SMOOTH",
"573 -204 OFFCURVE",
"616 -179 OFFCURVE",
"644 -128 CURVE",
"589 -64 LINE",
"578 -83 OFFCURVE",
"565 -94 OFFCURVE",
"552 -94 CURVE SMOOTH",
"544 -94 OFFCURVE",
"538 -89 OFFCURVE",
"538 -79 CURVE SMOOTH",
"538 -63 OFFCURVE",
"554 -33 OFFCURVE",
"576 0 CURVE",
"652 0 LINE",
"652 176 LINE",
"282 176 LINE",
"282 263 LINE",
"610 263 LINE",
"610 439 LINE",
"282 439 LINE",
"282 525 LINE",
"643 525 LINE",
"643 701 LINE"
);
}
);
width = 690;
}
);
leftKerningGroup = H;
rightKerningGroup = E;
unicode = 0118;
},
{
glyphname = F;
layers = (
{
layerId = "5F4BB537-F6D4-41E2-86C5-F7A1868B70F1";
paths = (
{
closed = 1;
nodes = (
"50 701 LINE",
"50 0 LINE",
"282 0 LINE",
"282 228 LINE",
"593 228 LINE",
"593 404 LINE",
"282 404 LINE",
"282 525 LINE",
"614 525 LINE",
"614 701 LINE"
);
}
);
width = 631;
}
);
leftKerningGroup = H;
rightKerningGroup = F;
unicode = 0046;
},
{
glyphname = G;
layers = (
{
anchors = (
{
name = bottom;
position = "{396, 0}";
},
{
name = top;
position = "{396, 701}";
}
);
layerId = "5F4BB537-F6D4-41E2-86C5-F7A1868B70F1";
paths = (
{
closed = 1;
nodes = (
"181 708 OFFCURVE",
"15 557 OFFCURVE",
"15 350 CURVE SMOOTH",
"15 142 OFFCURVE",
"175 -10 OFFCURVE",
"395 -10 CURVE SMOOTH",
"495 -10 OFFCURVE",
"624 28 OFFCURVE",
"702 80 CURVE",
"571 243 LINE",
"520 208 OFFCURVE",
"452 183 OFFCURVE",
"411 183 CURVE SMOOTH",
"320 183 OFFCURVE",
"253 253 OFFCURVE",
"253 350 CURVE SMOOTH",
"253 445 OFFCURVE",
"319 515 OFFCURVE",
"409 515 CURVE SMOOTH",
"467 515 OFFCURVE",
"535 486 OFFCURVE",
"582 441 CURVE",
"713 600 LINE",
"638 666 OFFCURVE",
"519 708 OFFCURVE",
"410 708 CURVE SMOOTH"
);
},
{
closed = 1;
nodes = (
"503 369 LINE",
"503 80 LINE",
"702 80 LINE",
"702 369 LINE"
);
}
);
width = 738;
}
);
leftKerningGroup = O;
rightKerningGroup = G;
unicode = 0047;
},
{
glyphname = H;
layers = (
{
anchors = (
{
name = center;
position = "{391, 351}";
},
{
name = top;
position = "{401, 701}";
}
);
layerId = "5F4BB537-F6D4-41E2-86C5-F7A1868B70F1";
paths = (
{
closed = 1;
nodes = (
"499 701 LINE",
"499 429 LINE",
"282 429 LINE",
"282 701 LINE",
"50 701 LINE",
"50 0 LINE",
"282 0 LINE",
"282 253 LINE",
"499 253 LINE",
"499 0 LINE",
"731 0 LINE",
"731 701 LINE"
);
}
);
width = 781;
}
);
leftKerningGroup = H;
rightKerningGroup = H;
unicode = 0048;
},
{
glyphname = Hbar;
layers = (
{
components = (
{
name = H;
transform = "{1, 0, 0, 1, 50, 0}";
}
);
layerId = "5F4BB537-F6D4-41E2-86C5-F7A1868B70F1";
paths = (
{
closed = 1;
nodes = (
"20 627 LINE",
"20 508 LINE",
"861 508 LINE",
"861 627 LINE"
);
}
);
width = 881;
}
);
leftKerningGroup = H;
rightKerningGroup = H;
unicode = 0126;
},
{
glyphname = I;
layers = (
{
anchors = (
{
name = ogonek;
position = "{299, 10}";
},
{
name = top;
position = "{166, 701}";
}
);
layerId = "5F4BB537-F6D4-41E2-86C5-F7A1868B70F1";
paths = (
{
closed = 1;
nodes = (
"50 701 LINE",
"50 0 LINE",
"282 0 LINE",
"282 701 LINE"
);
}
);
width = 332;
}
);
leftKerningGroup = H;
rightKerningGroup = H;
unicode = 0049;
},
{
glyphname = Iogonek;
layers = (
{
layerId = "5F4BB537-F6D4-41E2-86C5-F7A1868B70F1";
paths = (
{
closed = 1;
nodes = (
"244 -64 LINE",
"233 -83 OFFCURVE",
"220 -94 OFFCURVE",
"207 -94 CURVE SMOOTH",
"199 -94 OFFCURVE",
"193 -89 OFFCURVE",
"193 -79 CURVE SMOOTH",
"193 -63 OFFCURVE",
"209 -33 OFFCURVE",
"231 0 CURVE",
"282 0 LINE",
"282 701 LINE",
"50 701 LINE",
"50 0 LINE",
"126 0 LINE",
"102 -36 OFFCURVE",
"83 -75 OFFCURVE",
"83 -116 CURVE SMOOTH",
"83 -185 OFFCURVE",
"137 -204 OFFCURVE",
"179 -204 CURVE SMOOTH",
"228 -204 OFFCURVE",
"271 -179 OFFCURVE",
"299 -128 CURVE"
);
}
);
width = 332;
}
);
leftKerningGroup = H;
rightKerningGroup = H;
unicode = 012E;
},
{
glyphname = J;
layers = (
{
anchors = (
{
name = top;
position = "{291, 701}";
}
);
layerId = "5F4BB537-F6D4-41E2-86C5-F7A1868B70F1";
paths = (
{
closed = 1;
nodes = (
"58 701 LINE",
"58 518 LINE",
"296 518 LINE",
"296 242 LINE SMOOTH",
"296 202 OFFCURVE",
"275 183 OFFCURVE",
"243 183 CURVE SMOOTH",
"208 183 OFFCURVE",
"152 207 OFFCURVE",
"97 262 CURVE",
"-8 112 LINE",
"63 34 OFFCURVE",
"152 -10 OFFCURVE",
"265 -10 CURVE SMOOTH",
"426 -10 OFFCURVE",
"529 80 OFFCURVE",
"529 237 CURVE SMOOTH",
"529 701 LINE"
);
}
);
width = 569;
}
);
leftKerningGroup = J;
rightKerningGroup = U;
unicode = 004A;
},
{
glyphname = K;
layers = (
{
anchors = (
{
name = bottom;
position = "{373, 0}";
},
{
name = top;
position = "{373, 701}";
}
);
layerId = "5F4BB537-F6D4-41E2-86C5-F7A1868B70F1";
paths = (
{
closed = 1;
nodes = (
"491 701 LINE",
"282 458 LINE",
"282 701 LINE",
"50 701 LINE",
"50 0 LINE",
"282 0 LINE",
"282 165 LINE",
"758 701 LINE"
);
},
{
closed = 1;
nodes = (
"337 262 LINE",
"496 0 LINE",
"773 0 LINE",
"492 444 LINE"
);
}
);
width = 773;
}
);
leftKerningGroup = H;
rightKerningGroup = X;
unicode = 004B;
},
{
glyphname = L;
layers = (
{
anchors = (
{
name = bottom;
position = "{292, 0}";
},
{
name = top;
position = "{159, 701}";
}
);
layerId = "5F4BB537-F6D4-41E2-86C5-F7A1868B70F1";
paths = (
{
closed = 1;
nodes = (
"50 701 LINE",
"50 0 LINE",
"574 0 LINE",
"574 193 LINE",
"282 193 LINE",
"282 701 LINE"
);
}
);
width = 584;
}
);
leftKerningGroup = H;
rightKerningGroup = L;
unicode = 004C;
},
{
glyphname = Lslash;
layers = (
{
components = (
{
name = L;
transform = "{1, 0, 0, 1, 22, 0}";
}
);
layerId = "5F4BB537-F6D4-41E2-86C5-F7A1868B70F1";
paths = (
{
closed = 1;
nodes = (
"-30 412 LINE",
"8 278 LINE",
"472 412 LINE",
"434 547 LINE"
);
}
);
width = 606;
}
);
leftKerningGroup = H;
rightKerningGroup = L;
rightMetricsKey = L;
unicode = 0141;
},
{
glyphname = M;
layers = (
{
layerId = "5F4BB537-F6D4-41E2-86C5-F7A1868B70F1";
paths = (
{
closed = 1;
nodes = (
"601 701 LINE",
"448 335 LINE",
"295 701 LINE",
"50 701 LINE",
"50 0 LINE",
"252 0 LINE",
"252 384 LINE",
"372 68 LINE",
"524 68 LINE",
"644 384 LINE",
"644 0 LINE",
"846 0 LINE",
"846 701 LINE"
);
}
);
width = 896;
}
);
leftKerningGroup = H;
rightKerningGroup = H;
unicode = 004D;
},
{
glyphname = N;
layers = (
{
anchors = (
{
name = bottom;
position = "{391, 0}";
},
{
name = top;
position = "{391, 701}";
}
);
layerId = "5F4BB537-F6D4-41E2-86C5-F7A1868B70F1";
paths = (
{
closed = 1;
nodes = (
"521 701 LINE",
"521 341 LINE",
"244 701 LINE",
"50 701 LINE",
"50 0 LINE",
"261 0 LINE",
"261 358 LINE",
"537 0 LINE",
"731 0 LINE",
"731 701 LINE"
);
}
);
width = 781;
}
);
leftKerningGroup = H;
rightKerningGroup = H;
unicode = 004E;
},
{
glyphname = Eng;
layers = (
{
anchors = (
{
name = bottom;
position = "{391, 0}";
},
{
name = top;
position = "{391, 701}";
}
);
layerId = "5F4BB537-F6D4-41E2-86C5-F7A1868B70F1";
paths = (
{
closed = 1;
nodes = (
"525 -11 OFFCURVE",
"507 -32 OFFCURVE",
"467 -32 CURVE SMOOTH",
"444 -32 OFFCURVE",
"412 -25 OFFCURVE",
"373 -10 CURVE",
"298 -185 LINE",
"348 -211 OFFCURVE",
"403 -225 OFFCURVE",
"467 -225 CURVE SMOOTH",
"620 -225 OFFCURVE",
"722 -143 OFFCURVE",
"731 0 CURVE",
"525 33 LINE"
);
},
{
closed = 1;
nodes = (
"521 701 LINE",
"521 341 LINE",
"244 701 LINE",
"50 701 LINE",
"50 0 LINE",
"261 0 LINE",
"261 358 LINE",
"537 0 LINE",
"731 0 LINE",
"731 701 LINE"
);
}
);
width = 781;
}
);
leftKerningGroup = H;
rightKerningGroup = H;
unicode = 014A;
},
{
glyphname = O;
layers = (
{
anchors = (
{
name = top;
position = "{390, 701}";
}
);
layerId = "5F4BB537-F6D4-41E2-86C5-F7A1868B70F1";
paths = (
{
closed = 1;
nodes = (
"177 708 OFFCURVE",
"15 559 OFFCURVE",
"15 351 CURVE SMOOTH",
"15 142 OFFCURVE",
"177 -10 OFFCURVE",
"400 -10 CURVE SMOOTH",
"623 -10 OFFCURVE",
"785 143 OFFCURVE",
"785 351 CURVE SMOOTH",
"785 558 OFFCURVE",
"623 708 OFFCURVE",
"400 708 CURVE SMOOTH"
);
},
{
closed = 1;
nodes = (
"483 515 OFFCURVE",
"547 446 OFFCURVE",
"547 350 CURVE SMOOTH",
"547 254 OFFCURVE",
"483 183 OFFCURVE",
"403 183 CURVE SMOOTH",
"323 183 OFFCURVE",
"253 254 OFFCURVE",
"253 350 CURVE SMOOTH",
"253 446 OFFCURVE",
"322 515 OFFCURVE",
"403 515 CURVE SMOOTH"
);
}
);
width = 800;
}
);
leftKerningGroup = O;
rightKerningGroup = O;
unicode = 004F;
},
{
glyphname = Oslash;
layers = (
{
anchors = (
{
name = top;
position = "{382, 701}";
}
);
components = (
{
name = O;
}
);
layerId = "5F4BB537-F6D4-41E2-86C5-F7A1868B70F1";
paths = (
{
closed = 1;
nodes = (
"498 805 LINE",
"169 -105 LINE",
"296 -105 LINE",
"625 805 LINE"
);
}
);
width = 800;
}
);
leftKerningGroup = O;
leftMetricsKey = O;
rightKerningGroup = O;
rightMetricsKey = O;
unicode = 00D8;
},
{
glyphname = OE;
layers = (
{
anchors = (
{
name = bottom;
position = "{788, 0}";
},
{
name = ogonek;
position = "{1081, 10}";
},
{
name = top;
position = "{557, 701}";
}
);
layerId = "5F4BB537-F6D4-41E2-86C5-F7A1868B70F1";
paths = (
{
closed = 1;
nodes = (
"399 701 LINE",
"176 701 OFFCURVE",
"15 551 OFFCURVE",
"15 349 CURVE SMOOTH",
"15 146 OFFCURVE",
"178 0 OFFCURVE",
"399 0 CURVE",
"556 0 LINE",
"559 185 LINE",
"399 183 LINE",
"314 183 OFFCURVE",
"253 253 OFFCURVE",
"253 348 CURVE SMOOTH",
"253 444 OFFCURVE",
"314 514 OFFCURVE",
"399 514 CURVE",
"537 514 LINE",
"537 701 LINE"
);
},
{
closed = 1;
nodes = (
"487 701 LINE",
"487 0 LINE",
"1089 0 LINE",
"1089 176 LINE",
"719 176 LINE",
"719 263 LINE",
"1047 263 LINE",
"1047 439 LINE",
"719 439 LINE",
"719 525 LINE",
"1080 525 LINE",
"1080 701 LINE"
);
}
);
width = 1127;
}
);
leftKerningGroup = O;
leftMetricsKey = O;
rightKerningGroup = E;
rightMetricsKey = E;
unicode = 0152;
},
{
glyphname = P;
layers = (
{
layerId = "5F4BB537-F6D4-41E2-86C5-F7A1868B70F1";
paths = (
{
closed = 1;
nodes = (
"50 701 LINE",
"50 0 LINE",
"282 0 LINE",
"282 182 LINE",
"379 182 LINE SMOOTH",
"561 182 OFFCURVE",
"666 280 OFFCURVE",
"666 450 CURVE SMOOTH",
"666 610 OFFCURVE",
"561 701 OFFCURVE",
"379 701 CURVE SMOOTH"
);
},
{
closed = 1;
nodes = (
"417 525 OFFCURVE",
"446 495 OFFCURVE",
"446 443 CURVE SMOOTH",
"446 389 OFFCURVE",
"417 358 OFFCURVE",
"367 358 CURVE SMOOTH",
"282 358 LINE",
"282 525 LINE",
"367 525 LINE SMOOTH"
);
}
);
width = 686;
}
);
leftKerningGroup = H;
rightKerningGroup = P;
unicode = 0050;
},
{
glyphname = Thorn;
layers = (
{
layerId = "5F4BB537-F6D4-41E2-86C5-F7A1868B70F1";
paths = (
{
closed = 1;
nodes = (
"238 615 LINE",
"270 439 LINE",
"372 439 LINE SMOOTH",
"413 439 OFFCURVE",
"440 408 OFFCURVE",
"440 360 CURVE SMOOTH",
"440 310 OFFCURVE",
"413 278 OFFCURVE",
"372 278 CURVE SMOOTH",
"270 278 LINE",
"270 102 LINE",
"382 102 LINE SMOOTH",
"562 102 OFFCURVE",
"678 206 OFFCURVE",
"678 367 CURVE SMOOTH",
"678 518 OFFCURVE",
"562 615 OFFCURVE",
"382 615 CURVE SMOOTH"
);
},
{
closed = 1;
nodes = (
"50 701 LINE",
"50 0 LINE",
"282 0 LINE",
"282 701 LINE"
);
}
);
width = 698;
}
);
leftKerningGroup = H;
leftMetricsKey = H;
rightKerningGroup = Thorn;
rightMetricsKey = P;
unicode = 00DE;
},
{
glyphname = Q;
layers = (
{
components = (
{
name = O;
}
);
layerId = "5F4BB537-F6D4-41E2-86C5-F7A1868B70F1";
paths = (
{
closed = 1;
nodes = (
"370 -2 LINE",
"405 -108 OFFCURVE",
"493 -177 OFFCURVE",
"601 -177 CURVE SMOOTH",
"674 -177 OFFCURVE",
"761 -146 OFFCURVE",
"815 -99 CURVE",
"738 38 LINE",
"698 9 OFFCURVE",
"654 -10 OFFCURVE",
"626 -10 CURVE SMOOTH",
"592 -10 OFFCURVE",
"564 18 OFFCURVE",
"550 55 CURVE"
);
}
);
width = 797;
}
);
leftKerningGroup = O;
rightKerningGroup = O;
unicode = 0051;
},
{
glyphname = R;
layers = (
{
anchors = (
{
name = bottom;
position = "{359, 0}";
},
{
name = top;
position = "{372, 701}";
}
);
layerId = "5F4BB537-F6D4-41E2-86C5-F7A1868B70F1";
paths = (
{
closed = 1;
nodes = (
"50 701 LINE",
"50 0 LINE",
"282 0 LINE",
"282 182 LINE",
"389 182 LINE SMOOTH",
"579 182 OFFCURVE",
"688 280 OFFCURVE",
"688 450 CURVE SMOOTH",
"688 610 OFFCURVE",
"579 701 OFFCURVE",
"389 701 CURVE SMOOTH"
);
},
{
closed = 1;
nodes = (
"330 265 LINE",
"453 0 LINE",
"715 0 LINE",
"554 265 LINE"
);
},
{
closed = 1;
nodes = (
"439 525 OFFCURVE",
"468 495 OFFCURVE",
"468 443 CURVE SMOOTH",
"468 389 OFFCURVE",
"439 358 OFFCURVE",
"389 358 CURVE SMOOTH",
"282 358 LINE",
"282 525 LINE",
"389 525 LINE SMOOTH"
);
}
);
width = 725;
}
);
leftKerningGroup = H;
rightKerningGroup = R;
unicode = 0052;
},
{
glyphname = S;
layers = (
{
anchors = (
{
name = bottom;
position = "{345, 0}";
},
{
name = top;
position = "{359, 701}";
}
);
layerId = "5F4BB537-F6D4-41E2-86C5-F7A1868B70F1";
paths = (
{
closed = 1;
nodes = (
"172 711 OFFCURVE",
"54 623 OFFCURVE",
"54 483 CURVE SMOOTH",
"54 237 OFFCURVE",
"417 297 OFFCURVE",
"417 206 CURVE SMOOTH",
"417 181 OFFCURVE",
"395 170 OFFCURVE",
"361 170 CURVE SMOOTH",
"290 170 OFFCURVE",
"166 219 OFFCURVE",
"94 279 CURVE",
"8 105 LINE",
"101 34 OFFCURVE",
"237 -7 OFFCURVE",
"359 -7 CURVE SMOOTH",
"517 -7 OFFCURVE",
"654 62 OFFCURVE",
"654 218 CURVE SMOOTH",
"654 472 OFFCURVE",
"291 417 OFFCURVE",
"291 505 CURVE SMOOTH",
"291 526 OFFCURVE",
"308 534 OFFCURVE",
"334 534 CURVE SMOOTH",
"395 534 OFFCURVE",
"504 491 OFFCURVE",
"575 452 CURVE",
"659 628 LINE",
"580 678 OFFCURVE",
"465 711 OFFCURVE",
"354 711 CURVE SMOOTH"
);
}
);
width = 664;
}
);
leftKerningGroup = S;
rightKerningGroup = S;
unicode = 0053;
},
{
glyphname = T;
layers = (
{
anchors = (
{
name = bottom;
position = "{309, 0}";
},
{
name = center;
position = "{307, 351}";
},
{
name = top;
position = "{337, 701}";
}
);
layerId = "5F4BB537-F6D4-41E2-86C5-F7A1868B70F1";
paths = (
{
closed = 1;
nodes = (
"5 701 LINE",
"5 518 LINE",
"204 518 LINE",
"204 0 LINE",
"436 0 LINE",
"436 518 LINE",
"636 518 LINE",
"636 701 LINE"
);
}
);
width = 641;
}
);
leftKerningGroup = T;
rightKerningGroup = T;
unicode = 0054;
},
{
glyphname = U;
layers = (
{
anchors = (
{
name = ogonek;
position = "{582, 10}";
},
{
name = top;
position = "{377, 701}";
}
);
layerId = "5F4BB537-F6D4-41E2-86C5-F7A1868B70F1";
paths = (
{
closed = 1;
nodes = (
"481 701 LINE",
"481 297 LINE SMOOTH",
"481 227 OFFCURVE",
"437 183 OFFCURVE",
"380 183 CURVE SMOOTH",
"322 183 OFFCURVE",
"272 228 OFFCURVE",
"272 297 CURVE SMOOTH",
"272 701 LINE",
"40 701 LINE",
"40 297 LINE SMOOTH",
"40 111 OFFCURVE",
"175 -10 OFFCURVE",
"379 -10 CURVE SMOOTH",
"582 -10 OFFCURVE",
"713 111 OFFCURVE",
"713 297 CURVE SMOOTH",
"713 701 LINE"
);
}
);
width = 753;
}
);
leftKerningGroup = U;
rightKerningGroup = U;
unicode = 0055;
},
{
glyphname = Uogonek;
layers = (
{
layerId = "5F4BB537-F6D4-41E2-86C5-F7A1868B70F1";
paths = (
{
closed = 1;
nodes = (
"481 701 LINE",
"481 297 LINE SMOOTH",
"481 227 OFFCURVE",
"437 183 OFFCURVE",
"380 183 CURVE SMOOTH",
"322 183 OFFCURVE",
"272 228 OFFCURVE",
"272 297 CURVE SMOOTH",
"272 701 LINE",
"40 701 LINE",
"40 297 LINE SMOOTH",
"40 111 OFFCURVE",
"175 -10 OFFCURVE",
"379 -10 CURVE SMOOTH",
"582 -10 OFFCURVE",
"713 111 OFFCURVE",
"713 297 CURVE SMOOTH",
"713 701 LINE"
);
},
{
closed = 1;
nodes = (
"426 24 LINE",
"395 -17 OFFCURVE",
"366 -66 OFFCURVE",
"366 -116 CURVE SMOOTH",
"366 -185 OFFCURVE",
"420 -204 OFFCURVE",
"462 -204 CURVE SMOOTH",
"511 -204 OFFCURVE",
"554 -179 OFFCURVE",
"582 -128 CURVE",
"527 -64 LINE",
"516 -83 OFFCURVE",
"503 -94 OFFCURVE",
"490 -94 CURVE SMOOTH",
"482 -94 OFFCURVE",
"476 -89 OFFCURVE",
"476 -79 CURVE SMOOTH",
"476 -59 OFFCURVE",
"500 -19 OFFCURVE",
"531 24 CURVE"
);
}
);
width = 753;
}
);
leftKerningGroup = U;
rightKerningGroup = U;
unicode = 0172;
},
{
glyphname = V;
layers = (
{
layerId = "5F4BB537-F6D4-41E2-86C5-F7A1868B70F1";
paths = (
{
closed = 1;
nodes = (
"532 701 LINE",
"388 241 LINE",
"243 701 LINE",
"-5 701 LINE",
"261 0 LINE",
"501 0 LINE",
"769 701 LINE"
);
}
);
width = 764;
}
);
leftKerningGroup = V;
rightKerningGroup = V;
unicode = 0056;
},
{
glyphname = W;
layers = (
{
anchors = (
{
name = top;
position = "{561, 701}";
}
);
layerId = "5F4BB537-F6D4-41E2-86C5-F7A1868B70F1";
paths = (
{
closed = 1;
nodes = (
"889 701 LINE",
"785 241 LINE",
"679 701 LINE",
"453 701 LINE",
"349 241 LINE",
"243 701 LINE",
"-5 701 LINE",
"222 0 LINE",
"461 0 LINE",
"561 419 LINE",
"658 0 LINE",
"897 0 LINE",
"1126 701 LINE"
);
}
);
width = 1121;
}
);
leftKerningGroup = V;
rightKerningGroup = V;
unicode = 0057;
},
{
glyphname = X;
layers = (
{
layerId = "5F4BB537-F6D4-41E2-86C5-F7A1868B70F1";
paths = (
{
closed = 1;
nodes = (
"484 701 LINE",
"382 536 LINE",
"280 701 LINE",
"10 701 LINE",
"241 356 LINE",
"-5 0 LINE",
"266 0 LINE",
"382 181 LINE",
"500 0 LINE",
"778 0 LINE",
"530 367 LINE",
"757 701 LINE"
);
}
);
width = 773;
}
);
leftKerningGroup = X;
rightKerningGroup = X;
unicode = 0058;
},
{
glyphname = Y;
layers = (
{
anchors = (
{
name = top;
position = "{360, 701}";
}
);
layerId = "5F4BB537-F6D4-41E2-86C5-F7A1868B70F1";
paths = (
{
closed = 1;
nodes = (
"498 701 LINE",
"362 431 LINE",
"221 701 LINE",
"-10 701 LINE",
"347 20 LINE",
"375 20 LINE",
"729 701 LINE"
);
},
{
closed = 1;
nodes = (
"246 317 LINE",
"246 0 LINE",
"478 0 LINE",
"478 317 LINE"
);
}
);
width = 719;
}
);
leftKerningGroup = V;
rightKerningGroup = V;
unicode = 0059;
},
{
glyphname = Z;
layers = (
{
anchors = (
{
name = top;
position = "{362, 701}";
}
);
layerId = "5F4BB537-F6D4-41E2-86C5-F7A1868B70F1";
paths = (
{
closed = 1;
nodes = (
"32 701 LINE",
"32 523 LINE",
"347 523 LINE",
"20 145 LINE",
"20 0 LINE",
"663 0 LINE",
"663 178 LINE",
"329 178 LINE",
"656 556 LINE",
"656 701 LINE"
);
}
);
width = 683;
}
);
leftKerningGroup = Z;
rightKerningGroup = Z;
unicode = 005A;
},
{
glyphname = A.ss01;
layers = (
{
anchors = (
{
name = ogonek;
position = "{723, 10}";
},
{
name = top;
position = "{380, 701}";
}
);
layerId = "5F4BB537-F6D4-41E2-86C5-F7A1868B70F1";
paths = (
{
closed = 1;
nodes = (
"172 710 OFFCURVE",
"40 588 OFFCURVE",
"40 402 CURVE SMOOTH",
"40 0 LINE",
"272 0 LINE",
"272 149 LINE",
"487 149 LINE",
"487 0 LINE",
"719 0 LINE",
"719 402 LINE SMOOTH",
"719 588 OFFCURVE",
"585 710 OFFCURVE",
"377 710 CURVE SMOOTH"
);
},
{
closed = 1;
nodes = (
"444 517 OFFCURVE",
"487 471 OFFCURVE",
"487 402 CURVE SMOOTH",
"487 315 LINE",
"272 315 LINE",
"272 402 LINE SMOOTH",
"272 471 OFFCURVE",
"314 517 OFFCURVE",
"379 517 CURVE SMOOTH"
);
}
);
width = 759;
}
);
leftKerningGroup = A.ss01;
leftMetricsKey = U;
rightKerningGroup = A.ss01;
rightMetricsKey = U;
},
{
glyphname = Aogonek.ss01;
layers = (
{
layerId = "5F4BB537-F6D4-41E2-86C5-F7A1868B70F1";
paths = (
{
closed = 1;
nodes = (
"172 710 OFFCURVE",
"40 588 OFFCURVE",
"40 402 CURVE SMOOTH",
"40 0 LINE",
"272 0 LINE",
"272 149 LINE",
"487 149 LINE",
"487 0 LINE",
"550 0 LINE",
"526 -36 OFFCURVE",
"507 -75 OFFCURVE",
"507 -116 CURVE SMOOTH",
"507 -185 OFFCURVE",
"561 -204 OFFCURVE",
"603 -204 CURVE SMOOTH",
"652 -204 OFFCURVE",
"695 -179 OFFCURVE",
"723 -128 CURVE",
"668 -64 LINE",
"657 -83 OFFCURVE",
"644 -94 OFFCURVE",
"631 -94 CURVE SMOOTH",
"623 -94 OFFCURVE",
"617 -89 OFFCURVE",
"617 -79 CURVE SMOOTH",
"617 -63 OFFCURVE",
"633 -33 OFFCURVE",
"655 0 CURVE",
"719 0 LINE",
"719 402 LINE SMOOTH",
"719 588 OFFCURVE",
"585 710 OFFCURVE",
"377 710 CURVE SMOOTH"
);
},
{
closed = 1;
nodes = (
"444 517 OFFCURVE",
"487 471 OFFCURVE",
"487 402 CURVE SMOOTH",
"487 315 LINE",
"272 315 LINE",
"272 402 LINE SMOOTH",
"272 471 OFFCURVE",
"314 517 OFFCURVE",
"379 517 CURVE SMOOTH"
);
}
);
width = 759;
}
);
leftKerningGroup = Aogonek.ss01;
rightKerningGroup = Aogonek.ss01;
},
{
glyphname = E.ss01;
layers = (
{
anchors = (
{
name = bottom;
position = "{318, 0}";
},
{
name = ogonek;
position = "{571, 10}";
},
{
name = top;
position = "{318, 701}";
}
);
layerId = "5F4BB537-F6D4-41E2-86C5-F7A1868B70F1";
paths = (
{
closed = 1;
nodes = (
"177 711 OFFCURVE",
"65 637 OFFCURVE",
"65 520 CURVE SMOOTH",
"65 457 OFFCURVE",
"97 396 OFFCURVE",
"147 369 CURVE",
"73 340 OFFCURVE",
"25 270 OFFCURVE",
"25 193 CURVE SMOOTH",
"25 69 OFFCURVE",
"149 -10 OFFCURVE",
"324 -10 CURVE SMOOTH",
"437 -10 OFFCURVE",
"556 23 OFFCURVE",
"625 67 CURVE",
"538 234 LINE",
"506 211 OFFCURVE",
"425 176 OFFCURVE",
"358 176 CURVE SMOOTH",
"306 176 OFFCURVE",
"265 197 OFFCURVE",
"265 230 CURVE SMOOTH",
"265 255 OFFCURVE",
"289 271 OFFCURVE",
"325 271 CURVE SMOOTH",
"507 271 LINE",
"507 438 LINE",
"325 438 LINE SMOOTH",
"300 438 OFFCURVE",
"284 456 OFFCURVE",
"284 476 CURVE SMOOTH",
"284 508 OFFCURVE",
"323 525 OFFCURVE",
"376 525 CURVE SMOOTH",
"423 525 OFFCURVE",
"476 511 OFFCURVE",
"529 487 CURVE",
"602 656 LINE",
"545 688 OFFCURVE",
"440 711 OFFCURVE",
"346 711 CURVE SMOOTH"
);
}
);
width = 635;
}
);
leftKerningGroup = E.ss01;
leftMetricsKey = eight;
rightKerningGroup = E.ss01;
},
{
glyphname = Eogonek.ss01;
layers = (
{
layerId = "5F4BB537-F6D4-41E2-86C5-F7A1868B70F1";
paths = (
{
closed = 1;
nodes = (
"177 711 OFFCURVE",
"65 637 OFFCURVE",
"65 520 CURVE SMOOTH",
"65 457 OFFCURVE",
"97 396 OFFCURVE",
"147 369 CURVE",
"73 340 OFFCURVE",
"25 270 OFFCURVE",
"25 193 CURVE SMOOTH",
"25 69 OFFCURVE",
"149 -10 OFFCURVE",
"324 -10 CURVE SMOOTH",
"437 -10 OFFCURVE",
"556 23 OFFCURVE",
"625 67 CURVE",
"538 234 LINE",
"506 211 OFFCURVE",
"425 176 OFFCURVE",
"358 176 CURVE SMOOTH",
"306 176 OFFCURVE",
"265 197 OFFCURVE",
"265 230 CURVE SMOOTH",
"265 255 OFFCURVE",
"289 271 OFFCURVE",
"325 271 CURVE SMOOTH",
"507 271 LINE",
"507 438 LINE",
"325 438 LINE SMOOTH",
"300 438 OFFCURVE",
"284 456 OFFCURVE",
"284 476 CURVE SMOOTH",
"284 508 OFFCURVE",
"323 525 OFFCURVE",
"376 525 CURVE SMOOTH",
"423 525 OFFCURVE",
"476 511 OFFCURVE",
"529 487 CURVE",
"602 656 LINE",
"545 688 OFFCURVE",
"440 711 OFFCURVE",
"346 711 CURVE SMOOTH"
);
},
{
closed = 1;
nodes = (
"415 24 LINE",
"384 -17 OFFCURVE",
"355 -66 OFFCURVE",
"355 -116 CURVE SMOOTH",
"355 -185 OFFCURVE",
"409 -204 OFFCURVE",
"451 -204 CURVE SMOOTH",
"500 -204 OFFCURVE",
"543 -179 OFFCURVE",
"571 -128 CURVE",
"516 -64 LINE",
"505 -83 OFFCURVE",
"492 -94 OFFCURVE",
"479 -94 CURVE SMOOTH",
"471 -94 OFFCURVE",
"465 -89 OFFCURVE",
"465 -79 CURVE SMOOTH",
"465 -59 OFFCURVE",
"489 -19 OFFCURVE",
"520 24 CURVE"
);
}
);
width = 635;
}
);
leftKerningGroup = Eogonek.ss01;
rightKerningGroup = Eogonek.ss01;
},
{
glyphname = F.ss01;
layers = (
{
layerId = "5F4BB537-F6D4-41E2-86C5-F7A1868B70F1";
paths = (
{
closed = 1;
nodes = (
"273 0 LINE",
"273 449 LINE SMOOTH",
"273 491 OFFCURVE",
"301 518 OFFCURVE",
"343 518 CURVE SMOOTH",
"398 518 OFFCURVE",
"477 498 OFFCURVE",
"538 473 CURVE",
"590 663 LINE",
"527 692 OFFCURVE",
"421 711 OFFCURVE",
"321 711 CURVE SMOOTH",
"150 711 OFFCURVE",
"40 610 OFFCURVE",
"40 454 CURVE SMOOTH",
"40 0 LINE"
);
},
{
closed = 1;
nodes = (
"85 405 LINE",
"85 229 LINE SMOOTH",
"524 229 LINE",
"524 405 LINE"
);
}
);
width = 580;
}
);
leftKerningGroup = F.ss01;
leftMetricsKey = U;
rightKerningGroup = F.ss01;
},
{
glyphname = G.ss01;
layers = (
{
anchors = (
{
name = bottom;
position = "{372, 0}";
},
{
name = top;
position = "{372, 701}";
}
);
layerId = "5F4BB537-F6D4-41E2-86C5-F7A1868B70F1";
paths = (
{
closed = 1;
nodes = (
"180 708 OFFCURVE",
"15 557 OFFCURVE",
"15 350 CURVE SMOOTH",
"15 142 OFFCURVE",
"164 -10 OFFCURVE",
"369 -10 CURVE SMOOTH",
"477 -10 OFFCURVE",
"592 62 OFFCURVE",
"643 160 CURVE",
"534 283 LINE",
"515 225 OFFCURVE",
"457 183 OFFCURVE",
"396 183 CURVE SMOOTH",
"313 183 OFFCURVE",
"253 253 OFFCURVE",
"253 350 CURVE SMOOTH",
"253 445 OFFCURVE",
"319 515 OFFCURVE",
"409 515 CURVE SMOOTH",
"467 515 OFFCURVE",
"535 486 OFFCURVE",
"582 441 CURVE",
"713 600 LINE",
"637 666 OFFCURVE",
"516 708 OFFCURVE",
"406 708 CURVE SMOOTH"
);
},
{
closed = 1;
nodes = (
"503 369 LINE",
"503 123 LINE",
"533 98 LINE",
"533 0 LINE",
"702 0 LINE",
"702 369 LINE"
);
}
);
width = 738;
}
);
leftKerningGroup = O;
leftMetricsKey = O;
rightKerningGroup = G;
},
{
glyphname = I.ss01;
layers = (
{
anchors = (
{
name = ogonek;
position = "{472, 10}";
},
{
name = top;
position = "{262, 701}";
}
);
layerId = "5F4BB537-F6D4-41E2-86C5-F7A1868B70F1";
paths = (
{
closed = 1;
nodes = (
"40 525 LINE",
"484 525 LINE",
"484 701 LINE",
"40 701 LINE"
);
},
{
closed = 1;
nodes = (
"40 0 LINE",
"484 0 LINE",
"484 176 LINE",
"40 176 LINE"
);
},
{
closed = 1;
nodes = (
"146 701 LINE",
"146 0 LINE",
"378 0 LINE",
"378 701 LINE"
);
}
);
width = 524;
}
);
leftKerningGroup = I.ss01;
rightKerningGroup = I.ss01;
},
{
glyphname = J.ss01;
layers = (
{
anchors = (
{
name = top;
position = "{285, 701}";
}
);
layerId = "5F4BB537-F6D4-41E2-86C5-F7A1868B70F1";
paths = (
{
closed = 1;
nodes = (
"58 701 LINE",
"58 518 LINE",
"297 518 LINE",
"297 142 LINE SMOOTH",
"297 102 OFFCURVE",
"275 83 OFFCURVE",
"243 83 CURVE SMOOTH",
"208 83 OFFCURVE",
"152 107 OFFCURVE",
"97 162 CURVE",
"-8 12 LINE",
"63 -66 OFFCURVE",
"152 -110 OFFCURVE",
"265 -110 CURVE SMOOTH",
"426 -110 OFFCURVE",
"529 -20 OFFCURVE",
"529 137 CURVE SMOOTH",
"529 701 LINE"
);
}
);
width = 569;
}
);
leftKerningGroup = J.ss01;
leftMetricsKey = J;
rightKerningGroup = J.ss01;
rightMetricsKey = J;
},
{
glyphname = M.ss01;
layers = (
{
anchors = (
{
name = ogonek;
position = "{299, 10}";
},
{
name = top;
position = "{166, 701}";
}
);
layerId = "5F4BB537-F6D4-41E2-86C5-F7A1868B70F1";
paths = (
{
closed = 1;
nodes = (
"327 701 OFFCURVE",
"232 577 OFFCURVE",
"232 385 CURVE",
"282 380 LINE",
"282 448 OFFCURVE",
"321 493 OFFCURVE",
"379 493 CURVE SMOOTH",
"435 493 OFFCURVE",
"466 452 OFFCURVE",
"466 387 CURVE SMOOTH",
"466 0 LINE",
"701 0 LINE",
"701 443 LINE SMOOTH",
"701 600 OFFCURVE",
"612 701 OFFCURVE",
"477 701 CURVE SMOOTH"
);
},
{
closed = 1;
nodes = (
"746 701 OFFCURVE",
"651 577 OFFCURVE",
"651 385 CURVE",
"701 380 LINE",
"701 448 OFFCURVE",
"740 493 OFFCURVE",
"798 493 CURVE SMOOTH",
"854 493 OFFCURVE",
"885 452 OFFCURVE",
"885 387 CURVE SMOOTH",
"885 0 LINE",
"1120 0 LINE",
"1120 443 LINE SMOOTH",
"1120 600 OFFCURVE",
"1031 701 OFFCURVE",
"896 701 CURVE SMOOTH"
);
},
{
closed = 1;
nodes = (
"50 701 LINE",
"50 0 LINE",
"282 0 LINE",
"282 701 LINE"
);
}
);
width = 1160;
}
);
leftKerningGroup = M.ss01;
leftMetricsKey = H;
rightKerningGroup = M.ss01;
rightMetricsKey = U;
},
{
glyphname = N.ss01;
layers = (
{
anchors = (
{
name = bottom;
position = "{381, 0}";
},
{
name = ogonek;
position = "{299, 10}";
},
{
name = top;
position = "{401, 701}";
}
);
layerId = "5F4BB537-F6D4-41E2-86C5-F7A1868B70F1";
paths = (
{
closed = 1;
nodes = (
"332 701 OFFCURVE",
"232 577 OFFCURVE",
"232 385 CURVE",
"282 380 LINE",
"282 449 OFFCURVE",
"325 493 OFFCURVE",
"393 493 CURVE SMOOTH",
"450 493 OFFCURVE",
"486 451 OFFCURVE",
"486 387 CURVE SMOOTH",
"486 0 LINE",
"721 0 LINE",
"721 443 LINE SMOOTH",
"721 600 OFFCURVE",
"629 701 OFFCURVE",
"486 701 CURVE SMOOTH"
);
},
{
closed = 1;
nodes = (
"50 701 LINE",
"50 0 LINE",
"282 0 LINE",
"282 701 LINE"
);
}
);
width = 761;
}
);
leftKerningGroup = N.ss01;
leftMetricsKey = H;
rightKerningGroup = N.ss01;
rightMetricsKey = U;
},
{
glyphname = Eng.ss01;
layers = (
{
anchors = (
{
name = bottom;
position = "{381, 0}";
},
{
name = ogonek;
position = "{299, 10}";
},
{
name = top;
position = "{401, 701}";
}
);
layerId = "5F4BB537-F6D4-41E2-86C5-F7A1868B70F1";
paths = (
{
closed = 1;
nodes = (
"486 -17 OFFCURVE",
"471 -32 OFFCURVE",
"442 -32 CURVE SMOOTH",
"421 -32 OFFCURVE",
"393 -25 OFFCURVE",
"359 -10 CURVE",
"288 -185 LINE",
"338 -211 OFFCURVE",
"393 -225 OFFCURVE",
"457 -225 CURVE SMOOTH",
"610 -225 OFFCURVE",
"712 -143 OFFCURVE",
"721 0 CURVE",
"486 12 LINE"
);
},
{
closed = 1;
nodes = (
"332 701 OFFCURVE",
"232 577 OFFCURVE",
"232 385 CURVE",
"282 380 LINE",
"282 449 OFFCURVE",
"325 493 OFFCURVE",
"393 493 CURVE SMOOTH",
"450 493 OFFCURVE",
"486 451 OFFCURVE",
"486 387 CURVE SMOOTH",
"486 0 LINE",
"721 0 LINE",
"721 443 LINE SMOOTH",
"721 600 OFFCURVE",
"629 701 OFFCURVE",
"486 701 CURVE SMOOTH"
);
},
{
closed = 1;
nodes = (
"50 701 LINE",
"50 0 LINE",
"282 0 LINE",
"282 701 LINE"
);
}
);
width = 761;
}
);
leftKerningGroup = H;
rightKerningGroup = H;
},
{
glyphname = Q.ss01;
layers = (
{
components = (
{
name = O;
}
);
layerId = "5F4BB537-F6D4-41E2-86C5-F7A1868B70F1";
paths = (
{
closed = 1;
nodes = (
"326 -116 LINE",
"466 -116 LINE",
"466 314 LINE",
"326 314 LINE"
);
}
);
width = 800;
}
);
leftKerningGroup = O;
leftMetricsKey = O;
rightKerningGroup = O;
rightMetricsKey = O;
},
{
glyphname = T.ss01;
layers = (
{
anchors = (
{
name = bottom;
position = "{336, 0}";
},
{
name = center;
position = "{356, 351}";
},
{
name = top;
position = "{356, 701}";
}
);
layerId = "5F4BB537-F6D4-41E2-86C5-F7A1868B70F1";
paths = (
{
closed = 1;
nodes = (
"227 711 OFFCURVE",
"108 681 OFFCURVE",
"10 627 CURVE",
"68 456 LINE",
"148 496 OFFCURVE",
"245 521 OFFCURVE",
"350 521 CURVE SMOOTH",
"454 521 OFFCURVE",
"550 497 OFFCURVE",
"634 456 CURVE",
"692 626 LINE",
"592 681 OFFCURVE",
"473 711 OFFCURVE",
"350 711 CURVE SMOOTH"
);
},
{
closed = 1;
nodes = (
"235 601 LINE",
"235 0 LINE",
"467 0 LINE",
"467 601 LINE"
);
}
);
width = 712;
}
);
leftKerningGroup = T;
rightKerningGroup = T;
},
{
glyphname = W.ss01;
layers = (
{
anchors = (
{
name = top;
position = "{577, 701}";
}
);
layerId = "5F4BB537-F6D4-41E2-86C5-F7A1868B70F1";
paths = (
{
closed = 1;
nodes = (
"882 701 LINE",
"882 287 LINE SMOOTH",
"882 227 OFFCURVE",
"845 183 OFFCURVE",
"791 183 CURVE SMOOTH",
"737 183 OFFCURVE",
"693 227 OFFCURVE",
"693 287 CURVE SMOOTH",
"693 701 LINE",
"461 701 LINE",
"461 287 LINE SMOOTH",
"460 227 OFFCURVE",
"421 183 OFFCURVE",
"368 183 CURVE SMOOTH",
"314 183 OFFCURVE",
"272 227 OFFCURVE",
"272 287 CURVE SMOOTH",
"272 701 LINE",
"40 701 LINE",
"40 287 LINE SMOOTH",
"40 115 OFFCURVE",
"163 -10 OFFCURVE",
"330 -10 CURVE SMOOTH",
"435 -10 OFFCURVE",
"529 40 OFFCURVE",
"578 108 CURVE",
"628 40 OFFCURVE",
"724 -10 OFFCURVE",
"828 -10 CURVE SMOOTH",
"993 -10 OFFCURVE",
"1114 115 OFFCURVE",
"1114 287 CURVE SMOOTH",
"1114 701 LINE"
);
}
);
width = 1154;
}
);
leftKerningGroup = W.ss01;
leftMetricsKey = U;
rightKerningGroup = W.ss01;
rightMetricsKey = U;
},
{
glyphname = Y.ss01;
layers = (
{
anchors = (
{
name = top;
position = "{373, 701}";
}
);
layerId = "5F4BB537-F6D4-41E2-86C5-F7A1868B70F1";
paths = (
{
closed = 1;
nodes = (
"430 152 OFFCURVE",
"524 267 OFFCURVE",
"524 448 CURVE",
"474 448 LINE",
"474 388 OFFCURVE",
"433 350 OFFCURVE",
"371 350 CURVE SMOOTH",
"310 350 OFFCURVE",
"272 387 OFFCURVE",
"272 445 CURVE SMOOTH",
"272 701 LINE",
"40 701 LINE",
"40 423 LINE SMOOTH",
"40 259 OFFCURVE",
"136 152 OFFCURVE",
"280 152 CURVE SMOOTH"
);
},
{
closed = 1;
nodes = (
"474 701 LINE",
"474 202 LINE SMOOTH",
"474 130 OFFCURVE",
"417 83 OFFCURVE",
"330 83 CURVE",
"269 83 OFFCURVE",
"193 105 OFFCURVE",
"136 139 CURVE",
"50 -17 LINE",
"126 -73 OFFCURVE",
"246 -110 OFFCURVE",
"361 -110 CURVE SMOOTH",
"569 -110 OFFCURVE",
"706 11 OFFCURVE",
"706 197 CURVE SMOOTH",
"706 701 LINE"
);
}
);
width = 746;
}
);
leftKerningGroup = Y.ss01;
leftMetricsKey = U;
rightKerningGroup = Y.ss01;
rightMetricsKey = J;
},
{
glyphname = Z.ss01;
layers = (
{
anchors = (
{
name = top;
position = "{342, 701}";
}
);
layerId = "5F4BB537-F6D4-41E2-86C5-F7A1868B70F1";
paths = (
{
closed = 1;
nodes = (
"68 436 LINE",
"68 297 LINE",
"360 297 LINE",
"360 436 LINE"
);
},
{
closed = 1;
nodes = (
"330 416 LINE",
"330 277 LINE",
"605 277 LINE",
"605 416 LINE"
);
},
{
closed = 1;
nodes = (
"32 701 LINE",
"32 523 LINE",
"347 523 LINE",
"20 145 LINE",
"20 0 LINE",
"663 0 LINE",
"663 178 LINE",
"329 178 LINE",
"656 556 LINE",
"656 701 LINE"
);
}
);
width = 683;
}
);
leftKerningGroup = Z.ss01;
leftMetricsKey = Z;
rightKerningGroup = Z.ss01;
rightMetricsKey = Z;
},
{
glyphname = a;
layers = (
{
anchors = (
{
name = ogonek;
position = "{594, 10}";
},
{
name = top;
position = "{308, 547}";
}
);
layerId = "5F4BB537-F6D4-41E2-86C5-F7A1868B70F1";
paths = (
{
closed = 1;
nodes = (
"240 557 OFFCURVE",
"144 538 OFFCURVE",
"51 504 CURVE",
"101 354 LINE",
"163 377 OFFCURVE",
"226 389 OFFCURVE",
"267 389 CURVE SMOOTH",
"323 389 OFFCURVE",
"352 366 OFFCURVE",
"352 327 CURVE",
"352 0 LINE",
"573 0 LINE",
"573 354 LINE SMOOTH",
"573 483 OFFCURVE",
"479 557 OFFCURVE",
"321 557 CURVE SMOOTH"
);
},
{
closed = 1;
nodes = (
"227 329 LINE SMOOTH",
"88 327 OFFCURVE",
"15 270 OFFCURVE",
"15 162 CURVE SMOOTH",
"15 58 OFFCURVE",
"82 -10 OFFCURVE",
"198 -10 CURVE SMOOTH",
"291 -10 OFFCURVE",
"352 34 OFFCURVE",
"378 109 CURVE",
"352 175 LINE",
"334 148 OFFCURVE",
"305 133 OFFCURVE",
"276 133 CURVE SMOOTH",
"244 133 OFFCURVE",
"226 151 OFFCURVE",
"226 181 CURVE SMOOTH",
"226 210 OFFCURVE",
"243 225 OFFCURVE",
"274 225 CURVE SMOOTH",
"371 225 LINE",
"371 329 LINE"
);
}
);
width = 613;
}
);
leftKerningGroup = a;
rightKerningGroup = n;
unicode = 0061;
},
{
glyphname = aogonek;
layers = (
{
layerId = "5F4BB537-F6D4-41E2-86C5-F7A1868B70F1";
paths = (
{
closed = 1;
nodes = (
"242 557 OFFCURVE",
"145 538 OFFCURVE",
"51 504 CURVE",
"101 354 LINE",
"164 377 OFFCURVE",
"228 389 OFFCURVE",
"270 389 CURVE SMOOTH",
"325 389 OFFCURVE",
"355 367 OFFCURVE",
"357 330 CURVE",
"357 329 LINE",
"229 329 LINE SMOOTH",
"89 327 OFFCURVE",
"15 270 OFFCURVE",
"15 162 CURVE SMOOTH",
"15 58 OFFCURVE",
"83 -11 OFFCURVE",
"200 -11 CURVE SMOOTH",
"271 -11 OFFCURVE",
"324 15 OFFCURVE",
"357 60 CURVE",
"357 0 LINE",
"426 0 LINE",
"402 -36 OFFCURVE",
"383 -75 OFFCURVE",
"383 -116 CURVE SMOOTH",
"383 -185 OFFCURVE",
"437 -204 OFFCURVE",
"479 -204 CURVE SMOOTH",
"528 -204 OFFCURVE",
"571 -179 OFFCURVE",
"599 -128 CURVE",
"544 -64 LINE",
"533 -83 OFFCURVE",
"520 -94 OFFCURVE",
"507 -94 CURVE SMOOTH",
"499 -94 OFFCURVE",
"493 -89 OFFCURVE",
"493 -79 CURVE SMOOTH",
"493 -63 OFFCURVE",
"509 -33 OFFCURVE",
"531 0 CURVE",
"578 0 LINE",
"578 354 LINE SMOOTH",
"578 483 OFFCURVE",
"483 557 OFFCURVE",
"323 557 CURVE SMOOTH"
);
},
{
closed = 1;
nodes = (
"357 175 LINE",
"338 148 OFFCURVE",
"308 133 OFFCURVE",
"278 133 CURVE SMOOTH",
"245 133 OFFCURVE",
"226 151 OFFCURVE",
"226 181 CURVE SMOOTH",
"226 210 OFFCURVE",
"244 225 OFFCURVE",
"276 225 CURVE SMOOTH",
"357 225 LINE"
);
}
);
width = 618;
}
);
leftKerningGroup = a;
rightKerningGroup = n;
unicode = 0105;
},
{
glyphname = ae;
layers = (
{
anchors = (
{
name = top;
position = "{481, 547}";
}
);
layerId = "5F4BB537-F6D4-41E2-86C5-F7A1868B70F1";
paths = (
{
closed = 0;
nodes = (
"555 124 LINE"
);
},
{
closed = 1;
nodes = (
"241 557 OFFCURVE",
"145 538 OFFCURVE",
"51 504 CURVE",
"101 354 LINE",
"163 377 OFFCURVE",
"227 389 OFFCURVE",
"269 389 CURVE SMOOTH",
"325 389 OFFCURVE",
"355 366 OFFCURVE",
"355 327 CURVE",
"355 140 LINE",
"576 87 LINE",
"576 354 LINE SMOOTH",
"576 483 OFFCURVE",
"481 557 OFFCURVE",
"322 557 CURVE SMOOTH"
);
},
{
closed = 1;
nodes = (
"228 329 LINE SMOOTH",
"89 327 OFFCURVE",
"15 270 OFFCURVE",
"15 162 CURVE SMOOTH",
"15 58 OFFCURVE",
"91 -11 OFFCURVE",
"220 -11 CURVE SMOOTH",
"339 -11 OFFCURVE",
"418 41 OFFCURVE",
"454 127 CURVE",
"355 175 LINE",
"336 148 OFFCURVE",
"306 133 OFFCURVE",
"277 133 CURVE SMOOTH",
"245 133 OFFCURVE",
"226 151 OFFCURVE",
"226 181 CURVE SMOOTH",
"226 210 OFFCURVE",
"244 225 OFFCURVE",
"275 225 CURVE SMOOTH",
"374 225 LINE",
"374 329 LINE"
);
},
{
closed = 1;
nodes = (
"547 223 LINE",
"942 223 LINE",
"954 425 OFFCURVE",
"842 555 OFFCURVE",
"650 555 CURVE SMOOTH",
"485 555 OFFCURVE",
"388 444 OFFCURVE",
"388 271 CURVE SMOOTH",
"388 102 OFFCURVE",
"480 -8 OFFCURVE",
"656 -8 CURVE SMOOTH",
"763 -8 OFFCURVE",
"847 28 OFFCURVE",
"905 92 CURVE",
"788 207 LINE",
"754 175 OFFCURVE",
"715 158 OFFCURVE",
"676 158 CURVE SMOOTH",
"615 158 OFFCURVE",
"576 202 OFFCURVE",
"576 284 CURVE SMOOTH",
"576 352 OFFCURVE",
"602 405 OFFCURVE",
"652 405 CURVE SMOOTH",
"692 405 OFFCURVE",
"720 372 OFFCURVE",
"717 327 CURVE",
"547 327 LINE"
);
}
);
width = 958;
}
);
leftKerningGroup = a;
leftMetricsKey = a;
rightKerningGroup = e;
rightMetricsKey = e;
unicode = 00E6;
},
{
glyphname = b;
layers = (
{
layerId = "5F4BB537-F6D4-41E2-86C5-F7A1868B70F1";
paths = (
{
closed = 1;
nodes = (
"60 742 LINE",
"60 0 LINE",
"285 0 LINE",
"285 742 LINE"
);
},
{
closed = 1;
nodes = (
"298 555 OFFCURVE",
"217 443 OFFCURVE",
"217 271 CURVE",
"217 102 OFFCURVE",
"301 -8 OFFCURVE",
"430 -8 CURVE SMOOTH",
"579 -8 OFFCURVE",
"675 101 OFFCURVE",
"675 270 CURVE SMOOTH",
"675 443 OFFCURVE",
"576 555 OFFCURVE",
"424 555 CURVE SMOOTH"
);
},
{
closed = 1;
nodes = (
"416 382 OFFCURVE",
"448 340 OFFCURVE",
"448 276 CURVE SMOOTH",
"448 212 OFFCURVE",
"416 170 OFFCURVE",
"366 170 CURVE SMOOTH",
"317 170 OFFCURVE",
"285 212 OFFCURVE",
"285 276 CURVE SMOOTH",
"285 340 OFFCURVE",
"317 382 OFFCURVE",
"366 382 CURVE SMOOTH"
);
}
);
width = 690;
}
);
leftKerningGroup = h;
rightKerningGroup = o;
unicode = 0062;
},
{
glyphname = c;
layers = (
{
anchors = (
{
name = bottom;
position = "{290, 0}";
},
{
name = top;
position = "{298, 547}";
}
);
layerId = "5F4BB537-F6D4-41E2-86C5-F7A1868B70F1";
paths = (
{
closed = 1;
nodes = (
"129 555 OFFCURVE",
"15 443 OFFCURVE",
"15 271 CURVE SMOOTH",
"15 102 OFFCURVE",
"128 -8 OFFCURVE",
"302 -8 CURVE SMOOTH",
"427 -8 OFFCURVE",
"523 48 OFFCURVE",
"563 145 CURVE",
"381 229 LINE",
"369 188 OFFCURVE",
"346 170 OFFCURVE",
"314 170 CURVE SMOOTH",
"270 170 OFFCURVE",
"242 210 OFFCURVE",
"242 272 CURVE SMOOTH",
"242 333 OFFCURVE",
"270 373 OFFCURVE",
"314 373 CURVE SMOOTH",
"346 373 OFFCURVE",
"370 354 OFFCURVE",
"384 321 CURVE",
"563 397 LINE",
"518 497 OFFCURVE",
"423 555 OFFCURVE",
"304 555 CURVE SMOOTH"
);
}
);
width = 561;
}
);
leftKerningGroup = o;
rightKerningGroup = c;
unicode = 0063;
},
{
glyphname = d;
layers = (
{
anchors = (
{
name = center;
position = "{-17, 0}";
}
);
layerId = "5F4BB537-F6D4-41E2-86C5-F7A1868B70F1";
paths = (
{
closed = 0;
nodes = (
"433 264 LINE"
);
},
{
closed = 1;
nodes = (
"111 555 OFFCURVE",
"15 446 OFFCURVE",
"15 277 CURVE SMOOTH",
"15 104 OFFCURVE",
"114 -8 OFFCURVE",
"266 -8 CURVE SMOOTH",
"392 -8 OFFCURVE",
"473 104 OFFCURVE",
"473 276 CURVE",
"473 445 OFFCURVE",
"389 555 OFFCURVE",
"260 555 CURVE SMOOTH"
);
},
{
closed = 1;
nodes = (
"373 377 OFFCURVE",
"405 335 OFFCURVE",
"405 271 CURVE SMOOTH",
"405 207 OFFCURVE",
"373 165 OFFCURVE",
"324 165 CURVE SMOOTH",
"274 165 OFFCURVE",
"242 207 OFFCURVE",
"242 271 CURVE SMOOTH",
"242 335 OFFCURVE",
"274 377 OFFCURVE",
"324 377 CURVE SMOOTH"
);
},
{
closed = 1;
nodes = (
"405 742 LINE",
"405 0 LINE",
"630 0 LINE",
"630 742 LINE"
);
}
);
width = 690;
}
);
leftKerningGroup = o;
rightKerningGroup = l;
unicode = 0064;
},
{
glyphname = eth;
layers = (
{
layerId = "5F4BB537-F6D4-41E2-86C5-F7A1868B70F1";
paths = (
{
closed = 1;
nodes = (
"84 663 LINE",
"228 602 OFFCURVE",
"345 502 OFFCURVE",
"381 409 CURVE",
"349 433 OFFCURVE",
"292 448 OFFCURVE",
"236 448 CURVE SMOOTH",
"98 448 OFFCURVE",
"9 361 OFFCURVE",
"9 227 CURVE SMOOTH",
"9 83 OFFCURVE",
"117 -10 OFFCURVE",
"284 -10 CURVE SMOOTH",
"477 -10 OFFCURVE",
"602 113 OFFCURVE",
"602 303 CURVE SMOOTH",
"602 501 OFFCURVE",
"458 677 OFFCURVE",
"235 752 CURVE"
);
},
{
closed = 1;
nodes = (
"334 300 OFFCURVE",
"361 275 OFFCURVE",
"361 237 CURVE SMOOTH",
"361 199 OFFCURVE",
"334 174 OFFCURVE",
"292 174 CURVE SMOOTH",
"251 174 OFFCURVE",
"224 199 OFFCURVE",
"224 238 CURVE SMOOTH",
"224 276 OFFCURVE",
"250 300 OFFCURVE",
"291 300 CURVE SMOOTH"
);
},
{
closed = 1;
nodes = (
"98 556 LINE",
"132 456 LINE",
"592 614 LINE",
"558 715 LINE"
);
}
);
width = 617;
}
);
leftKerningGroup = o;
rightKerningGroup = O;
rightMetricsKey = O;
unicode = 00F0;
},
{
glyphname = dcroat;
layers = (
{
components = (
{
name = d;
}
);
layerId = "5F4BB537-F6D4-41E2-86C5-F7A1868B70F1";
paths = (
{
closed = 1;
nodes = (
"332 687 LINE",
"332 574 LINE",
"692 574 LINE",
"692 687 LINE"
);
}
);
width = 701;
}
);
leftKerningGroup = o;
rightKerningGroup = l;
unicode = 0111;
},
{
glyphname = e;
layers = (
{
anchors = (
{
name = bottom;
position = "{307, 0}";
},
{
name = ogonek;
position = "{552, 10}";
},
{
name = top;
position = "{303, 547}";
}
);
layerId = "5F4BB537-F6D4-41E2-86C5-F7A1868B70F1";
paths = (
{
closed = 1;
nodes = (
"204 223 LINE",
"598 223 LINE",
"610 425 OFFCURVE",
"498 555 OFFCURVE",
"307 555 CURVE SMOOTH",
"131 555 OFFCURVE",
"15 444 OFFCURVE",
"15 271 CURVE SMOOTH",
"15 102 OFFCURVE",
"126 -8 OFFCURVE",
"313 -8 CURVE SMOOTH",
"419 -8 OFFCURVE",
"503 28 OFFCURVE",
"561 92 CURVE",
"444 207 LINE",
"410 175 OFFCURVE",
"371 158 OFFCURVE",
"333 158 CURVE SMOOTH",
"272 158 OFFCURVE",
"233 202 OFFCURVE",
"233 284 CURVE SMOOTH",
"233 352 OFFCURVE",
"259 405 OFFCURVE",
"309 405 CURVE SMOOTH",
"348 405 OFFCURVE",
"376 372 OFFCURVE",
"373 327 CURVE",
"204 327 LINE"
);
}
);
width = 614;
}
);
leftKerningGroup = o;
rightKerningGroup = o;
unicode = 0065;
},
{
glyphname = eogonek;
layers = (
{
layerId = "5F4BB537-F6D4-41E2-86C5-F7A1868B70F1";
paths = (
{
closed = 1;
nodes = (
"131 555 OFFCURVE",
"15 444 OFFCURVE",
"15 271 CURVE SMOOTH",
"15 102 OFFCURVE",
"126 -8 OFFCURVE",
"313 -8 CURVE SMOOTH",
"337 -8 OFFCURVE",
"362 -3 OFFCURVE",
"385 5 CURVE",
"358 -32 OFFCURVE",
"337 -74 OFFCURVE",
"337 -116 CURVE SMOOTH",
"337 -185 OFFCURVE",
"391 -204 OFFCURVE",
"433 -204 CURVE SMOOTH",
"482 -204 OFFCURVE",
"524 -179 OFFCURVE",
"552 -128 CURVE",
"497 -64 LINE",
"486 -83 OFFCURVE",
"474 -94 OFFCURVE",
"461 -94 CURVE SMOOTH",
"453 -94 OFFCURVE",
"447 -89 OFFCURVE",
"447 -79 CURVE SMOOTH",
"447 -32 OFFCURVE",
"527 55 OFFCURVE",
"561 92 CURVE",
"444 207 LINE",
"410 175 OFFCURVE",
"371 158 OFFCURVE",
"333 158 CURVE SMOOTH",
"290 158 OFFCURVE",
"258 180 OFFCURVE",
"242 223 CURVE",
"598 223 LINE",
"610 425 OFFCURVE",
"498 555 OFFCURVE",
"307 555 CURVE SMOOTH"
);
},
{
closed = 1;
nodes = (
"348 405 OFFCURVE",
"376 372 OFFCURVE",
"373 327 CURVE",
"237 327 LINE",
"246 373 OFFCURVE",
"271 405 OFFCURVE",
"309 405 CURVE SMOOTH"
);
}
);
width = 614;
}
);
leftKerningGroup = o;
rightKerningGroup = e;
unicode = 0119;
},
{
glyphname = f;
layers = (
{
layerId = "5F4BB537-F6D4-41E2-86C5-F7A1868B70F1";
paths = (
{
closed = 1;
nodes = (
"184 753 OFFCURVE",
"95 680 OFFCURVE",
"95 566 CURVE SMOOTH",
"95 0 LINE",
"319 0 LINE",
"319 532 LINE",
"319 561 OFFCURVE",
"339 579 OFFCURVE",
"371 578 CURVE",
"387 578 OFFCURVE",
"409 571 OFFCURVE",
"426 559 CURVE",
"501 713 LINE",
"455 737 OFFCURVE",
"384 752 OFFCURVE",
"322 752 CURVE"
);
},
{
closed = 1;
nodes = (
"20 517 LINE",
"20 375 LINE",
"425 375 LINE",
"425 517 LINE"
);
}
);
width = 426;
}
);
leftKerningGroup = f;
rightKerningGroup = f;
unicode = 0066;
},
{
glyphname = g;
layers = (
{
anchors = (
{
name = top;
position = "{327, 547}";
}
);
layerId = "5F4BB537-F6D4-41E2-86C5-F7A1868B70F1";
paths = (
{
closed = 1;
nodes = (
"377 547 LINE",
"377 39 LINE SMOOTH",
"377 -3 OFFCURVE",
"341 -30 OFFCURVE",
"275 -30 CURVE SMOOTH",
"222 -30 OFFCURVE",
"156 -12 OFFCURVE",
"108 18 CURVE",
"37 -133 LINE",
"94 -171 OFFCURVE",
"190 -204 OFFCURVE",
"295 -204 CURVE SMOOTH",
"476 -204 OFFCURVE",
"601 -107 OFFCURVE",
"601 45 CURVE SMOOTH",
"601 547 LINE"
);
},
{
closed = 1;
nodes = (
"107 555 OFFCURVE",
"15 454 OFFCURVE",
"15 297 CURVE SMOOTH",
"15 136 OFFCURVE",
"111 33 OFFCURVE",
"240 33 CURVE SMOOTH",
"368 33 OFFCURVE",
"440 136 OFFCURVE",
"440 296 CURVE",
"440 453 OFFCURVE",
"365 555 OFFCURVE",
"236 555 CURVE SMOOTH"
);
},
{
closed = 1;
nodes = (
"347 390 OFFCURVE",
"377 351 OFFCURVE",
"377 291 CURVE SMOOTH",
"377 232 OFFCURVE",
"347 193 OFFCURVE",
"301 193 CURVE SMOOTH",
"255 193 OFFCURVE",
"225 232 OFFCURVE",
"225 291 CURVE SMOOTH",
"225 351 OFFCURVE",
"255 390 OFFCURVE",
"301 390 CURVE SMOOTH"
);
}
);
width = 654;
}
);
leftKerningGroup = o;
rightKerningGroup = j;
unicode = 0067;
},
{
glyphname = h;
layers = (
{
anchors = (
{
name = bottom;
position = "{680, 0}";
},
{
name = center;
position = "{339, 274}";
},
{
name = top;
position = "{166, 742}";
},
{
name = topright;
position = "{315, 547}";
}
);
layerId = "5F4BB537-F6D4-41E2-86C5-F7A1868B70F1";
paths = (
{
closed = 1;
nodes = (
"647 0 LINE",
"647 349 LINE SMOOTH",
"647 475 OFFCURVE",
"566 557 OFFCURVE",
"451 557 CURVE SMOOTH",
"316 557 OFFCURVE",
"235 445 OFFCURVE",
"235 271 CURVE",
"285 271 LINE",
"285 324 OFFCURVE",
"313 359 OFFCURVE",
"357 359 CURVE SMOOTH",
"396 359 OFFCURVE",
"422 330 OFFCURVE",
"422 284 CURVE SMOOTH",
"422 0 LINE"
);
},
{
closed = 1;
nodes = (
"285 0 LINE",
"285 742 LINE",
"60 742 LINE",
"60 0 LINE"
);
}
);
width = 687;
}
);
leftKerningGroup = h;
rightKerningGroup = n;
unicode = 0068;
},
{
glyphname = hbar;
layers = (
{
components = (
{
name = h;
}
);
layerId = "5F4BB537-F6D4-41E2-86C5-F7A1868B70F1";
paths = (
{
closed = 1;
nodes = (
"-16 682 LINE",
"-16 563 LINE",
"382 563 LINE",
"382 682 LINE"
);
}
);
width = 677;
}
);
leftKerningGroup = h;
rightKerningGroup = n;
unicode = 0127;
},
{
glyphname = i;
layers = (
{
anchors = (
{
name = _top;
position = "{168, 547}";
},
{
name = ogonek;
position = "{291, 10}";
},
{
name = top;
position = "{168, 547}";
}
);
layerId = "5F4BB537-F6D4-41E2-86C5-F7A1868B70F1";
paths = (
{
closed = 1;
nodes = (
"55 547 LINE",
"55 0 LINE",
"280 0 LINE",
"280 547 LINE"
);
},
{
closed = 1;
nodes = (
"101 817 OFFCURVE",
"54 770 OFFCURVE",
"54 703 CURVE SMOOTH",
"54 636 OFFCURVE",
"101 589 OFFCURVE",
"168 589 CURVE SMOOTH",
"235 589 OFFCURVE",
"282 636 OFFCURVE",
"282 703 CURVE SMOOTH",
"282 770 OFFCURVE",
"235 817 OFFCURVE",
"168 817 CURVE SMOOTH"
);
}
);
width = 335;
}
);
leftKerningGroup = dotlessi;
rightKerningGroup = dotlessi;
unicode = 0069;
},
{
glyphname = idotless;
layers = (
{
anchors = (
{
name = ogonek;
position = "{291, 10}";
},
{
name = top;
position = "{168, 547}";
}
);
layerId = "5F4BB537-F6D4-41E2-86C5-F7A1868B70F1";
paths = (
{
closed = 1;
nodes = (
"55 547 LINE",
"55 0 LINE",
"280 0 LINE",
"280 547 LINE"
);
}
);
width = 335;
}
);
leftKerningGroup = i;
rightKerningGroup = i;
unicode = 0131;
},
{
glyphname = iogonek;
layers = (
{
layerId = "5F4BB537-F6D4-41E2-86C5-F7A1868B70F1";
paths = (
{
closed = 1;
nodes = (
"43 547 LINE",
"43 0 LINE",
"107 0 LINE",
"83 -36 OFFCURVE",
"64 -75 OFFCURVE",
"64 -116 CURVE SMOOTH",
"64 -185 OFFCURVE",
"118 -204 OFFCURVE",
"160 -204 CURVE SMOOTH",
"209 -204 OFFCURVE",
"252 -179 OFFCURVE",
"280 -128 CURVE",
"225 -64 LINE",
"214 -83 OFFCURVE",
"201 -94 OFFCURVE",
"188 -94 CURVE SMOOTH",
"180 -94 OFFCURVE",
"174 -89 OFFCURVE",
"174 -79 CURVE SMOOTH",
"174 -63 OFFCURVE",
"190 -33 OFFCURVE",
"212 0 CURVE",
"268 0 LINE",
"268 547 LINE"
);
},
{
closed = 1;
nodes = (
"89 817 OFFCURVE",
"42 770 OFFCURVE",
"42 703 CURVE SMOOTH",
"42 636 OFFCURVE",
"89 589 OFFCURVE",
"156 589 CURVE SMOOTH",
"223 589 OFFCURVE",
"270 636 OFFCURVE",
"270 703 CURVE SMOOTH",
"270 770 OFFCURVE",
"223 817 OFFCURVE",
"156 817 CURVE SMOOTH"
);
}
);
width = 311;
}
);
leftKerningGroup = i;
rightKerningGroup = i;
unicode = 012F;
},
{
glyphname = j;
layers = (
{
layerId = "5F4BB537-F6D4-41E2-86C5-F7A1868B70F1";
paths = (
{
closed = 1;
nodes = (
"60 547 LINE",
"60 17 LINE",
"60 -14 OFFCURVE",
"44 -30 OFFCURVE",
"16 -29 CURVE",
"-2 -29 OFFCURVE",
"-20 -24 OFFCURVE",
"-39 -15 CURVE",
"-89 -169 LINE",
"-46 -191 OFFCURVE",
"8 -203 OFFCURVE",
"68 -203 CURVE",
"200 -204 OFFCURVE",
"285 -132 OFFCURVE",
"285 -17 CURVE",
"285 547 LINE"
);
},
{
closed = 1;
nodes = (
"100 817 OFFCURVE",
"49 770 OFFCURVE",
"49 703 CURVE SMOOTH",
"49 636 OFFCURVE",
"100 589 OFFCURVE",
"172 589 CURVE SMOOTH",
"245 589 OFFCURVE",
"295 636 OFFCURVE",
"295 703 CURVE SMOOTH",
"295 770 OFFCURVE",
"245 817 OFFCURVE",
"172 817 CURVE SMOOTH"
);
}
);
width = 348;
}
);
leftKerningGroup = j;
rightKerningGroup = j;
unicode = 006A;
},
{
glyphname = jdotless;
layers = (
{
anchors = (
{
name = top;
position = "{164, 547}";
}
);
layerId = "5F4BB537-F6D4-41E2-86C5-F7A1868B70F1";
paths = (
{
closed = 1;
nodes = (
"60 547 LINE",
"60 17 LINE",
"60 -14 OFFCURVE",
"44 -30 OFFCURVE",
"16 -29 CURVE",
"-2 -29 OFFCURVE",
"-20 -24 OFFCURVE",
"-39 -15 CURVE",
"-89 -169 LINE",
"-46 -191 OFFCURVE",
"8 -203 OFFCURVE",
"68 -203 CURVE",
"200 -204 OFFCURVE",
"285 -132 OFFCURVE",
"285 -17 CURVE",
"285 547 LINE"
);
}
);
width = 338;
}
);
leftKerningGroup = j;
rightKerningGroup = j;
rightMetricsKey = i;
unicode = 0237;
},
{
glyphname = k;
layers = (
{
anchors = (
{
name = bottom;
position = "{143, 0}";
},
{
name = top;
position = "{173, 742}";
},
{
name = topright;
position = "{315, 547}";
}
);
layerId = "5F4BB537-F6D4-41E2-86C5-F7A1868B70F1";
paths = (
{
closed = 0;
nodes = (
"230 111 LINE"
);
},
{
closed = 1;
nodes = (
"60 742 LINE",
"60 0 LINE",
"285 0 LINE",
"285 742 LINE"
);
},
{
closed = 1;
nodes = (
"412 547 LINE",
"275 394 LINE",
"275 133 LINE",
"666 547 LINE"
);
},
{
closed = 1;
nodes = (
"287 224 LINE",
"396 0 LINE",
"663 0 LINE",
"453 360 LINE"
);
}
);
width = 662;
}
);
leftKerningGroup = h;
rightKerningGroup = x;
unicode = 006B;
},
{
glyphname = kgreenlandic;
layers = (
{
anchors = (
{
name = bottom;
position = "{324, 0}";
},
{
name = ogonek;
position = "{291, 10}";
},
{
name = top;
position = "{168, 547}";
}
);
layerId = "5F4BB537-F6D4-41E2-86C5-F7A1868B70F1";
paths = (
{
closed = 0;
nodes = (
"230 111 LINE"
);
},
{
closed = 1;
nodes = (
"55 547 LINE",
"55 0 LINE",
"280 0 LINE",
"280 547 LINE"
);
},
{
closed = 1;
nodes = (
"405 547 LINE",
"268 394 LINE",
"268 133 LINE",
"659 547 LINE"
);
},
{
closed = 1;
nodes = (
"280 224 LINE",
"389 0 LINE",
"656 0 LINE",
"446 360 LINE"
);
}
);
width = 655;
}
);
leftKerningGroup = h;
leftMetricsKey = n;
rightKerningGroup = k;
rightMetricsKey = k;
unicode = 0138;
},
{
glyphname = l;
layers = (
{
anchors = (
{
name = bottom;
position = "{173, 0}";
},
{
name = top;
position = "{173, 742}";
},
{
name = topright;
position = "{315, 547}";
}
);
layerId = "5F4BB537-F6D4-41E2-86C5-F7A1868B70F1";
paths = (
{
closed = 1;
nodes = (
"60 742 LINE",
"60 0 LINE",
"285 0 LINE",
"285 742 LINE"
);
}
);
width = 345;
}
);
leftKerningGroup = h;
rightKerningGroup = l;
unicode = 006C;
},
{
glyphname = ldot;
layers = (
{
components = (
{
name = l;
}
);
layerId = "5F4BB537-F6D4-41E2-86C5-F7A1868B70F1";
paths = (
{
closed = 1;
nodes = (
"340 417 OFFCURVE",
"298 375 OFFCURVE",
"298 314 CURVE SMOOTH",
"298 254 OFFCURVE",
"340 212 OFFCURVE",
"401 212 CURVE SMOOTH",
"461 212 OFFCURVE",
"503 254 OFFCURVE",
"503 314 CURVE SMOOTH",
"503 375 OFFCURVE",
"461 417 OFFCURVE",
"401 417 CURVE SMOOTH"
);
}
);
width = 457;
}
);
leftKerningGroup = h;
leftMetricsKey = l;
rightKerningGroup = l;
unicode = 0140;
},
{
glyphname = lslash;
layers = (
{
components = (
{
name = l;
transform = "{1, 0, 0, 1, 24, 0}";
}
);
layerId = "5F4BB537-F6D4-41E2-86C5-F7A1868B70F1";
paths = (
{
closed = 1;
nodes = (
"-45 424 LINE",
"-7 290 LINE",
"418 412 LINE",
"380 547 LINE"
);
}
);
width = 373;
}
);
leftKerningGroup = lslash;
rightKerningGroup = lslash;
unicode = 0142;
},
{
glyphname = m;
layers = (
{
layerId = "5F4BB537-F6D4-41E2-86C5-F7A1868B70F1";
paths = (
{
closed = 1;
nodes = (
"55 547 LINE",
"55 0 LINE",
"280 0 LINE",
"280 547 LINE"
);
},
{
closed = 1;
nodes = (
"310 557 OFFCURVE",
"230 445 OFFCURVE",
"230 271 CURVE",
"280 271 LINE",
"280 324 OFFCURVE",
"307 359 OFFCURVE",
"349 359 CURVE SMOOTH",
"386 359 OFFCURVE",
"411 330 OFFCURVE",
"411 284 CURVE SMOOTH",
"411 0 LINE",
"636 0 LINE",
"636 349 LINE SMOOTH",
"636 475 OFFCURVE",
"556 557 OFFCURVE",
"443 557 CURVE SMOOTH"
);
},
{
closed = 1;
nodes = (
"666 557 OFFCURVE",
"586 445 OFFCURVE",
"586 271 CURVE",
"636 271 LINE",
"636 324 OFFCURVE",
"663 359 OFFCURVE",
"705 359 CURVE SMOOTH",
"742 359 OFFCURVE",
"767 330 OFFCURVE",
"767 284 CURVE SMOOTH",
"767 0 LINE",
"992 0 LINE",
"992 349 LINE SMOOTH",
"992 475 OFFCURVE",
"912 557 OFFCURVE",
"799 557 CURVE SMOOTH"
);
}
);
width = 1032;
}
);
leftKerningGroup = n;
rightKerningGroup = n;
unicode = 006D;
},
{
glyphname = n;
layers = (
{
anchors = (
{
name = bottom;
position = "{347, 0}";
},
{
name = top;
position = "{360, 547}";
}
);
layerId = "5F4BB537-F6D4-41E2-86C5-F7A1868B70F1";
paths = (
{
closed = 1;
nodes = (
"55 547 LINE",
"55 0 LINE",
"280 0 LINE",
"280 547 LINE"
);
},
{
closed = 1;
nodes = (
"311 557 OFFCURVE",
"230 445 OFFCURVE",
"230 271 CURVE",
"280 271 LINE",
"280 324 OFFCURVE",
"308 359 OFFCURVE",
"352 359 CURVE SMOOTH",
"391 359 OFFCURVE",
"417 330 OFFCURVE",
"417 284 CURVE SMOOTH",
"417 0 LINE",
"642 0 LINE",
"642 349 LINE SMOOTH",
"642 475 OFFCURVE",
"561 557 OFFCURVE",
"446 557 CURVE SMOOTH"
);
}
);
width = 682;
}
);
leftKerningGroup = n;
rightKerningGroup = n;
unicode = 006E;
},
{
glyphname = eng;
layers = (
{
anchors = (
{
name = bottom;
position = "{347, 0}";
},
{
name = top;
position = "{360, 547}";
}
);
layerId = "5F4BB537-F6D4-41E2-86C5-F7A1868B70F1";
paths = (
{
closed = 1;
nodes = (
"311 557 OFFCURVE",
"230 445 OFFCURVE",
"230 271 CURVE",
"280 271 LINE",
"280 324 OFFCURVE",
"308 359 OFFCURVE",
"352 359 CURVE SMOOTH",
"391 359 OFFCURVE",
"417 330 OFFCURVE",
"417 284 CURVE SMOOTH",
"417 17 LINE SMOOTH",
"417 -14 OFFCURVE",
"401 -30 OFFCURVE",
"373 -29 CURVE",
"355 -29 OFFCURVE",
"337 -24 OFFCURVE",
"318 -15 CURVE",
"268 -169 LINE",
"311 -191 OFFCURVE",
"365 -203 OFFCURVE",
"425 -203 CURVE SMOOTH",
"557 -204 OFFCURVE",
"642 -132 OFFCURVE",
"642 -23 CURVE SMOOTH",
"642 349 LINE SMOOTH",
"642 475 OFFCURVE",
"561 557 OFFCURVE",
"446 557 CURVE SMOOTH"
);
},
{
closed = 1;
nodes = (
"55 547 LINE",
"55 0 LINE",
"280 0 LINE",
"280 547 LINE"
);
}
);
width = 682;
}
);
leftKerningGroup = i;
rightKerningGroup = i;
unicode = 014B;
},
{
glyphname = o;
layers = (
{
anchors = (
{
name = top;
position = "{324, 547}";
}
);
layerId = "5F4BB537-F6D4-41E2-86C5-F7A1868B70F1";
paths = (
{
closed = 1;
nodes = (
"136 555 OFFCURVE",
"15 445 OFFCURVE",
"15 274 CURVE SMOOTH",
"15 103 OFFCURVE",
"136 -8 OFFCURVE",
"324 -8 CURVE SMOOTH",
"512 -8 OFFCURVE",
"633 103 OFFCURVE",
"633 274 CURVE SMOOTH",
"633 445 OFFCURVE",
"512 555 OFFCURVE",
"324 555 CURVE SMOOTH"
);
},
{
closed = 1;
nodes = (
"374 377 OFFCURVE",
"406 335 OFFCURVE",
"406 271 CURVE SMOOTH",
"406 207 OFFCURVE",
"374 165 OFFCURVE",
"324 165 CURVE SMOOTH",
"274 165 OFFCURVE",
"242 207 OFFCURVE",
"242 271 CURVE SMOOTH",
"242 335 OFFCURVE",
"274 377 OFFCURVE",
"324 377 CURVE SMOOTH"
);
}
);
width = 648;
}
);
leftKerningGroup = o;
rightKerningGroup = o;
unicode = 006F;
},
{
glyphname = oslash;
layers = (
{
anchors = (
{
name = top;
position = "{324, 547}";
}
);
layerId = "5F4BB537-F6D4-41E2-86C5-F7A1868B70F1";
paths = (
{
closed = 1;
nodes = (
"413 677 LINE",
"146 -139 LINE",
"234 -139 LINE",
"501 677 LINE"
);
},
{
closed = 1;
nodes = (
"136 555 OFFCURVE",
"15 445 OFFCURVE",
"15 274 CURVE SMOOTH",
"15 103 OFFCURVE",
"136 -8 OFFCURVE",
"324 -8 CURVE SMOOTH",
"512 -8 OFFCURVE",
"633 103 OFFCURVE",
"633 274 CURVE SMOOTH",
"633 445 OFFCURVE",
"512 555 OFFCURVE",
"324 555 CURVE SMOOTH"
);
},
{
closed = 1;
nodes = (
"383 396 OFFCURVE",
"421 347 OFFCURVE",
"421 271 CURVE SMOOTH",
"421 195 OFFCURVE",
"383 146 OFFCURVE",
"324 146 CURVE SMOOTH",
"265 146 OFFCURVE",
"227 195 OFFCURVE",
"227 271 CURVE SMOOTH",
"227 347 OFFCURVE",
"265 396 OFFCURVE",
"324 396 CURVE SMOOTH"
);
}
);
width = 648;
}
);
leftKerningGroup = o;
leftMetricsKey = o;
rightKerningGroup = o;
rightMetricsKey = o;
unicode = 00F8;
},
{
glyphname = oe;
layers = (
{
anchors = (
{
name = top;
position = "{505, 547}";
}
);
layerId = "5F4BB537-F6D4-41E2-86C5-F7A1868B70F1";
paths = (
{
closed = 0;
nodes = (
"315 237 LINE"
);
},
{
closed = 1;
nodes = (
"136 555 OFFCURVE",
"15 445 OFFCURVE",
"15 274 CURVE SMOOTH",
"15 103 OFFCURVE",
"136 -8 OFFCURVE",
"324 -8 CURVE SMOOTH",
"494 -8 OFFCURVE",
"583 103 OFFCURVE",
"583 274 CURVE SMOOTH",
"583 445 OFFCURVE",
"494 555 OFFCURVE",
"324 555 CURVE SMOOTH"
);
},
{
closed = 1;
nodes = (
"374 377 OFFCURVE",
"406 335 OFFCURVE",
"406 271 CURVE SMOOTH",
"406 207 OFFCURVE",
"374 165 OFFCURVE",
"324 165 CURVE SMOOTH",
"274 165 OFFCURVE",
"242 207 OFFCURVE",
"242 271 CURVE SMOOTH",
"242 335 OFFCURVE",
"274 377 OFFCURVE",
"324 377 CURVE SMOOTH"
);
},
{
closed = 1;
nodes = (
"585 223 LINE",
"983 223 LINE",
"995 425 OFFCURVE",
"882 555 OFFCURVE",
"690 555 CURVE SMOOTH",
"531 555 OFFCURVE",
"446 444 OFFCURVE",
"446 271 CURVE SMOOTH",
"446 102 OFFCURVE",
"526 -8 OFFCURVE",
"696 -8 CURVE SMOOTH",
"803 -8 OFFCURVE",
"887 28 OFFCURVE",
"946 92 CURVE",
"829 207 LINE",
"794 175 OFFCURVE",
"755 158 OFFCURVE",
"716 158 CURVE SMOOTH",
"654 158 OFFCURVE",
"614 202 OFFCURVE",
"614 284 CURVE SMOOTH",
"614 352 OFFCURVE",
"641 405 OFFCURVE",
"692 405 CURVE SMOOTH",
"732 405 OFFCURVE",
"761 372 OFFCURVE",
"758 327 CURVE",
"585 327 LINE"
);
}
);
width = 999;
}
);
leftKerningGroup = o;
leftMetricsKey = o;
rightKerningGroup = e;
rightMetricsKey = e;
unicode = 0153;
},
{
glyphname = p;
layers = (
{
layerId = "5F4BB537-F6D4-41E2-86C5-F7A1868B70F1";
paths = (
{
closed = 1;
nodes = (
"60 547 LINE",
"60 -194 LINE",
"285 -194 LINE",
"285 547 LINE"
);
},
{
closed = 0;
nodes = (
"366 20 LINE"
);
},
{
closed = 1;
nodes = (
"298 555 OFFCURVE",
"217 443 OFFCURVE",
"217 271 CURVE",
"217 102 OFFCURVE",
"301 -8 OFFCURVE",
"430 -8 CURVE SMOOTH",
"579 -8 OFFCURVE",
"675 101 OFFCURVE",
"675 270 CURVE SMOOTH",
"675 443 OFFCURVE",
"576 555 OFFCURVE",
"424 555 CURVE SMOOTH"
);
},
{
closed = 1;
nodes = (
"416 382 OFFCURVE",
"448 340 OFFCURVE",
"448 276 CURVE SMOOTH",
"448 212 OFFCURVE",
"416 170 OFFCURVE",
"366 170 CURVE SMOOTH",
"317 170 OFFCURVE",
"285 212 OFFCURVE",
"285 276 CURVE SMOOTH",
"285 340 OFFCURVE",
"317 382 OFFCURVE",
"366 382 CURVE SMOOTH"
);
}
);
width = 690;
}
);
leftKerningGroup = p;
rightKerningGroup = o;
unicode = 0070;
},
{
glyphname = thorn;
layers = (
{
anchors = (
{
name = bottom;
position = "{173, 0}";
},
{
name = top;
position = "{173, 742}";
},
{
name = topright;
position = "{315, 547}";
}
);
layerId = "5F4BB537-F6D4-41E2-86C5-F7A1868B70F1";
paths = (
{
closed = 0;
nodes = (
"347 280 LINE"
);
},
{
closed = 1;
nodes = (
"60 547 LINE",
"60 -194 LINE",
"285 -194 LINE",
"285 547 LINE"
);
},
{
closed = 0;
nodes = (
"366 20 LINE"
);
},
{
closed = 1;
nodes = (
"298 555 OFFCURVE",
"217 443 OFFCURVE",
"217 271 CURVE",
"217 102 OFFCURVE",
"301 -8 OFFCURVE",
"430 -8 CURVE SMOOTH",
"579 -8 OFFCURVE",
"675 101 OFFCURVE",
"675 270 CURVE SMOOTH",
"675 443 OFFCURVE",
"576 555 OFFCURVE",
"424 555 CURVE SMOOTH"
);
},
{
closed = 1;
nodes = (
"416 382 OFFCURVE",
"448 340 OFFCURVE",
"448 276 CURVE SMOOTH",
"448 212 OFFCURVE",
"416 170 OFFCURVE",
"366 170 CURVE SMOOTH",
"317 170 OFFCURVE",
"285 212 OFFCURVE",
"285 276 CURVE SMOOTH",
"285 340 OFFCURVE",
"317 382 OFFCURVE",
"366 382 CURVE SMOOTH"
);
},
{
closed = 1;
nodes = (
"60 742 LINE",
"60 0 LINE",
"285 0 LINE",
"285 742 LINE"
);
}
);
width = 690;
}
);
leftKerningGroup = h;
leftMetricsKey = l;
rightKerningGroup = o;
rightMetricsKey = o;
unicode = 00FE;
},
{
glyphname = q;
layers = (
{
layerId = "5F4BB537-F6D4-41E2-86C5-F7A1868B70F1";
paths = (
{
closed = 1;
nodes = (
"405 547 LINE",
"405 -194 LINE",
"630 -194 LINE",
"630 547 LINE"
);
},
{
closed = 0;
nodes = (
"446 264 LINE"
);
},
{
closed = 1;
nodes = (
"111 555 OFFCURVE",
"15 446 OFFCURVE",
"15 277 CURVE SMOOTH",
"15 104 OFFCURVE",
"114 -8 OFFCURVE",
"266 -8 CURVE SMOOTH",
"392 -8 OFFCURVE",
"473 104 OFFCURVE",
"473 276 CURVE",
"473 445 OFFCURVE",
"389 555 OFFCURVE",
"260 555 CURVE SMOOTH"
);
},
{
closed = 1;
nodes = (
"373 377 OFFCURVE",
"405 335 OFFCURVE",
"405 271 CURVE SMOOTH",
"405 207 OFFCURVE",
"373 165 OFFCURVE",
"324 165 CURVE SMOOTH",
"274 165 OFFCURVE",
"242 207 OFFCURVE",
"242 271 CURVE SMOOTH",
"242 335 OFFCURVE",
"274 377 OFFCURVE",
"324 377 CURVE SMOOTH"
);
}
);
width = 690;
}
);
leftKerningGroup = o;
rightKerningGroup = q;
unicode = 0071;
},
{
glyphname = r;
layers = (
{
anchors = (
{
name = bottom;
position = "{161, 0}";
},
{
name = top;
position = "{245, 547}";
}
);
layerId = "5F4BB537-F6D4-41E2-86C5-F7A1868B70F1";
paths = (
{
closed = 1;
nodes = (
"55 547 LINE",
"55 0 LINE",
"280 0 LINE",
"280 547 LINE"
);
},
{
closed = 1;
nodes = (
"315 557 OFFCURVE",
"230 445 OFFCURVE",
"230 271 CURVE",
"280 261 LINE",
"280 333 OFFCURVE",
"346 369 OFFCURVE",
"447 354 CURVE",
"447 557 LINE"
);
}
);
width = 457;
}
);
leftKerningGroup = n;
rightKerningGroup = r;
unicode = 0072;
},
{
glyphname = s;
layers = (
{
anchors = (
{
name = bottom;
position = "{275, 0}";
},
{
name = top;
position = "{289, 547}";
}
);
layerId = "5F4BB537-F6D4-41E2-86C5-F7A1868B70F1";
paths = (
{
closed = 1;
nodes = (
"133 557 OFFCURVE",
"38 483 OFFCURVE",
"38 368 CURVE SMOOTH",
"38 183 OFFCURVE",
"316 204 OFFCURVE",
"316 156 CURVE SMOOTH",
"316 146 OFFCURVE",
"303 140 OFFCURVE",
"282 140 CURVE SMOOTH",
"221 140 OFFCURVE",
"153 163 OFFCURVE",
"80 208 CURVE",
"12 68 LINE",
"88 16 OFFCURVE",
"178 -10 OFFCURVE",
"279 -10 CURVE SMOOTH",
"430 -10 OFFCURVE",
"527 63 OFFCURVE",
"527 176 CURVE SMOOTH",
"527 360 OFFCURVE",
"243 340 OFFCURVE",
"243 391 CURVE SMOOTH",
"243 402 OFFCURVE",
"255 409 OFFCURVE",
"274 409 CURVE SMOOTH",
"316 409 OFFCURVE",
"378 389 OFFCURVE",
"459 349 CURVE",
"533 488 LINE",
"451 534 OFFCURVE",
"366 557 OFFCURVE",
"279 557 CURVE SMOOTH"
);
}
);
width = 552;
}
);
leftKerningGroup = s;
rightKerningGroup = s;
unicode = 0073;
},
{
glyphname = germandbls;
layers = (
{
layerId = "5F4BB537-F6D4-41E2-86C5-F7A1868B70F1";
paths = (
{
closed = 1;
nodes = (
"152 752 OFFCURVE",
"40 652 OFFCURVE",
"40 496 CURVE SMOOTH",
"40 0 LINE",
"265 0 LINE",
"265 513 LINE SMOOTH",
"265 563 OFFCURVE",
"285 585 OFFCURVE",
"329 585 CURVE SMOOTH",
"370 585 OFFCURVE",
"388 563 OFFCURVE",
"388 513 CURVE SMOOTH",
"388 463 OFFCURVE",
"365 441 OFFCURVE",
"312 441 CURVE",
"312 284 LINE",
"335 284 LINE SMOOTH",
"402 284 OFFCURVE",
"432 265 OFFCURVE",
"432 223 CURVE SMOOTH",
"432 178 OFFCURVE",
"402 158 OFFCURVE",
"335 158 CURVE SMOOTH",
"312 158 LINE",
"312 0 LINE",
"359 0 LINE SMOOTH",
"536 0 OFFCURVE",
"650 85 OFFCURVE",
"650 217 CURVE SMOOTH",
"650 293 OFFCURVE",
"602 359 OFFCURVE",
"528 385 CURVE",
"575 422 OFFCURVE",
"606 485 OFFCURVE",
"606 547 CURVE SMOOTH",
"606 671 OFFCURVE",
"496 752 OFFCURVE",
"325 752 CURVE SMOOTH"
);
}
);
width = 670;
}
);
leftKerningGroup = f;
leftMetricsKey = U;
rightKerningGroup = B;
rightMetricsKey = B;
unicode = 00DF;
},
{
glyphname = t;
layers = (
{
anchors = (
{
name = bottom;
position = "{272, 0}";
},
{
name = center;
position = "{230, 274}";
}
);
layerId = "5F4BB537-F6D4-41E2-86C5-F7A1868B70F1";
paths = (
{
closed = 1;
nodes = (
"83 670 LINE",
"83 176 LINE",
"83 62 OFFCURVE",
"164 -11 OFFCURVE",
"289 -10 CURVE",
"347 -10 OFFCURVE",
"409 3 OFFCURVE",
"445 24 CURVE",
"407 178 LINE",
"386 170 OFFCURVE",
"364 164 OFFCURVE",
"351 164 CURVE",
"324 163 OFFCURVE",
"307 181 OFFCURVE",
"307 210 CURVE",
"307 670 LINE"
);
},
{
closed = 1;
nodes = (
"8 517 LINE",
"8 375 LINE",
"435 375 LINE",
"435 517 LINE"
);
}
);
width = 460;
}
);
leftKerningGroup = u;
rightKerningGroup = t;
unicode = 0074;
},
{
glyphname = tbar;
layers = (
{
anchors = (
{
name = bottom;
position = "{272, 0}";
},
{
name = center;
position = "{230, 274}";
}
);
layerId = "5F4BB537-F6D4-41E2-86C5-F7A1868B70F1";
paths = (
{
closed = 1;
nodes = (
"83 670 LINE",
"83 176 LINE",
"83 62 OFFCURVE",
"164 -11 OFFCURVE",
"289 -10 CURVE",
"347 -10 OFFCURVE",
"409 3 OFFCURVE",
"445 24 CURVE",
"407 178 LINE",
"386 170 OFFCURVE",
"364 164 OFFCURVE",
"351 164 CURVE",
"324 163 OFFCURVE",
"307 181 OFFCURVE",
"307 210 CURVE",
"307 670 LINE"
);
},
{
closed = 1;
nodes = (
"8 517 LINE",
"8 400 LINE",
"435 400 LINE",
"435 517 LINE"
);
},
{
closed = 1;
nodes = (
"8 349 LINE",
"8 232 LINE",
"435 232 LINE",
"435 349 LINE"
);
}
);
width = 460;
}
);
leftKerningGroup = t;
rightKerningGroup = t;
unicode = 0167;
},
{
glyphname = u;
layers = (
{
anchors = (
{
name = ogonek;
position = "{626, 10}";
},
{
name = top;
position = "{330, 547}";
}
);
layerId = "5F4BB537-F6D4-41E2-86C5-F7A1868B70F1";
paths = (
{
closed = 1;
nodes = (
"617 0 LINE",
"617 547 LINE",
"392 547 LINE",
"392 0 LINE"
);
},
{
closed = 1;
nodes = (
"363 -10 OFFCURVE",
"442 102 OFFCURVE",
"442 276 CURVE",
"392 276 LINE",
"392 223 OFFCURVE",
"366 188 OFFCURVE",
"325 188 CURVE SMOOTH",
"289 188 OFFCURVE",
"265 217 OFFCURVE",
"265 263 CURVE SMOOTH",
"265 547 LINE",
"40 547 LINE",
"40 198 LINE SMOOTH",
"40 72 OFFCURVE",
"119 -10 OFFCURVE",
"231 -10 CURVE SMOOTH"
);
}
);
width = 672;
}
);
leftKerningGroup = u;
rightKerningGroup = i;
unicode = 0075;
},
{
glyphname = uogonek;
layers = (
{
layerId = "5F4BB537-F6D4-41E2-86C5-F7A1868B70F1";
paths = (
{
closed = 1;
nodes = (
"402 547 LINE",
"402 276 LINE SMOOTH",
"402 223 OFFCURVE",
"374 188 OFFCURVE",
"330 188 CURVE SMOOTH",
"291 188 OFFCURVE",
"265 217 OFFCURVE",
"265 263 CURVE SMOOTH",
"265 547 LINE",
"40 547 LINE",
"40 198 LINE SMOOTH",
"40 72 OFFCURVE",
"121 -10 OFFCURVE",
"236 -10 CURVE SMOOTH",
"308 -10 OFFCURVE",
"365 22 OFFCURVE",
"402 78 CURVE",
"402 0 LINE",
"464 0 LINE",
"440 -36 OFFCURVE",
"421 -75 OFFCURVE",
"421 -116 CURVE SMOOTH",
"421 -185 OFFCURVE",
"475 -204 OFFCURVE",
"517 -204 CURVE SMOOTH",
"566 -204 OFFCURVE",
"609 -179 OFFCURVE",
"637 -128 CURVE",
"582 -64 LINE",
"571 -83 OFFCURVE",
"558 -94 OFFCURVE",
"545 -94 CURVE SMOOTH",
"537 -94 OFFCURVE",
"531 -89 OFFCURVE",
"531 -79 CURVE SMOOTH",
"531 -63 OFFCURVE",
"547 -33 OFFCURVE",
"569 0 CURVE",
"627 0 LINE",
"627 547 LINE"
);
}
);
width = 670;
}
);
leftKerningGroup = u;
leftMetricsKey = u;
rightKerningGroup = u;
unicode = 0173;
},
{
glyphname = v;
layers = (
{
layerId = "5F4BB537-F6D4-41E2-86C5-F7A1868B70F1";
paths = (
{
closed = 1;
nodes = (
"397 547 LINE",
"308 204 LINE",
"221 547 LINE",
"-10 547 LINE",
"190 0 LINE",
"420 0 LINE",
"622 547 LINE"
);
}
);
width = 612;
}
);
leftKerningGroup = v;
rightKerningGroup = v;
unicode = 0076;
},
{
glyphname = w;
layers = (
{
anchors = (
{
name = top;
position = "{489, 547}";
}
);
layerId = "5F4BB537-F6D4-41E2-86C5-F7A1868B70F1";
paths = (
{
closed = 1;
nodes = (
"770 547 LINE",
"684 221 LINE",
"597 547 LINE",
"389 547 LINE",
"305 221 LINE",
"218 547 LINE",
"-10 547 LINE",
"188 0 LINE",
"408 0 LINE",
"489 288 LINE",
"567 0 LINE",
"787 0 LINE",
"987 547 LINE"
);
}
);
width = 977;
}
);
leftKerningGroup = v;
rightKerningGroup = v;
unicode = 0077;
},
{
glyphname = x;
layers = (
{
layerId = "5F4BB537-F6D4-41E2-86C5-F7A1868B70F1";
paths = (
{
closed = 1;
nodes = (
"6 547 LINE",
"176 280 LINE",
"-5 0 LINE",
"242 0 LINE",
"327 142 LINE",
"400 0 LINE",
"659 0 LINE",
"477 281 LINE",
"647 547 LINE",
"401 547 LINE",
"327 419 LINE",
"264 547 LINE"
);
}
);
width = 654;
}
);
leftKerningGroup = x;
rightKerningGroup = x;
unicode = 0078;
},
{
glyphname = y;
layers = (
{
anchors = (
{
name = top;
position = "{312, 547}";
}
);
layerId = "5F4BB537-F6D4-41E2-86C5-F7A1868B70F1";
paths = (
{
closed = 1;
nodes = (
"410 547 LINE",
"321 235 LINE",
"213 547 LINE",
"-18 547 LINE",
"209 17 LINE",
"201 4 LINE SMOOTH",
"190 -15 OFFCURVE",
"173 -24 OFFCURVE",
"147 -24 CURVE SMOOTH",
"120 -24 OFFCURVE",
"98 -14 OFFCURVE",
"74 8 CURVE",
"-20 -140 LINE",
"39 -184 OFFCURVE",
"97 -204 OFFCURVE",
"169 -204 CURVE SMOOTH",
"286 -204 OFFCURVE",
"363 -152 OFFCURVE",
"409 -38 CURVE SMOOTH",
"634 547 LINE"
);
}
);
width = 624;
}
);
leftKerningGroup = v;
rightKerningGroup = v;
unicode = 0079;
},
{
glyphname = z;
layers = (
{
anchors = (
{
name = top;
position = "{284, 547}";
}
);
layerId = "5F4BB537-F6D4-41E2-86C5-F7A1868B70F1";
paths = (
{
closed = 1;
nodes = (
"35 547 LINE",
"35 379 LINE",
"253 379 LINE",
"25 131 LINE",
"25 0 LINE",
"547 0 LINE",
"547 168 LINE",
"309 168 LINE",
"537 416 LINE",
"537 547 LINE"
);
}
);
width = 568;
}
);
leftKerningGroup = z;
rightKerningGroup = z;
unicode = 007A;
},
{
glyphname = a.ss01;
layers = (
{
anchors = (
{
name = ogonek;
position = "{642, 10}";
},
{
name = top;
position = "{337, 547}";
}
);
layerId = "5F4BB537-F6D4-41E2-86C5-F7A1868B70F1";
paths = (
{
closed = 1;
nodes = (
"405 547 LINE",
"405 0 LINE",
"630 0 LINE",
"630 547 LINE"
);
},
{
closed = 1;
nodes = (
"111 555 OFFCURVE",
"15 446 OFFCURVE",
"15 277 CURVE SMOOTH",
"15 104 OFFCURVE",
"114 -8 OFFCURVE",
"266 -8 CURVE SMOOTH",
"392 -8 OFFCURVE",
"473 104 OFFCURVE",
"473 276 CURVE",
"473 445 OFFCURVE",
"389 555 OFFCURVE",
"260 555 CURVE SMOOTH"
);
},
{
closed = 1;
nodes = (
"373 377 OFFCURVE",
"405 335 OFFCURVE",
"405 271 CURVE SMOOTH",
"405 207 OFFCURVE",
"373 165 OFFCURVE",
"324 165 CURVE SMOOTH",
"274 165 OFFCURVE",
"242 207 OFFCURVE",
"242 271 CURVE SMOOTH",
"242 335 OFFCURVE",
"274 377 OFFCURVE",
"324 377 CURVE SMOOTH"
);
}
);
width = 670;
}
);
leftKerningGroup = o;
leftMetricsKey = o;
rightKerningGroup = dotlessi;
rightMetricsKey = dotlessi;
},
{
glyphname = ae.ss01;
layers = (
{
anchors = (
{
name = top;
position = "{476, 547}";
}
);
layerId = "5F4BB537-F6D4-41E2-86C5-F7A1868B70F1";
paths = (
{
closed = 0;
nodes = (
"558 124 LINE"
);
},
{
closed = 1;
nodes = (
"229 329 LINE SMOOTH",
"89 327 OFFCURVE",
"15 269 OFFCURVE",
"15 164 CURVE SMOOTH",
"15 58 OFFCURVE",
"89 -11 OFFCURVE",
"223 -11 CURVE SMOOTH",
"340 -11 OFFCURVE",
"420 41 OFFCURVE",
"456 127 CURVE",
"357 175 LINE",
"338 148 OFFCURVE",
"308 133 OFFCURVE",
"278 133 CURVE SMOOTH",
"245 133 OFFCURVE",
"226 151 OFFCURVE",
"226 181 CURVE SMOOTH",
"226 210 OFFCURVE",
"244 225 OFFCURVE",
"276 225 CURVE SMOOTH",
"376 225 LINE",
"376 329 LINE"
);
},
{
closed = 1;
nodes = (
"101 354 LINE",
"164 377 OFFCURVE",
"228 389 OFFCURVE",
"270 389 CURVE SMOOTH",
"327 389 OFFCURVE",
"357 366 OFFCURVE",
"357 327 CURVE",
"357 140 LINE",
"578 87 LINE",
"578 354 LINE SMOOTH",
"578 483 OFFCURVE",
"483 557 OFFCURVE",
"323 557 CURVE SMOOTH",
"242 557 OFFCURVE",
"145 538 OFFCURVE",
"51 504 CURVE"
);
},
{
closed = 1;
nodes = (
"756 179 OFFCURVE",
"714 158 OFFCURVE",
"675 158 CURVE SMOOTH",
"616 158 OFFCURVE",
"579 204 OFFCURVE",
"579 287 CURVE SMOOTH",
"579 359 OFFCURVE",
"607 405 OFFCURVE",
"656 405 CURVE SMOOTH",
"688 405 OFFCURVE",
"717 386 OFFCURVE",
"722 339 CURVE",
"542 307 LINE",
"542 197 LINE",
"936 273 LINE",
"936 444 OFFCURVE",
"834 555 OFFCURVE",
"661 555 CURVE SMOOTH",
"487 555 OFFCURVE",
"390 443 OFFCURVE",
"390 275 CURVE SMOOTH",
"390 102 OFFCURVE",
"492 -8 OFFCURVE",
"662 -8 CURVE SMOOTH",
"758 -8 OFFCURVE",
"852 27 OFFCURVE",
"919 104 CURVE",
"794 216 LINE"
);
}
);
width = 951;
}
);
leftKerningGroup = ae.ss01;
leftMetricsKey = a;
rightKerningGroup = ae.ss01;
rightMetricsKey = e;
},
{
glyphname = e.ss01;
layers = (
{
anchors = (
{
name = bottom;
position = "{309, 0}";
},
{
name = ogonek;
position = "{556, 10}";
},
{
name = top;
position = "{309, 547}";
}
);
layerId = "5F4BB537-F6D4-41E2-86C5-F7A1868B70F1";
paths = (
{
closed = 1;
nodes = (
"204 203 LINE",
"598 278 LINE",
"598 449 OFFCURVE",
"484 555 OFFCURVE",
"309 555 CURVE SMOOTH",
"130 555 OFFCURVE",
"15 443 OFFCURVE",
"15 270 CURVE SMOOTH",
"15 102 OFFCURVE",
"135 -8 OFFCURVE",
"319 -8 CURVE SMOOTH",
"428 -8 OFFCURVE",
"516 30 OFFCURVE",
"581 104 CURVE",
"456 216 LINE",
"418 179 OFFCURVE",
"376 158 OFFCURVE",
"337 158 CURVE SMOOTH",
"278 158 OFFCURVE",
"241 206 OFFCURVE",
"241 284 CURVE SMOOTH",
"241 360 OFFCURVE",
"269 405 OFFCURVE",
"317 405 CURVE SMOOTH",
"348 405 OFFCURVE",
"371 383 OFFCURVE",
"375 344 CURVE",
"204 313 LINE"
);
}
);
width = 618;
}
);
leftKerningGroup = o;
leftMetricsKey = o;
rightKerningGroup = e;
},
{
glyphname = eogonek.ss01;
layers = (
{
layerId = "5F4BB537-F6D4-41E2-86C5-F7A1868B70F1";
paths = (
{
closed = 1;
nodes = (
"278 158 OFFCURVE",
"241 206 OFFCURVE",
"241 284 CURVE SMOOTH",
"241 360 OFFCURVE",
"269 405 OFFCURVE",
"317 405 CURVE SMOOTH",
"348 405 OFFCURVE",
"371 383 OFFCURVE",
"375 344 CURVE",
"204 313 LINE",
"204 203 LINE",
"598 278 LINE",
"598 449 OFFCURVE",
"484 555 OFFCURVE",
"309 555 CURVE SMOOTH",
"130 555 OFFCURVE",
"15 443 OFFCURVE",
"15 270 CURVE SMOOTH",
"15 102 OFFCURVE",
"135 -8 OFFCURVE",
"319 -8 CURVE",
"343 -8 OFFCURVE",
"368 -3 OFFCURVE",
"391 5 CURVE",
"364 -32 OFFCURVE",
"343 -74 OFFCURVE",
"343 -116 CURVE SMOOTH",
"343 -185 OFFCURVE",
"397 -204 OFFCURVE",
"439 -204 CURVE SMOOTH",
"488 -204 OFFCURVE",
"530 -179 OFFCURVE",
"558 -128 CURVE",
"503 -64 LINE",
"492 -83 OFFCURVE",
"480 -94 OFFCURVE",
"467 -94 CURVE SMOOTH",
"459 -94 OFFCURVE",
"453 -89 OFFCURVE",
"453 -79 CURVE SMOOTH",
"453 -32 OFFCURVE",
"533 55 OFFCURVE",
"567 92 CURVE",
"450 207 LINE",
"416 175 OFFCURVE",
"375 158 OFFCURVE",
"337 158 CURVE"
);
}
);
width = 618;
}
);
leftKerningGroup = o;
rightKerningGroup = e;
},
{
glyphname = f.ss01;
layers = (
{
layerId = "5F4BB537-F6D4-41E2-86C5-F7A1868B70F1";
paths = (
{
closed = 1;
nodes = (
"134 753 OFFCURVE",
"45 680 OFFCURVE",
"45 566 CURVE",
"45 0 LINE",
"269 0 LINE",
"269 532 LINE",
"269 561 OFFCURVE",
"289 579 OFFCURVE",
"321 578 CURVE",
"337 578 OFFCURVE",
"359 571 OFFCURVE",
"376 559 CURVE",
"451 713 LINE",
"405 737 OFFCURVE",
"334 752 OFFCURVE",
"272 752 CURVE"
);
},
{
closed = 1;
nodes = (
"70 517 LINE",
"70 375 LINE",
"375 375 LINE",
"375 517 LINE"
);
}
);
width = 376;
}
);
leftKerningGroup = f.ss01;
rightKerningGroup = f.ss01;
},
{
glyphname = g.ss01;
layers = (
{
anchors = (
{
name = top;
position = "{320, 547}";
}
);
layerId = "5F4BB537-F6D4-41E2-86C5-F7A1868B70F1";
paths = (
{
closed = 1;
nodes = (
"376 547 LINE",
"376 39 LINE SMOOTH",
"376 -3 OFFCURVE",
"338 -30 OFFCURVE",
"279 -30 CURVE SMOOTH",
"220 -30 OFFCURVE",
"162 -6 OFFCURVE",
"118 33 CURVE",
"23 -86 LINE",
"83 -162 OFFCURVE",
"190 -204 OFFCURVE",
"289 -204 CURVE SMOOTH",
"478 -204 OFFCURVE",
"600 -107 OFFCURVE",
"600 45 CURVE SMOOTH",
"600 547 LINE"
);
},
{
closed = 1;
nodes = (
"104 554 OFFCURVE",
"15 453 OFFCURVE",
"15 297 CURVE SMOOTH",
"15 136 OFFCURVE",
"107 33 OFFCURVE",
"248 33 CURVE SMOOTH",
"364 33 OFFCURVE",
"439 136 OFFCURVE",
"439 296 CURVE",
"439 453 OFFCURVE",
"362 554 OFFCURVE",
"242 554 CURVE SMOOTH"
);
},
{
closed = 1;
nodes = (
"347 389 OFFCURVE",
"376 351 OFFCURVE",
"376 291 CURVE SMOOTH",
"376 232 OFFCURVE",
"347 193 OFFCURVE",
"301 193 CURVE SMOOTH",
"255 193 OFFCURVE",
"225 232 OFFCURVE",
"225 291 CURVE SMOOTH",
"225 351 OFFCURVE",
"255 389 OFFCURVE",
"301 389 CURVE SMOOTH"
);
}
);
width = 653;
}
);
leftKerningGroup = o;
leftMetricsKey = o;
rightKerningGroup = j;
rightMetricsKey = j;
},
{
glyphname = l.ss01;
layers = (
{
anchors = (
{
name = bottom;
position = "{187, 0}";
},
{
name = top;
position = "{187, 547}";
},
{
name = topright;
position = "{354, 547}";
}
);
layerId = "5F4BB537-F6D4-41E2-86C5-F7A1868B70F1";
paths = (
{
closed = 1;
nodes = (
"45 227 LINE SMOOTH",
"45 62 OFFCURVE",
"154 -11 OFFCURVE",
"273 -11 CURVE SMOOTH",
"308 -11 OFFCURVE",
"345 -4 OFFCURVE",
"379 8 CURVE",
"366 195 LINE",
"349 187 OFFCURVE",
"332 182 OFFCURVE",
"316 182 CURVE SMOOTH",
"290 182 OFFCURVE",
"270 196 OFFCURVE",
"270 232 CURVE SMOOTH",
"270 742 LINE",
"45 742 LINE"
);
}
);
width = 374;
}
);
leftKerningGroup = l.ss01;
rightKerningGroup = l.ss01;
},
{
glyphname = oe.ss01;
layers = (
{
anchors = (
{
name = bottom;
position = "{957, 0}";
},
{
name = ogonek;
position = "{1204, 10}";
},
{
name = top;
position = "{957, 547}";
}
);
layerId = "5F4BB537-F6D4-41E2-86C5-F7A1868B70F1";
paths = (
{
closed = 1;
nodes = (
"136 555 OFFCURVE",
"15 445 OFFCURVE",
"15 274 CURVE SMOOTH",
"15 103 OFFCURVE",
"136 -8 OFFCURVE",
"324 -8 CURVE SMOOTH",
"494 -8 OFFCURVE",
"583 103 OFFCURVE",
"583 274 CURVE SMOOTH",
"583 445 OFFCURVE",
"494 555 OFFCURVE",
"324 555 CURVE SMOOTH"
);
},
{
closed = 1;
nodes = (
"374 377 OFFCURVE",
"406 335 OFFCURVE",
"406 271 CURVE SMOOTH",
"406 207 OFFCURVE",
"374 165 OFFCURVE",
"324 165 CURVE SMOOTH",
"274 165 OFFCURVE",
"242 207 OFFCURVE",
"242 271 CURVE SMOOTH",
"242 335 OFFCURVE",
"274 377 OFFCURVE",
"324 377 CURVE SMOOTH"
);
},
{
closed = 1;
nodes = (
"540 555 OFFCURVE",
"447 443 OFFCURVE",
"447 270 CURVE SMOOTH",
"447 102 OFFCURVE",
"545 -8 OFFCURVE",
"711 -8 CURVE SMOOTH",
"820 -8 OFFCURVE",
"908 30 OFFCURVE",
"973 104 CURVE",
"848 216 LINE",
"810 179 OFFCURVE",
"768 158 OFFCURVE",
"729 158 CURVE SMOOTH",
"670 158 OFFCURVE",
"633 206 OFFCURVE",
"633 284 CURVE SMOOTH",
"633 360 OFFCURVE",
"661 405 OFFCURVE",
"709 405 CURVE SMOOTH",
"740 405 OFFCURVE",
"763 383 OFFCURVE",
"767 344 CURVE",
"596 313 LINE",
"596 203 LINE",
"990 278 LINE",
"990 449 OFFCURVE",
"876 555 OFFCURVE",
"701 555 CURVE SMOOTH"
);
}
);
width = 1010;
}
);
leftKerningGroup = o;
leftMetricsKey = "=o";
rightKerningGroup = o;
rightMetricsKey = e.ss01;
},
{
glyphname = t.ss01;
layers = (
{
anchors = (
{
name = bottom;
position = "{212, 0}";
},
{
name = center;
position = "{192, 274}";
}
);
layerId = "5F4BB537-F6D4-41E2-86C5-F7A1868B70F1";
paths = (
{
closed = 1;
nodes = (
"45 670 LINE",
"45 176 LINE",
"45 62 OFFCURVE",
"126 -11 OFFCURVE",
"251 -10 CURVE",
"309 -10 OFFCURVE",
"371 3 OFFCURVE",
"407 24 CURVE",
"369 178 LINE",
"348 170 OFFCURVE",
"326 164 OFFCURVE",
"313 164 CURVE",
"286 163 OFFCURVE",
"269 181 OFFCURVE",
"269 210 CURVE",
"269 670 LINE"
);
},
{
closed = 1;
nodes = (
"70 517 LINE",
"70 375 LINE",
"397 375 LINE",
"397 517 LINE"
);
}
);
width = 422;
}
);
leftKerningGroup = u;
rightKerningGroup = t;
rightMetricsKey = t;
},
{
glyphname = tbar.ss01;
layers = (
{
anchors = (
{
name = bottom;
position = "{212, 0}";
},
{
name = center;
position = "{192, 274}";
}
);
layerId = "5F4BB537-F6D4-41E2-86C5-F7A1868B70F1";
paths = (
{
closed = 1;
nodes = (
"45 670 LINE",
"45 176 LINE",
"45 62 OFFCURVE",
"126 -11 OFFCURVE",
"251 -10 CURVE",
"309 -10 OFFCURVE",
"371 3 OFFCURVE",
"407 24 CURVE",
"369 178 LINE",
"348 170 OFFCURVE",
"326 164 OFFCURVE",
"313 164 CURVE",
"286 163 OFFCURVE",
"269 181 OFFCURVE",
"269 210 CURVE",
"269 670 LINE"
);
},
{
closed = 1;
nodes = (
"68 517 LINE",
"68 400 LINE",
"395 400 LINE",
"395 517 LINE"
);
},
{
closed = 1;
nodes = (
"68 349 LINE",
"68 232 LINE",
"395 232 LINE",
"395 349 LINE"
);
}
);
width = 422;
}
);
leftKerningGroup = tbar.ss01;
rightKerningGroup = tbar.ss01;
},
{
glyphname = w.ss01;
layers = (
{
anchors = (
{
name = top;
position = "{494, 547}";
}
);
layerId = "5F4BB537-F6D4-41E2-86C5-F7A1868B70F1";
paths = (
{
closed = 1;
nodes = (
"726 547 LINE",
"726 254 LINE SMOOTH",
"726 212 OFFCURVE",
"702 184 OFFCURVE",
"668 184 CURVE SMOOTH",
"630 184 OFFCURVE",
"604 212 OFFCURVE",
"604 254 CURVE SMOOTH",
"604 547 LINE",
"382 547 LINE",
"382 254 LINE SMOOTH",
"382 212 OFFCURVE",
"359 184 OFFCURVE",
"324 184 CURVE SMOOTH",
"287 184 OFFCURVE",
"262 212 OFFCURVE",
"262 254 CURVE SMOOTH",
"262 547 LINE",
"40 547 LINE",
"40 244 LINE SMOOTH",
"40 92 OFFCURVE",
"140 -10 OFFCURVE",
"288 -10 CURVE SMOOTH",
"365 -10 OFFCURVE",
"450 31 OFFCURVE",
"494 92 CURVE",
"541 31 OFFCURVE",
"627 -10 OFFCURVE",
"704 -10 CURVE SMOOTH",
"850 -10 OFFCURVE",
"948 92 OFFCURVE",
"948 244 CURVE SMOOTH",
"948 547 LINE"
);
}
);
width = 988;
}
);
leftKerningGroup = u;
rightKerningGroup = w.ss01;
},
{
glyphname = y.ss01;
layers = (
{
anchors = (
{
name = top;
position = "{333, 547}";
}
);
layerId = "5F4BB537-F6D4-41E2-86C5-F7A1868B70F1";
paths = (
{
closed = 1;
nodes = (
"365 45 OFFCURVE",
"452 157 OFFCURVE",
"452 331 CURVE",
"402 331 LINE",
"402 278 OFFCURVE",
"374 243 OFFCURVE",
"330 243 CURVE SMOOTH",
"291 243 OFFCURVE",
"265 272 OFFCURVE",
"265 318 CURVE SMOOTH",
"265 547 LINE",
"40 547 LINE",
"40 253 LINE SMOOTH",
"40 127 OFFCURVE",
"115 45 OFFCURVE",
"231 45 CURVE SMOOTH"
);
},
{
closed = 1;
nodes = (
"402 547 LINE",
"402 59 LINE",
"402 8 OFFCURVE",
"358 -29 OFFCURVE",
"298 -29 CURVE SMOOTH",
"249 -29 OFFCURVE",
"174 -10 OFFCURVE",
"121 16 CURVE",
"69 -139 LINE",
"135 -176 OFFCURVE",
"243 -203 OFFCURVE",
"325 -203 CURVE",
"499 -204 OFFCURVE",
"626 -95 OFFCURVE",
"626 55 CURVE",
"626 547 LINE"
);
}
);
width = 679;
}
);
leftKerningGroup = u;
leftMetricsKey = u;
rightKerningGroup = j;
rightMetricsKey = g;
},
{
glyphname = z.ss01;
layers = (
{
anchors = (
{
name = top;
position = "{284, 547}";
}
);
layerId = "5F4BB537-F6D4-41E2-86C5-F7A1868B70F1";
paths = (
{
closed = 1;
nodes = (
"270 323 LINE",
"270 215 LINE",
"510 215 LINE",
"510 323 LINE"
);
},
{
closed = 1;
nodes = (
"57 335 LINE",
"57 227 LINE",
"295 227 LINE",
"295 335 LINE"
);
},
{
closed = 1;
nodes = (
"35 547 LINE",
"35 379 LINE",
"253 379 LINE",
"25 131 LINE",
"25 0 LINE",
"547 0 LINE",
"547 168 LINE",
"309 168 LINE",
"537 416 LINE",
"537 547 LINE"
);
}
);
width = 568;
}
);
leftKerningGroup = z;
leftMetricsKey = z;
rightKerningGroup = z;
rightMetricsKey = z;
},
{
glyphname = fi;
layers = (
{
components = (
{
name = i;
transform = "{1, 0, 0, 1, 426, 0}";
}
);
layerId = "5F4BB537-F6D4-41E2-86C5-F7A1868B70F1";
paths = (
{
closed = 1;
nodes = (
"184 753 OFFCURVE",
"95 680 OFFCURVE",
"95 566 CURVE",
"95 0 LINE",
"319 0 LINE",
"319 532 LINE",
"319 561 OFFCURVE",
"339 579 OFFCURVE",
"371 578 CURVE",
"387 578 OFFCURVE",
"409 571 OFFCURVE",
"426 559 CURVE",
"433 736 LINE",
"405 746 OFFCURVE",
"361 752 OFFCURVE",
"322 752 CURVE"
);
},
{
closed = 1;
nodes = (
"20 527 LINE",
"20 385 LINE",
"425 385 LINE",
"425 527 LINE"
);
}
);
width = 761;
}
);
leftKerningGroup = f;
leftMetricsKey = f;
rightKerningGroup = dotlessi;
rightMetricsKey = i;
unicode = FB01;
},
{
glyphname = fl;
layers = (
{
components = (
{
name = l;
transform = "{1, 0, 0, 1, 426, 0}";
}
);
layerId = "5F4BB537-F6D4-41E2-86C5-F7A1868B70F1";
paths = (
{
closed = 1;
nodes = (
"184 753 OFFCURVE",
"95 680 OFFCURVE",
"95 566 CURVE",
"95 0 LINE",
"319 0 LINE",
"319 532 LINE",
"319 561 OFFCURVE",
"339 579 OFFCURVE",
"371 578 CURVE",
"387 578 OFFCURVE",
"409 571 OFFCURVE",
"426 559 CURVE",
"433 736 LINE",
"405 746 OFFCURVE",
"361 752 OFFCURVE",
"322 752 CURVE"
);
},
{
closed = 1;
nodes = (
"20 527 LINE",
"20 385 LINE",
"425 385 LINE",
"425 527 LINE"
);
}
);
width = 771;
}
);
leftKerningGroup = f;
leftMetricsKey = f;
rightKerningGroup = l;
rightMetricsKey = l;
unicode = FB02;
},
{
glyphname = fi.ss01;
layers = (
{
components = (
{
name = i;
transform = "{1, 0, 0, 1, 376, 0}";
}
);
layerId = "5F4BB537-F6D4-41E2-86C5-F7A1868B70F1";
paths = (
{
closed = 1;
nodes = (
"134 753 OFFCURVE",
"45 680 OFFCURVE",
"45 566 CURVE",
"45 0 LINE",
"269 0 LINE",
"269 532 LINE",
"269 561 OFFCURVE",
"289 579 OFFCURVE",
"321 578 CURVE",
"337 578 OFFCURVE",
"359 571 OFFCURVE",
"376 559 CURVE",
"383 736 LINE",
"355 746 OFFCURVE",
"311 752 OFFCURVE",
"272 752 CURVE"
);
},
{
closed = 1;
nodes = (
"70 517 LINE",
"70 375 LINE",
"375 375 LINE",
"375 517 LINE"
);
}
);
width = 711;
}
);
leftKerningGroup = f;
leftMetricsKey = f.ss01;
rightKerningGroup = dotlessi;
rightMetricsKey = i;
},
{
glyphname = fl.ss01;
layers = (
{
anchors = (
{
name = caret_1;
position = "{400, 0}";
}
);
layerId = "5F4BB537-F6D4-41E2-86C5-F7A1868B70F1";
paths = (
{
closed = 1;
nodes = (
"792 95 LINE",
"775 87 OFFCURVE",
"758 82 OFFCURVE",
"742 82 CURVE SMOOTH",
"716 82 OFFCURVE",
"696 96 OFFCURVE",
"696 132 CURVE SMOOTH",
"696 523 LINE SMOOTH",
"696 662 OFFCURVE",
"580 752 OFFCURVE",
"401 752 CURVE SMOOTH",
"215 752 OFFCURVE",
"95 675 OFFCURVE",
"95 556 CURVE SMOOTH",
"95 477 LINE",
"20 477 LINE",
"20 335 LINE",
"95 335 LINE",
"95 0 LINE",
"319 0 LINE",
"319 335 LINE",
"405 335 LINE",
"405 477 LINE",
"319 477 LINE",
"319 522 LINE SMOOTH",
"319 557 OFFCURVE",
"348 579 OFFCURVE",
"392 578 CURVE SMOOTH",
"439 578 OFFCURVE",
"471 556 OFFCURVE",
"471 523 CURVE SMOOTH",
"471 127 LINE SMOOTH",
"471 -38 OFFCURVE",
"580 -111 OFFCURVE",
"699 -111 CURVE SMOOTH",
"734 -111 OFFCURVE",
"771 -104 OFFCURVE",
"805 -92 CURVE"
);
}
);
width = 800;
}
);
leftKerningGroup = f;
leftMetricsKey = f;
rightKerningGroup = l;
rightMetricsKey = l.ss01;
},
{
glyphname = ordfeminine;
layers = (
{
layerId = "5F4BB537-F6D4-41E2-86C5-F7A1868B70F1";
paths = (
{
closed = 1;
nodes = (
"158 794 OFFCURVE",
"95 783 OFFCURVE",
"34 764 CURVE",
"68 667 LINE",
"108 679 OFFCURVE",
"148 686 OFFCURVE",
"173 686 CURVE",
"207 686 OFFCURVE",
"224 674 OFFCURVE",
"224 653 CURVE",
"224 458 LINE",
"373 458 LINE",
"373 671 LINE",
"374 750 OFFCURVE",
"312 794 OFFCURVE",
"209 794 CURVE"
);
},
{
closed = 1;
nodes = (
"237 658 LINE",
"147 658 LINE",
"58 657 OFFCURVE",
"11 622 OFFCURVE",
"11 556 CURVE",
"11 493 OFFCURVE",
"54 451 OFFCURVE",
"128 451 CURVE",
"187 451 OFFCURVE",
"225 478 OFFCURVE",
"241 521 CURVE",
"224 564 LINE",
"213 551 OFFCURVE",
"197 544 OFFCURVE",
"181 544 CURVE",
"163 544 OFFCURVE",
"154 553 OFFCURVE",
"154 568 CURVE",
"154 583 OFFCURVE",
"163 591 OFFCURVE",
"179 591 CURVE",
"237 591 LINE"
);
}
);
width = 400;
}
);
leftKerningGroup = asterisk;
rightKerningGroup = asterisk;
unicode = 00AA;
},
{
glyphname = ordmasculine;
layers = (
{
layerId = "5F4BB537-F6D4-41E2-86C5-F7A1868B70F1";
paths = (
{
closed = 1;
nodes = (
"89 793 OFFCURVE",
"12 727 OFFCURVE",
"12 623 CURVE SMOOTH",
"12 520 OFFCURVE",
"89 453 OFFCURVE",
"209 453 CURVE SMOOTH",
"330 453 OFFCURVE",
"407 520 OFFCURVE",
"407 623 CURVE SMOOTH",
"407 727 OFFCURVE",
"330 793 OFFCURVE",
"209 793 CURVE SMOOTH"
);
},
{
closed = 1;
nodes = (
"236 678 OFFCURVE",
"253 656 OFFCURVE",
"253 621 CURVE SMOOTH",
"253 587 OFFCURVE",
"236 565 OFFCURVE",
"209 565 CURVE SMOOTH",
"182 565 OFFCURVE",
"165 587 OFFCURVE",
"165 621 CURVE SMOOTH",
"165 656 OFFCURVE",
"182 678 OFFCURVE",
"209 678 CURVE SMOOTH"
);
}
);
width = 419;
}
);
leftKerningGroup = asterisk;
rightKerningGroup = asterisk;
unicode = 00BA;
},
{
glyphname = Delta;
layers = (
{
layerId = "5F4BB537-F6D4-41E2-86C5-F7A1868B70F1";
paths = (
{
closed = 1;
nodes = (
"286 701 LINE",
"-10 0 LINE",
"228 0 LINE",
"398 470 LINE",
"562 0 LINE",
"809 0 LINE",
"524 701 LINE"
);
},
{
closed = 1;
nodes = (
"190 166 LINE",
"190 0 LINE SMOOTH",
"592 0 LINE",
"592 166 LINE"
);
}
);
width = 799;
}
);
leftKerningGroup = A;
rightKerningGroup = A;
unicode = 0394;
},
{
glyphname = Omega;
layers = (
{
anchors = (
{
name = topleft;
position = "{20, 701}";
}
);
layerId = "5F4BB537-F6D4-41E2-86C5-F7A1868B70F1";
paths = (
{
closed = 1;
nodes = (
"208 713 OFFCURVE",
"56 577 OFFCURVE",
"56 391 CURVE SMOOTH",
"56 320 OFFCURVE",
"96 231 OFFCURVE",
"150 180 CURVE",
"5 180 LINE",
"5 0 LINE",
"370 0 LINE",
"370 166 LINE",
"307 214 OFFCURVE",
"261 301 OFFCURVE",
"261 371 CURVE SMOOTH",
"261 460 OFFCURVE",
"327 524 OFFCURVE",
"416 524 CURVE SMOOTH",
"506 524 OFFCURVE",
"572 460 OFFCURVE",
"572 371 CURVE SMOOTH",
"572 301 OFFCURVE",
"526 214 OFFCURVE",
"463 166 CURVE",
"463 0 LINE",
"828 0 LINE",
"828 180 LINE",
"684 180 LINE",
"738 232 OFFCURVE",
"777 321 OFFCURVE",
"777 391 CURVE SMOOTH",
"777 577 OFFCURVE",
"625 713 OFFCURVE",
"416 713 CURVE SMOOTH"
);
}
);
width = 833;
}
);
leftMetricsKey = T;
rightMetricsKey = T;
unicode = 03A9;
},
{
glyphname = pi;
layers = (
{
layerId = "5F4BB537-F6D4-41E2-86C5-F7A1868B70F1";
paths = (
{
closed = 1;
nodes = (
"164 547 LINE",
"55 547 OFFCURVE",
"-23 480 OFFCURVE",
"-22 388 CURVE",
"-22 342 OFFCURVE",
"-6 282 OFFCURVE",
"16 236 CURVE",
"170 288 LINE",
"160 309 OFFCURVE",
"152 335 OFFCURVE",
"152 350 CURVE",
"151 374 OFFCURVE",
"169 391 OFFCURVE",
"194 391 CURVE",
"720 391 LINE",
"719 547 LINE"
);
},
{
closed = 1;
nodes = (
"429 407 LINE",
"429 0 LINE",
"614 0 LINE",
"614 407 LINE"
);
},
{
closed = 1;
nodes = (
"209 407 LINE",
"167 0 LINE",
"352 0 LINE",
"394 407 LINE"
);
}
);
width = 733;
}
);
unicode = 03C0;
},
{
glyphname = "aaMatra-gurmukhi";
layers = (
{
anchors = (
{
name = bindu;
position = "{172, 680}";
},
{
name = candra;
position = "{172, 690}";
},
{
name = top;
position = "{172, 670}";
}
);
layerId = "5F4BB537-F6D4-41E2-86C5-F7A1868B70F1";
paths = (
{
closed = 1;
nodes = (
"284 248 LINE",
"284 530 LINE",
"340 530 LINE",
"340 694 LINE",
"0 694 LINE",
"0 530 LINE",
"62 530 LINE",
"62 248 LINE"
);
}
);
width = 340;
}
);
unicode = 0A3E;
},
{
glyphname = "iMatra-gurmukhi";
layers = (
{
anchors = (
{
name = bindu;
position = "{690, 670}";
},
{
name = candra;
position = "{765, 690}";
}
);
layerId = "5F4BB537-F6D4-41E2-86C5-F7A1868B70F1";
paths = (
{
closed = 1;
nodes = (
"300 530 LINE",
"300 730 LINE SMOOTH",
"300 776 OFFCURVE",
"331 797 OFFCURVE",
"355 797 CURVE SMOOTH",
"369 797 OFFCURVE",
"385 797 OFFCURVE",
"413 750 CURVE",
"555 822 LINE",
"508 925 OFFCURVE",
"413 957 OFFCURVE",
"324 957 CURVE SMOOTH",
"210 957 OFFCURVE",
"87 885 OFFCURVE",
"87 749 CURVE SMOOTH",
"87 694 LINE",
"0 694 LINE",
"0 530 LINE"
);
},
{
closed = 1;
nodes = (
"300 0 LINE",
"300 611 LINE",
"244 530 LINE",
"354 530 LINE",
"354 694 LINE",
"78 694 LINE",
"78 0 LINE"
);
}
);
width = 354;
}
);
unicode = 0A3F;
},
{
glyphname = "iiMatra-gurmukhi";
layers = (
{
anchors = (
{
name = bindu;
position = "{370, 670}";
},
{
name = candra;
position = "{466, 690}";
}
);
layerId = "5F4BB537-F6D4-41E2-86C5-F7A1868B70F1";
paths = (
{
closed = 1;
nodes = (
"263 530 LINE",
"263 700 LINE SMOOTH",
"263 841 OFFCURVE",
"137 957 OFFCURVE",
"-29 957 CURVE SMOOTH",
"-158 957 OFFCURVE",
"-233 906 OFFCURVE",
"-259 828 CURVE",
"-76 753 LINE",
"-60 774 OFFCURVE",
"-42 797 OFFCURVE",
"-10 797 CURVE SMOOTH",
"40 797 OFFCURVE",
"51 758 OFFCURVE",
"51 715 CURVE SMOOTH",
"51 605 LINE",
"145 694 LINE",
"-81 694 LINE",
"-81 530 LINE"
);
},
{
closed = 1;
nodes = (
"264 0 LINE",
"264 611 LINE",
"208 530 LINE",
"318 530 LINE",
"318 694 LINE",
"42 694 LINE",
"42 0 LINE"
);
}
);
width = 318;
}
);
rightMetricsKey = "STEM-GURM";
unicode = 0A40;
},
{
glyphname = "a-gurmukhi";
layers = (
{
anchors = (
{
name = bindu;
position = "{724, 694}";
},
{
name = candra;
position = "{724, 704}";
},
{
name = top;
position = "{724, 684}";
}
);
layerId = "5F4BB537-F6D4-41E2-86C5-F7A1868B70F1";
paths = (
{
closed = 1;
nodes = (
"581 176 OFFCURVE",
"615 262 OFFCURVE",
"615 361 CURVE SMOOTH",
"615 557 OFFCURVE",
"483 641 OFFCURVE",
"354 641 CURVE SMOOTH",
"302 641 OFFCURVE",
"251 627 OFFCURVE",
"208 600 CURVE",
"260 585 LINE",
"200 666 OFFCURVE",
"99 694 OFFCURVE",
"-3 694 CURVE SMOOTH",
"-26 694 LINE",
"-26 530 LINE",
"12 530 LINE SMOOTH",
"59 530 OFFCURVE",
"131 523 OFFCURVE",
"124 458 CURVE",
"135 510 LINE",
"74 429 OFFCURVE",
"43 332 OFFCURVE",
"43 235 CURVE SMOOTH",
"43 218 OFFCURVE",
"44 204 OFFCURVE",
"45 190 CURVE",
"224 149 LINE",
"285 250 OFFCURVE",
"314 325 OFFCURVE",
"311 414 CURVE",
"309 376 LINE",
"318 433 OFFCURVE",
"342 464 OFFCURVE",
"382 464 CURVE SMOOTH",
"419 464 OFFCURVE",
"439 437 OFFCURVE",
"439 386 CURVE",
"462 432 LINE",
"361 348 OFFCURVE",
"324 228 OFFCURVE",
"324 135 CURVE SMOOTH",
"324 113 OFFCURVE",
"326 92 OFFCURVE",
"330 74 CURVE",
"508 53 LINE"
);
},
{
closed = 1;
nodes = (
"746 283 LINE",
"746 447 LINE",
"493 447 LINE",
"489 283 LINE"
);
},
{
closed = 1;
nodes = (
"867 0 LINE",
"867 611 LINE",
"811 530 LINE",
"921 530 LINE",
"921 694 LINE",
"645 694 LINE",
"645 0 LINE"
);
}
);
width = 921;
}
);
rightMetricsKey = "STEM-GURM";
unicode = 0A05;
},
{
glyphname = "ee-gurmukhi";
layers = (
{
anchors = (
{
name = _top;
position = "{453, 670}";
},
{
name = bindu;
position = "{656, 680}";
},
{
name = bottom;
position = "{410, 2}";
},
{
name = candra;
position = "{778, 690}";
},
{
name = caret_1;
position = "{412, 30}";
},
{
name = nukta;
position = "{113, -65}";
},
{
name = top;
position = "{422, 670}";
}
);
components = (
{
name = "iri-gurmukhi";
}
);
layerId = "5F4BB537-F6D4-41E2-86C5-F7A1868B70F1";
paths = (
{
closed = 1;
nodes = (
"537 627 LINE",
"537 837 OFFCURVE",
"414 965 OFFCURVE",
"202 965 CURVE SMOOTH",
"155 965 OFFCURVE",
"109 958 OFFCURVE",
"66 942 CURVE",
"108 790 LINE",
"152 798 OFFCURVE",
"191 803 OFFCURVE",
"225 803 CURVE SMOOTH",
"333 803 OFFCURVE",
"364 749 OFFCURVE",
"374 627 CURVE"
);
}
);
width = 653;
}
);
unicode = 0A0F;
},
{
glyphname = "ai-gurmukhi";
layers = (
{
anchors = (
{
name = _top;
position = "{724, 684}";
},
{
name = bindu;
position = "{944, 680}";
},
{
name = candra;
position = "{1066, 690}";
},
{
name = top;
position = "{695, 684}";
}
);
components = (
{
name = "a-gurmukhi";
}
);
layerId = "5F4BB537-F6D4-41E2-86C5-F7A1868B70F1";
paths = (
{
closed = 1;
nodes = (
"808 661 LINE",
"804 958 OFFCURVE",
"675 1126 OFFCURVE",
"435 1126 CURVE",
"443 988 LINE",
"594 988 OFFCURVE",
"679 912 OFFCURVE",
"698 738 CURVE",
"716 767 LINE",
"658 883 OFFCURVE",
"528 948 OFFCURVE",
"372 948 CURVE SMOOTH",
"314 948 OFFCURVE",
"257 937 OFFCURVE",
"206 915 CURVE",
"249 774 LINE",
"288 788 OFFCURVE",
"345 796 OFFCURVE",
"402 796 CURVE SMOOTH",
"535 796 OFFCURVE",
"645 772 OFFCURVE",
"645 661 CURVE"
);
}
);
width = 921;
}
);
unicode = 0A10;
},
{
glyphname = "oo-gurmukhi";
layers = (
{
anchors = (
{
name = bindu;
position = "{675, 680}";
},
{
name = bottom;
position = "{420, 2}";
},
{
name = candra;
position = "{796, 650}";
},
{
name = caret_1;
position = "{423, 30}";
},
{
name = nukta;
position = "{92, -24}";
},
{
name = top;
position = "{529, 670}";
}
);
layerId = "5F4BB537-F6D4-41E2-86C5-F7A1868B70F1";
paths = (
{
closed = 1;
nodes = (
"578 -18 OFFCURVE",
"665 66 OFFCURVE",
"665 155 CURVE SMOOTH",
"665 231 OFFCURVE",
"599 319 OFFCURVE",
"468 360 CURVE",
"474 279 LINE",
"641 353 OFFCURVE",
"671 449 OFFCURVE",
"671 573 CURVE",
"457 604 LINE",
"457 492 OFFCURVE",
"432 423 OFFCURVE",
"269 423 CURVE SMOOTH",
"158 423 LINE",
"158 280 LINE",
"340 280 LINE SMOOTH",
"400 280 OFFCURVE",
"447 231 OFFCURVE",
"447 192 CURVE SMOOTH",
"447 172 OFFCURVE",
"437 148 OFFCURVE",
"395 148 CURVE SMOOTH",
"257 148 OFFCURVE",
"245 384 OFFCURVE",
"245 528 CURVE SMOOTH",
"245 651 OFFCURVE",
"248 801 OFFCURVE",
"404 801 CURVE SMOOTH",
"426 801 OFFCURVE",
"466 797 OFFCURVE",
"505 788 CURVE",
"548 940 LINE",
"497 955 OFFCURVE",
"442 962 OFFCURVE",
"387 962 CURVE SMOOTH",
"95 962 OFFCURVE",
"35 759 OFFCURVE",
"35 542 CURVE SMOOTH",
"35 276 OFFCURVE",
"136 -18 OFFCURVE",
"424 -18 CURVE SMOOTH"
);
},
{
closed = 1;
nodes = (
"720 530 LINE",
"720 694 LINE",
"-26 694 LINE",
"-26 530 LINE"
);
}
);
width = 694;
}
);
leftMetricsKey = "ura-gurmukhi";
rightMetricsKey = "ura-gurmukhi";
unicode = 0A13;
},
{
glyphname = "ka-gurmukhi";
layers = (
{
anchors = (
{
name = bindu;
position = "{582, 682}";
},
{
name = bottom;
position = "{608, 0}";
},
{
name = candra;
position = "{582, 692}";
},
{
name = caret_1;
position = "{386, -6}";
},
{
name = nukta;
position = "{123, -48}";
},
{
name = top;
position = "{590, 672}";
}
);
layerId = "5F4BB537-F6D4-41E2-86C5-F7A1868B70F1";
paths = (
{
closed = 1;
nodes = (
"717 0 LINE",
"717 5 LINE SMOOTH",
"717 83 OFFCURVE",
"679 198 OFFCURVE",
"605 300 CURVE",
"610 235 LINE",
"670 338 OFFCURVE",
"695 457 OFFCURVE",
"695 538 CURVE SMOOTH",
"695 560 LINE",
"490 560 LINE",
"490 545 LINE SMOOTH",
"490 502 OFFCURVE",
"484 451 OFFCURVE",
"459 400 CURVE",
"494 413 LINE",
"431 469 OFFCURVE",
"349 496 OFFCURVE",
"265 496 CURVE SMOOTH",
"99 496 OFFCURVE",
"18 393 OFFCURVE",
"18 284 CURVE SMOOTH",
"18 164 OFFCURVE",
"117 38 OFFCURVE",
"307 38 CURVE SMOOTH",
"403 38 OFFCURVE",
"458 70 OFFCURVE",
"515 125 CURVE",
"482 129 LINE",
"494 83 OFFCURVE",
"495 38 OFFCURVE",
"495 9 CURVE SMOOTH",
"495 0 LINE"
);
},
{
closed = 1;
nodes = (
"268 204 OFFCURVE",
"242 233 OFFCURVE",
"242 267 CURVE SMOOTH",
"242 299 OFFCURVE",
"264 330 OFFCURVE",
"313 330 CURVE SMOOTH",
"367 330 OFFCURVE",
"414 293 OFFCURVE",
"444 238 CURVE",
"438 309 LINE",
"412 248 OFFCURVE",
"370 204 OFFCURVE",
"314 204 CURVE SMOOTH"
);
},
{
closed = 1;
nodes = (
"750 530 LINE",
"750 694 LINE",
"0 694 LINE",
"0 530 LINE"
);
}
);
width = 750;
}
);
leftMetricsKey = "ra-gurmukhi";
rightMetricsKey = "STEM-GURM";
unicode = 0A15;
},
{
glyphname = "kha-gurmukhi";
layers = (
{
anchors = (
{
name = bindu;
position = "{535, 680}";
},
{
name = bottom;
position = "{569, 0}";
},
{
name = candra;
position = "{535, 690}";
},
{
name = caret_1;
position = "{344, 30}";
},
{
name = nukta;
position = "{85, -16}";
},
{
name = top;
position = "{535, 670}";
}
);
components = (
{
name = "pa-gurmukhi";
}
);
layerId = "5F4BB537-F6D4-41E2-86C5-F7A1868B70F1";
paths = (
{
closed = 1;
nodes = (
"553 339 LINE",
"553 503 LINE",
"204 503 LINE",
"207 339 LINE"
);
}
);
width = 732;
}
);
leftMetricsKey = "pa-gurmukhi";
rightMetricsKey = "pa-gurmukhi";
unicode = 0A16;
},
{
glyphname = "ga-gurmukhi";
layers = (
{
anchors = (
{
name = bindu;
position = "{726, 682}";
},
{
name = bottom;
position = "{760, 0}";
},
{
name = candra;
position = "{726, 690}";
},
{
name = caret_1;
position = "{474, 30}";
},
{
name = nukta;
position = "{53, -37}";
},
{
name = top;
position = "{756, 672}";
}
);
layerId = "5F4BB537-F6D4-41E2-86C5-F7A1868B70F1";
paths = (
{
closed = 1;
nodes = (
"463 -18 OFFCURVE",
"578 44 OFFCURVE",
"578 179 CURVE SMOOTH",
"577 615 LINE",
"356 615 LINE",
"356 394 LINE",
"410 452 LINE",
"242 452 LINE SMOOTH",
"103 452 OFFCURVE",
"16 379 OFFCURVE",
"16 266 CURVE SMOOTH",
"16 108 OFFCURVE",
"187 -18 OFFCURVE",
"349 -18 CURVE SMOOTH"
);
},
{
closed = 1;
nodes = (
"274 147 OFFCURVE",
"240 194 OFFCURVE",
"240 238 CURVE SMOOTH",
"240 268 OFFCURVE",
"256 288 OFFCURVE",
"289 288 CURVE SMOOTH",
"411 288 LINE",
"357 317 LINE",
"357 201 LINE SMOOTH",
"357 177 OFFCURVE",
"353 147 OFFCURVE",
"318 147 CURVE SMOOTH"
);
},
{
closed = 1;
nodes = (
"684 530 LINE",
"684 694 LINE",
"0 694 LINE",
"0 530 LINE"
);
},
{
closed = 1;
nodes = (
"869 0 LINE",
"869 611 LINE",
"813 530 LINE",
"923 530 LINE",
"923 694 LINE",
"647 694 LINE",
"647 0 LINE"
);
}
);
width = 923;
}
);
leftMetricsKey = "ra-gurmukhi";
rightMetricsKey = "STEM-GURM";
unicode = 0A17;
},
{
glyphname = "gha-gurmukhi";
layers = (
{
anchors = (
{
name = bindu;
position = "{740, 680}";
},
{
name = bottom;
position = "{774, 0}";
},
{
name = candra;
position = "{740, 690}";
},
{
name = caret_1;
position = "{486, 30}";
},
{
name = nukta;
position = "{83, 0}";
},
{
name = top;
position = "{740, 670}";
}
);
layerId = "5F4BB537-F6D4-41E2-86C5-F7A1868B70F1";
paths = (
{
closed = 1;
nodes = (
"389 67 OFFCURVE",
"439 94 OFFCURVE",
"482 111 CURVE",
"428 117 LINE",
"482 84 OFFCURVE",
"541 67 OFFCURVE",
"600 67 CURVE SMOOTH",
"654 67 OFFCURVE",
"708 82 OFFCURVE",
"755 113 CURVE",
"709 339 LINE",
"681 259 OFFCURVE",
"638 235 OFFCURVE",
"588 235 CURVE SMOOTH",
"570 235 OFFCURVE",
"549 238 OFFCURVE",
"529 244 CURVE",
"529 203 LINE",
"586 285 OFFCURVE",
"607 368 OFFCURVE",
"607 453 CURVE SMOOTH",
"607 512 OFFCURVE",
"597 566 OFFCURVE",
"581 622 CURVE",
"383 622 LINE",
"383 267 LINE",
"352 245 OFFCURVE",
"323 232 OFFCURVE",
"298 232 CURVE SMOOTH",
"273 232 OFFCURVE",
"252 246 OFFCURVE",
"239 279 CURVE",
"224 242 LINE",
"305 286 OFFCURVE",
"342 356 OFFCURVE",
"342 429 CURVE SMOOTH",
"342 559 OFFCURVE",
"225 694 OFFCURVE",
"31 694 CURVE SMOOTH",
"0 694 LINE",
"0 530 LINE",
"40 530 LINE SMOOTH",
"101 530 OFFCURVE",
"125 492 OFFCURVE",
"125 444 CURVE SMOOTH",
"125 387 OFFCURVE",
"91 361 OFFCURVE",
"34 324 CURVE",
"61 156 OFFCURVE",
"190 67 OFFCURVE",
"318 67 CURVE SMOOTH"
);
},
{
closed = 1;
nodes = (
"883 0 LINE",
"883 611 LINE",
"827 530 LINE",
"937 530 LINE",
"937 694 LINE",
"661 694 LINE",
"661 0 LINE"
);
}
);
width = 937;
}
);
leftMetricsKey = "pa-gurmukhi";
rightMetricsKey = "STEM-GURM";
unicode = 0A18;
},
{
glyphname = "nga-gurmukhi";
layers = (
{
anchors = (
{
name = bindu;
position = "{534, 680}";
},
{
name = bottom;
position = "{325, 0}";
},
{
name = candra;
position = "{534, 690}";
},
{
name = caret_1;
position = "{315, 30}";
},
{
name = nukta;
position = "{93, -110}";
},
{
name = top;
position = "{534, 670}";
}
);
layerId = "5F4BB537-F6D4-41E2-86C5-F7A1868B70F1";
paths = (
{
closed = 1;
nodes = (
"456 166 LINE",
"408 251 OFFCURVE",
"297 311 OFFCURVE",
"176 311 CURVE SMOOTH",
"73 311 OFFCURVE",
"3 267 OFFCURVE",
"3 183 CURVE SMOOTH",
"3 67 OFFCURVE",
"134 -18 OFFCURVE",
"310 -18 CURVE SMOOTH",
"535 -18 OFFCURVE",
"646 121 OFFCURVE",
"646 242 CURVE SMOOTH",
"646 368 OFFCURVE",
"524 487 OFFCURVE",
"309 487 CURVE",
"309 617 LINE",
"87 617 LINE",
"87 329 LINE",
"337 329 LINE",
"396 329 OFFCURVE",
"432 293 OFFCURVE",
"432 248 CURVE SMOOTH",
"432 193 OFFCURVE",
"379 123 OFFCURVE",
"281 123 CURVE SMOOTH",
"240 123 OFFCURVE",
"193 135 OFFCURVE",
"193 165 CURVE SMOOTH",
"193 181 OFFCURVE",
"206 190 OFFCURVE",
"228 190 CURVE SMOOTH",
"275 190 OFFCURVE",
"337 151 OFFCURVE",
"369 105 CURVE"
);
},
{
closed = 1;
nodes = (
"652 530 LINE",
"652 694 LINE",
"0 694 LINE",
"0 530 LINE"
);
}
);
width = 652;
}
);
rightMetricsKey = "ttha-gurmukhi";
unicode = 0A19;
},
{
glyphname = "ca-gurmukhi";
layers = (
{
anchors = (
{
name = bindu;
position = "{556, 680}";
},
{
name = bottom;
position = "{459, 0}";
},
{
name = candra;
position = "{556, 690}";
},
{
name = caret_1;
position = "{479, 30}";
},
{
name = nukta;
position = "{74, 0}";
},
{
name = top;
position = "{586, 670}";
}
);
layerId = "5F4BB537-F6D4-41E2-86C5-F7A1868B70F1";
paths = (
{
closed = 1;
nodes = (
"578 -18 OFFCURVE",
"701 48 OFFCURVE",
"701 188 CURVE",
"701 615 LINE",
"481 615 LINE",
"481 215 LINE",
"481 181 OFFCURVE",
"476 148 OFFCURVE",
"434 148 CURVE SMOOTH",
"377 148 OFFCURVE",
"343 207 OFFCURVE",
"343 263 CURVE",
"118 289 LINE",
"118 118 OFFCURVE",
"301 -18 OFFCURVE",
"464 -18 CURVE SMOOTH"
);
},
{
closed = 1;
nodes = (
"333 387 LINE",
"318 446 OFFCURVE",
"226 465 OFFCURVE",
"139 465 CURVE SMOOTH",
"105 465 OFFCURVE",
"73 462 OFFCURVE",
"45 458 CURVE",
"13 302 LINE",
"62 270 OFFCURVE",
"123 259 OFFCURVE",
"178 259 CURVE SMOOTH",
"207 259 OFFCURVE",
"234 262 OFFCURVE",
"258 267 CURVE"
);
},
{
closed = 1;
nodes = (
"512 261 LINE",
"512 425 LINE",
"165 425 LINE",
"165 261 LINE"
);
},
{
closed = 1;
nodes = (
"758 530 LINE",
"758 694 LINE",
"0 694 LINE",
"0 530 LINE"
);
}
);
width = 758;
}
);
leftMetricsKey = "da-gurmukhi";
rightMetricsKey = "STEM-GURM";
unicode = 0A1A;
},
{
glyphname = "cha-gurmukhi";
layers = (
{
anchors = (
{
name = bindu;
position = "{481, 680}";
},
{
name = bottom;
position = "{361, 2}";
},
{
name = candra;
position = "{481, 690}";
},
{
name = caret_1;
position = "{361, 30}";
},
{
name = nukta;
position = "{93, -110}";
},
{
name = top;
position = "{511, 670}";
}
);
layerId = "5F4BB537-F6D4-41E2-86C5-F7A1868B70F1";
paths = (
{
closed = 1;
nodes = (
"532 -18 OFFCURVE",
"697 33 OFFCURVE",
"697 159 CURVE SMOOTH",
"697 293 OFFCURVE",
"510 329 OFFCURVE",
"351 331 CURVE",
"288 331 LINE",
"276 331 OFFCURVE",
"269 337 OFFCURVE",
"269 344 CURVE SMOOTH",
"269 350 OFFCURVE",
"274 356 OFFCURVE",
"286 356 CURVE",
"625 354 LINE",
"625 610 LINE",
"404 610 LINE",
"404 507 LINE",
"223 507 LINE SMOOTH",
"122 507 OFFCURVE",
"53 467 OFFCURVE",
"53 400 CURVE SMOOTH",
"53 353 OFFCURVE",
"85 319 OFFCURVE",
"122 296 CURVE",
"60 269 OFFCURVE",
"16 225 OFFCURVE",
"16 161 CURVE SMOOTH",
"16 35 OFFCURVE",
"192 -18 OFFCURVE",
"364 -18 CURVE SMOOTH"
);
},
{
closed = 1;
nodes = (
"301 126 LINE",
"256 126 OFFCURVE",
"218 130 OFFCURVE",
"218 158 CURVE SMOOTH",
"218 182 OFFCURVE",
"251 186 OFFCURVE",
"290 186 CURVE",
"423 186 LINE",
"465 186 OFFCURVE",
"494 183 OFFCURVE",
"494 160 CURVE SMOOTH",
"494 130 OFFCURVE",
"457 126 OFFCURVE",
"412 126 CURVE"
);
},
{
closed = 1;
nodes = (
"400 111 LINE",
"400 198 LINE",
"314 198 LINE",
"314 111 LINE"
);
},
{
closed = 1;
nodes = (
"711 530 LINE",
"711 694 LINE",
"0 694 LINE",
"0 530 LINE"
);
}
);
width = 711;
}
);
leftMetricsKey = "ttha-gurmukhi";
rightMetricsKey = "ttha-gurmukhi";
unicode = 0A1B;
},
{
glyphname = "ja-gurmukhi";
layers = (
{
anchors = (
{
name = bindu;
position = "{591, 680}";
},
{
name = bottom;
position = "{625, 0}";
},
{
name = candra;
position = "{591, 690}";
},
{
name = caret_1;
position = "{440, 30}";
},
{
name = nukta;
position = "{440, -149}";
},
{
name = top;
position = "{621, 670}";
}
);
layerId = "5F4BB537-F6D4-41E2-86C5-F7A1868B70F1";
paths = (
{
closed = 1;
nodes = (
"375 227 LINE",
"567 227 LINE",
"567 391 LINE",
"313 391 LINE",
"256 432 OFFCURVE",
"163 450 OFFCURVE",
"84 459 CURVE",
"16 311 LINE",
"51 280 OFFCURVE",
"108 254 OFFCURVE",
"166 239 CURVE",
"135 19 LINE",
"136 0 LINE",
"357 0 LINE"
);
},
{
closed = 1;
nodes = (
"663 530 LINE",
"663 694 LINE",
"0 694 LINE",
"0 530 LINE"
);
},
{
closed = 1;
nodes = (
"734 0 LINE",
"734 611 LINE",
"678 530 LINE",
"788 530 LINE",
"788 694 LINE",
"512 694 LINE",
"512 0 LINE"
);
}
);
width = 788;
}
);
leftMetricsKey = "da-gurmukhi";
rightMetricsKey = "STEM-GURM";
unicode = 0A1C;
},
{
glyphname = "jha-gurmukhi";
layers = (
{
anchors = (
{
name = bindu;
position = "{508, 680}";
},
{
name = bottom;
position = "{270, -87}";
},
{
name = candra;
position = "{508, 690}";
},
{
name = caret_1;
position = "{345, -24}";
},
{
name = nukta;
position = "{30, -43}";
},
{
name = top;
position = "{540, 670}";
}
);
layerId = "5F4BB537-F6D4-41E2-86C5-F7A1868B70F1";
paths = (
{
closed = 1;
nodes = (
"381 -87 LINE",
"406 52 LINE",
"354 2 LINE",
"543 2 OFFCURVE",
"647 99 OFFCURVE",
"647 205 CURVE SMOOTH",
"647 282 OFFCURVE",
"594 334 OFFCURVE",
"498 386 CURVE",
"496 345 LINE",
"614 379 OFFCURVE",
"647 475 OFFCURVE",
"652 547 CURVE",
"436 553 LINE",
"436 480 OFFCURVE",
"394 441 OFFCURVE",
"352 441 CURVE SMOOTH",
"311 441 OFFCURVE",
"271 478 OFFCURVE",
"272 555 CURVE",
"49 545 LINE",
"54 518 OFFCURVE",
"71 482 OFFCURVE",
"99 442 CURVE",
"66 442 LINE",
"71 308 LINE",
"336 308 LINE SMOOTH",
"389 308 OFFCURVE",
"432 282 OFFCURVE",
"432 240 CURVE SMOOTH",
"432 206 OFFCURVE",
"405 155 OFFCURVE",
"319 155 CURVE",
"370 143 LINE",
"342 185 OFFCURVE",
"283 207 OFFCURVE",
"238 220 CURVE SMOOTH",
"194 232 OFFCURVE",
"149 240 OFFCURVE",
"114 243 CURVE",
"45 108 LINE",
"74 70 OFFCURVE",
"126 38 OFFCURVE",
"178 21 CURVE",
"159 -69 LINE",
"159 -87 LINE"
);
},
{
closed = 1;
nodes = (
"694 530 LINE",
"694 694 LINE",
"0 694 LINE",
"0 530 LINE"
);
}
);
width = 694;
}
);
leftMetricsKey = "ta-gurmukhi";
rightMetricsKey = "ta-gurmukhi";
unicode = 0A1D;
},
{
glyphname = "nya-gurmukhi";
layers = (
{
anchors = (
{
name = bindu;
position = "{465, 680}";
},
{
name = bottom;
position = "{419, 0}";
},
{
name = candra;
position = "{465, 690}";
},
{
name = caret_1;
position = "{418, 30}";
},
{
name = nukta;
position = "{102, -53}";
},
{
name = top;
position = "{495, 670}";
}
);
components = (
{
name = "va-gurmukhi";
}
);
layerId = "5F4BB537-F6D4-41E2-86C5-F7A1868B70F1";
paths = (
{
closed = 1;
nodes = (
"304 492 LINE",
"264 492 OFFCURVE",
"252 530 OFFCURVE",
"250 558 CURVE",
"27 566 LINE",
"27 507 OFFCURVE",
"129 430 OFFCURVE",
"292 430 CURVE"
);
}
);
width = 662;
}
);
leftMetricsKey = "va-gurmukhi";
rightMetricsKey = "va-gurmukhi";
unicode = 0A1E;
},
{
glyphname = "tta-gurmukhi";
layers = (
{
anchors = (
{
name = bindu;
position = "{504, 680}";
},
{
name = bottom;
position = "{393, 0}";
},
{
name = candra;
position = "{504, 690}";
},
{
name = caret_1;
position = "{395, 30}";
},
{
name = nukta;
position = "{79, -48}";
},
{
name = top;
position = "{474, 670}";
}
);
layerId = "5F4BB537-F6D4-41E2-86C5-F7A1868B70F1";
paths = (
{
closed = 1;
nodes = (
"481 -18 OFFCURVE",
"554 -3 OFFCURVE",
"620 27 CURVE",
"577 182 LINE",
"516 162 OFFCURVE",
"450 148 OFFCURVE",
"387 148 CURVE SMOOTH",
"329 148 OFFCURVE",
"245 150 OFFCURVE",
"207 253 CURVE",
"206 171 LINE",
"253 258 OFFCURVE",
"360 296 OFFCURVE",
"512 297 CURVE",
"587 297 LINE",
"587 613 LINE",
"366 613 LINE",
"366 370 LINE",
"444 463 LINE",
"256 458 OFFCURVE",
"91 375 OFFCURVE",
"16 257 CURVE",
"74 48 OFFCURVE",
"269 -18 OFFCURVE",
"412 -18 CURVE SMOOTH"
);
},
{
closed = 1;
nodes = (
"642 530 LINE",
"642 694 LINE",
"0 694 LINE",
"0 530 LINE"
);
}
);
width = 642;
}
);
leftMetricsKey = "ra-gurmukhi";
rightMetricsKey = "STEM-GURM";
unicode = 0A1F;
},
{
glyphname = "ttha-gurmukhi";
layers = (
{
anchors = (
{
name = bindu;
position = "{518, 680}";
},
{
name = bottom;
position = "{340, 2}";
},
{
name = candra;
position = "{342, 690}";
},
{
name = caret_1;
position = "{340, 30}";
},
{
name = nukta;
position = "{25, -48}";
},
{
name = top;
position = "{518, 670}";
}
);
layerId = "5F4BB537-F6D4-41E2-86C5-F7A1868B70F1";
paths = (
{
closed = 1;
nodes = (
"505 -18 OFFCURVE",
"665 67 OFFCURVE",
"665 227 CURVE SMOOTH",
"665 386 OFFCURVE",
"492 465 OFFCURVE",
"342 465 CURVE SMOOTH",
"179 465 OFFCURVE",
"16 386 OFFCURVE",
"16 227 CURVE SMOOTH",
"16 67 OFFCURVE",
"192 -18 OFFCURVE",
"342 -18 CURVE SMOOTH"
);
},
{
closed = 1;
nodes = (
"392 149 OFFCURVE",
"342 149 CURVE SMOOTH",
"291 149 OFFCURVE",
"240 175 OFFCURVE",
"240 225 CURVE SMOOTH",
"240 274 OFFCURVE",
"290 298 OFFCURVE",
"341 298 CURVE SMOOTH",
"391 298 OFFCURVE",
"441 274 OFFCURVE",
"441 225 CURVE SMOOTH",
"441 174 OFFCURVE"
);
},
{
closed = 1;
nodes = (
"450 357 LINE",
"450 637 LINE",
"230 637 LINE",
"230 357 LINE"
);
},
{
closed = 1;
nodes = (
"680 530 LINE",
"680 694 LINE",
"0 694 LINE",
"0 530 LINE"
);
}
);
width = 680;
}
);
unicode = 0A20;
},
{
glyphname = "dda-gurmukhi";
layers = (
{
anchors = (
{
name = bindu;
position = "{494, 680}";
},
{
name = bottom;
position = "{332, 2}";
},
{
name = candra;
position = "{494, 690}";
},
{
name = caret_1;
position = "{306, 30}";
},
{
name = nukta;
position = "{79, -91}";
},
{
name = top;
position = "{464, 670}";
}
);
layerId = "5F4BB537-F6D4-41E2-86C5-F7A1868B70F1";
paths = (
{
closed = 1;
nodes = (
"507 -18 OFFCURVE",
"605 97 OFFCURVE",
"605 210 CURVE SMOOTH",
"605 285 OFFCURVE",
"566 358 OFFCURVE",
"493 414 CURVE",
"498 375 LINE",
"560 425 OFFCURVE",
"579 489 OFFCURVE",
"579 579 CURVE",
"358 580 LINE",
"358 524 OFFCURVE",
"358 495 OFFCURVE",
"320 481 CURVE",
"378 476 LINE",
"333 498 OFFCURVE",
"277 507 OFFCURVE",
"217 507 CURVE SMOOTH",
"168 507 OFFCURVE",
"117 501 OFFCURVE",
"83 490 CURVE",
"96 339 LINE",
"135 328 OFFCURVE",
"180 322 OFFCURVE",
"230 322 CURVE SMOOTH",
"287 322 OFFCURVE",
"345 329 OFFCURVE",
"404 339 CURVE",
"347 340 LINE",
"388 323 OFFCURVE",
"409 284 OFFCURVE",
"409 244 CURVE SMOOTH",
"409 185 OFFCURVE",
"369 123 OFFCURVE",
"286 123 CURVE SMOOTH",
"257 123 OFFCURVE",
"196 132 OFFCURVE",
"196 164 CURVE SMOOTH",
"196 179 OFFCURVE",
"210 187 OFFCURVE",
"231 187 CURVE SMOOTH",
"276 187 OFFCURVE",
"349 153 OFFCURVE",
"368 108 CURVE",
"441 179 LINE",
"408 250 OFFCURVE",
"282 306 OFFCURVE",
"176 306 CURVE SMOOTH",
"82 306 OFFCURVE",
"9 263 OFFCURVE",
"9 179 CURVE SMOOTH",
"9 69 OFFCURVE",
"136 -18 OFFCURVE",
"309 -18 CURVE SMOOTH"
);
},
{
closed = 1;
nodes = (
"629 530 LINE",
"629 694 LINE",
"0 694 LINE",
"0 530 LINE"
);
}
);
width = 629;
}
);
leftMetricsKey = "ta-gurmukhi";
rightMetricsKey = "ta-gurmukhi";
unicode = 0A21;
},
{
glyphname = "ddha-gurmukhi";
layers = (
{
anchors = (
{
name = bindu;
position = "{589, 680}";
},
{
name = bottom;
position = "{480, 0}";
},
{
name = candra;
position = "{589, 690}";
},
{
name = caret_1;
position = "{461, 30}";
},
{
name = nukta;
position = "{96, 0}";
},
{
name = top;
position = "{559, 670}";
}
);
layerId = "5F4BB537-F6D4-41E2-86C5-F7A1868B70F1";
paths = (
{
closed = 1;
nodes = (
"645 -17 OFFCURVE",
"746 67 OFFCURVE",
"746 159 CURVE SMOOTH",
"746 253 OFFCURVE",
"640 303 OFFCURVE",
"538 303 CURVE SMOOTH",
"447 303 OFFCURVE",
"342 263 OFFCURVE",
"306 179 CURVE",
"386 111 LINE",
"406 159 OFFCURVE",
"478 193 OFFCURVE",
"520 193 CURVE SMOOTH",
"538 193 OFFCURVE",
"550 186 OFFCURVE",
"550 172 CURVE SMOOTH",
"550 142 OFFCURVE",
"498 123 OFFCURVE",
"446 123 CURVE SMOOTH",
"371 123 OFFCURVE",
"314 162 OFFCURVE",
"314 255 CURVE SMOOTH",
"314 373 LINE",
"260 325 LINE",
"673 325 LINE",
"673 659 LINE",
"452 659 LINE",
"452 467 LINE",
"245 467 LINE",
"303 453 LINE",
"266 482 OFFCURVE",
"150 504 OFFCURVE",
"45 502 CURVE",
"13 344 LINE",
"47 325 OFFCURVE",
"85 317 OFFCURVE",
"122 312 CURVE",
"122 276 LINE SMOOTH",
"122 107 OFFCURVE",
"283 -17 OFFCURVE",
"482 -17 CURVE SMOOTH"
);
},
{
closed = 1;
nodes = (
"756 530 LINE",
"756 694 LINE",
"0 694 LINE",
"0 530 LINE"
);
}
);
width = 756;
}
);
leftMetricsKey = "da-gurmukhi";
rightMetricsKey = "ttha-gurmukhi";
unicode = 0A22;
},
{
glyphname = "nna-gurmukhi";
layers = (
{
anchors = (
{
name = bindu;
position = "{485, 680}";
},
{
name = bottom;
position = "{425, 0}";
},
{
name = candra;
position = "{485, 690}";
},
{
name = caret_1;
position = "{405, 30}";
},
{
name = nukta;
position = "{83, -55}";
},
{
name = top;
position = "{485, 670}";
}
);
layerId = "5F4BB537-F6D4-41E2-86C5-F7A1868B70F1";
paths = (
{
closed = 1;
nodes = (
"487 -18 OFFCURVE",
"565 -2 OFFCURVE",
"631 30 CURVE",
"584 184 LINE",
"523 166 OFFCURVE",
"448 147 OFFCURVE",
"380 147 CURVE SMOOTH",
"301 147 OFFCURVE",
"231 172 OFFCURVE",
"199 252 CURVE",
"199 161 LINE",
"242 214 OFFCURVE",
"325 219 OFFCURVE",
"444 222 CURVE",
"444 442 LINE",
"222 443 LINE",
"222 261 LINE",
"308 374 LINE",
"194 373 OFFCURVE",
"69 322 OFFCURVE",
"16 247 CURVE",
"71 47 OFFCURVE",
"267 -18 OFFCURVE",
"414 -18 CURVE SMOOTH"
);
},
{
closed = 1;
nodes = (
"600 463 LINE",
"386 472 OFFCURVE",
"341 513 OFFCURVE",
"338 590 CURVE",
"128 612 LINE",
"131 435 OFFCURVE",
"366 302 OFFCURVE",
"591 298 CURVE"
);
},
{
closed = 1;
nodes = (
"671 530 LINE",
"671 694 LINE",
"0 694 LINE",
"0 530 LINE"
);
}
);
width = 671;
}
);
leftMetricsKey = "ra-gurmukhi";
unicode = 0A23;
},
{
glyphname = "ta-gurmukhi";
layers = (
{
anchors = (
{
name = bindu;
position = "{485, 680}";
},
{
name = bottom;
position = "{311, 0}";
},
{
name = candra;
position = "{485, 690}";
},
{
name = caret_1;
position = "{276, 30}";
},
{
name = nukta;
position = "{99, -116}";
},
{
name = top;
position = "{455, 670}";
}
);
layerId = "5F4BB537-F6D4-41E2-86C5-F7A1868B70F1";
paths = (
{
closed = 1;
nodes = (
"485 -18 OFFCURVE",
"588 90 OFFCURVE",
"588 187 CURVE SMOOTH",
"588 253 OFFCURVE",
"542 314 OFFCURVE",
"459 350 CURVE",
"470 320 LINE",
"530 358 OFFCURVE",
"568 431 OFFCURVE",
"568 519 CURVE SMOOTH",
"568 570 LINE",
"346 571 LINE",
"346 532 LINE SMOOTH",
"346 482 OFFCURVE",
"335 441 OFFCURVE",
"312 425 CURVE",
"356 432 LINE",
"333 440 OFFCURVE",
"291 446 OFFCURVE",
"239 446 CURVE SMOOTH",
"181 446 OFFCURVE",
"119 440 OFFCURVE",
"71 430 CURVE",
"84 268 LINE",
"123 256 OFFCURVE",
"168 251 OFFCURVE",
"215 251 CURVE SMOOTH",
"272 251 OFFCURVE",
"327 259 OFFCURVE",
"383 272 CURVE",
"311 271 LINE",
"339 270 OFFCURVE",
"365 249 OFFCURVE",
"365 219 CURVE SMOOTH",
"365 189 OFFCURVE",
"335 148 OFFCURVE",
"255 148 CURVE SMOOTH",
"202 148 OFFCURVE",
"123 165 OFFCURVE",
"62 186 CURVE",
"19 31 LINE",
"86 3 OFFCURVE",
"187 -18 OFFCURVE",
"279 -18 CURVE SMOOTH"
);
},
{
closed = 1;
nodes = (
"618 530 LINE",
"618 694 LINE",
"0 694 LINE",
"0 530 LINE"
);
}
);
width = 618;
}
);
unicode = 0A24;
},
{
glyphname = "tha-gurmukhi";
layers = (
{
anchors = (
{
name = bindu;
position = "{535, 680}";
},
{
name = bottom;
position = "{569, 0}";
},
{
name = candra;
position = "{535, 690}";
},
{
name = caret_1;
position = "{319, 30}";
},
{
name = nukta;
position = "{83, 0}";
},
{
name = top;
position = "{565, 670}";
}
);
components = (
{
name = "dha-gurmukhi";
}
);
layerId = "5F4BB537-F6D4-41E2-86C5-F7A1868B70F1";
paths = (
{
closed = 1;
nodes = (
"566 339 LINE",
"566 427 LINE",
"195 427 LINE",
"195 339 LINE"
);
}
);
width = 732;
}
);
leftMetricsKey = "pa-gurmukhi";
rightMetricsKey = "pa-gurmukhi";
unicode = 0A25;
},
{
glyphname = "da-gurmukhi";
layers = (
{
anchors = (
{
name = bindu;
position = "{576, 680}";
},
{
name = bottom;
position = "{480, 0}";
},
{
name = candra;
position = "{576, 690}";
},
{
name = caret_1;
position = "{490, 30}";
},
{
name = nukta;
position = "{112, 0}";
},
{
name = top;
position = "{546, 670}";
}
);
layerId = "5F4BB537-F6D4-41E2-86C5-F7A1868B70F1";
paths = (
{
closed = 1;
nodes = (
"563 -18 OFFCURVE",
"634 -2 OFFCURVE",
"692 27 CURVE",
"649 182 LINE",
"595 164 OFFCURVE",
"528 149 OFFCURVE",
"469 149 CURVE SMOOTH",
"393 149 OFFCURVE",
"331 175 OFFCURVE",
"331 256 CURVE SMOOTH",
"331 331 LINE",
"275 279 LINE",
"661 279 LINE",
"661 616 LINE",
"439 616 LINE",
"439 443 LINE",
"257 443 LINE",
"319 427 LINE",
"273 461 OFFCURVE",
"176 484 OFFCURVE",
"49 483 CURVE",
"15 327 LINE",
"45 310 OFFCURVE",
"85 300 OFFCURVE",
"123 293 CURVE",
"123 276 LINE SMOOTH",
"123 104 OFFCURVE",
"308 -18 OFFCURVE",
"495 -18 CURVE SMOOTH"
);
},
{
closed = 1;
nodes = (
"715 530 LINE",
"715 694 LINE",
"0 694 LINE",
"0 530 LINE"
);
}
);
width = 715;
}
);
rightMetricsKey = "STEM-GURM";
unicode = 0A26;
},
{
glyphname = "dha-gurmukhi";
layers = (
{
anchors = (
{
name = bindu;
position = "{535, 680}";
},
{
name = bottom;
position = "{569, 0}";
},
{
name = candra;
position = "{535, 690}";
},
{
name = caret_1;
position = "{319, 30}";
},
{
name = nukta;
position = "{83, 0}";
},
{
name = top;
position = "{565, 670}";
}
);
components = (
{
name = "pa-gurmukhi";
}
);
layerId = "5F4BB537-F6D4-41E2-86C5-F7A1868B70F1";
paths = (
{
closed = 1;
nodes = (
"617 530 LINE",
"617 694 LINE",
"13 694 LINE",
"13 530 LINE"
);
}
);
width = 732;
}
);
leftMetricsKey = "pa-gurmukhi";
rightMetricsKey = "pa-gurmukhi";
unicode = 0A27;
},
{
glyphname = "na-gurmukhi";
layers = (
{
anchors = (
{
name = bindu;
position = "{518, 680}";
},
{
name = bottom;
position = "{421, -2}";
},
{
name = candra;
position = "{342, 690}";
},
{
name = caret_1;
position = "{340, 30}";
},
{
name = nukta;
position = "{28, -48}";
},
{
name = top;
position = "{518, 670}";
}
);
layerId = "5F4BB537-F6D4-41E2-86C5-F7A1868B70F1";
paths = (
{
closed = 1;
nodes = (
"310 153 LINE",
"271 162 OFFCURVE",
"240 188 OFFCURVE",
"240 225 CURVE SMOOTH",
"240 273 OFFCURVE",
"291 298 OFFCURVE",
"341 298 CURVE SMOOTH",
"391 298 OFFCURVE",
"441 274 OFFCURVE",
"441 225 CURVE SMOOTH",
"441 188 OFFCURVE",
"408 163 OFFCURVE",
"370 153 CURVE",
"389 -14 LINE",
"536 3 OFFCURVE",
"665 87 OFFCURVE",
"665 225 CURVE SMOOTH",
"665 385 OFFCURVE",
"496 465 OFFCURVE",
"339 465 CURVE SMOOTH",
"181 465 OFFCURVE",
"16 384 OFFCURVE",
"16 228 CURVE SMOOTH",
"16 88 OFFCURVE",
"149 9 OFFCURVE",
"290 -14 CURVE"
);
},
{
closed = 1;
nodes = (
"450 358 LINE",
"450 635 LINE",
"230 635 LINE",
"230 358 LINE"
);
},
{
closed = 1;
nodes = (
"680 530 LINE",
"680 694 LINE",
"0 694 LINE",
"0 530 LINE"
);
}
);
width = 680;
}
);
leftMetricsKey = "ttha-gurmukhi";
rightMetricsKey = "ttha-gurmukhi";
unicode = 0A28;
},
{
glyphname = "pa-gurmukhi";
layers = (
{
anchors = (
{
name = bindu;
position = "{535, 680}";
},
{
name = bottom;
position = "{569, 0}";
},
{
name = candra;
position = "{535, 690}";
},
{
name = caret_1;
position = "{319, 30}";
},
{
name = nukta;
position = "{83, 0}";
},
{
name = top;
position = "{535, 670}";
}
);
layerId = "5F4BB537-F6D4-41E2-86C5-F7A1868B70F1";
paths = (
{
closed = 1;
nodes = (
"206 67 OFFCURVE",
"347 67 CURVE SMOOTH",
"407 67 OFFCURVE",
"466 82 OFFCURVE",
"514 112 CURVE",
"469 339 LINE",
"441 269 OFFCURVE",
"372 231 OFFCURVE",
"316 231 CURVE SMOOTH",
"269 231 OFFCURVE",
"231 257 OFFCURVE",
"231 313 CURVE",
"176 220 LINE",
"239 244 OFFCURVE",
"342 297 OFFCURVE",
"342 427 CURVE SMOOTH",
"342 545 OFFCURVE",
"231 694 OFFCURVE",
"31 694 CURVE SMOOTH",
"0 694 LINE",
"0 530 LINE",
"39 530 LINE SMOOTH",
"101 530 OFFCURVE",
"125 492 OFFCURVE",
"125 444 CURVE SMOOTH",
"125 387 OFFCURVE",
"91 361 OFFCURVE",
"34 324 CURVE",
"61 151 OFFCURVE"
);
},
{
closed = 1;
nodes = (
"678 0 LINE",
"678 611 LINE",
"622 530 LINE",
"732 530 LINE",
"732 694 LINE",
"456 694 LINE",
"456 0 LINE"
);
}
);
width = 732;
}
);
leftMetricsKey = "ma-gurmukhi";
rightMetricsKey = "STEM-GURM";
unicode = 0A2A;
},
{
glyphname = "pha-gurmukhi";
layers = (
{
anchors = (
{
name = bindu;
position = "{503, 680}";
},
{
name = bottom;
position = "{395, 0}";
},
{
name = candra;
position = "{503, 690}";
},
{
name = caret_1;
position = "{370, 30}";
},
{
name = nukta;
position = "{56, -48}";
},
{
name = top;
position = "{473, 670}";
}
);
layerId = "5F4BB537-F6D4-41E2-86C5-F7A1868B70F1";
paths = (
{
closed = 1;
nodes = (
"299 107 LINE",
"324 159 OFFCURVE",
"394 193 OFFCURVE",
"435 193 CURVE SMOOTH",
"453 193 OFFCURVE",
"465 186 OFFCURVE",
"465 172 CURVE SMOOTH",
"465 144 OFFCURVE",
"415 123 OFFCURVE",
"363 123 CURVE SMOOTH",
"298 123 OFFCURVE",
"201 155 OFFCURVE",
"201 226 CURVE SMOOTH",
"201 275 OFFCURVE",
"249 322 OFFCURVE",
"335 322 CURVE SMOOTH",
"587 322 LINE",
"587 615 LINE",
"366 615 LINE",
"366 486 LINE",
"320 486 LINE SMOOTH",
"118 486 OFFCURVE",
"17 373 OFFCURVE",
"17 256 CURVE SMOOTH",
"17 126 OFFCURVE",
"141 -17 OFFCURVE",
"383 -17 CURVE SMOOTH",
"568 -17 OFFCURVE",
"661 67 OFFCURVE",
"661 157 CURVE SMOOTH",
"661 250 OFFCURVE",
"563 303 OFFCURVE",
"453 303 CURVE SMOOTH",
"353 303 OFFCURVE",
"235 259 OFFCURVE",
"201 160 CURVE"
);
},
{
closed = 1;
nodes = (
"672 530 LINE",
"672 694 LINE",
"0 694 LINE",
"0 530 LINE"
);
}
);
width = 672;
}
);
leftMetricsKey = "ra-gurmukhi";
rightMetricsKey = "ttha-gurmukhi";
unicode = 0A2B;
},
{
glyphname = "ba-gurmukhi";
layers = (
{
anchors = (
{
name = bindu;
position = "{540, 680}";
},
{
name = bottom;
position = "{573, 0}";
},
{
name = candra;
position = "{540, 690}";
},
{
name = caret_1;
position = "{358, 30}";
},
{
name = nukta;
position = "{109, -60}";
},
{
name = top;
position = "{570, 670}";
}
);
layerId = "5F4BB537-F6D4-41E2-86C5-F7A1868B70F1";
paths = (
{
closed = 1;
nodes = (
"414 26 OFFCURVE",
"469 42 OFFCURVE",
"519 70 CURVE",
"493 289 LINE",
"447 210 OFFCURVE",
"382 191 OFFCURVE",
"315 191 CURVE SMOOTH",
"243 191 OFFCURVE",
"244 214 OFFCURVE",
"232 219 CURVE",
"228 189 LINE",
"279 262 OFFCURVE",
"376 295 OFFCURVE",
"528 295 CURVE SMOOTH",
"557 295 LINE",
"557 437 LINE",
"432 437 LINE SMOOTH",
"331 438 OFFCURVE",
"288 497 OFFCURVE",
"285 570 CURVE",
"63 578 LINE",
"63 499 OFFCURVE",
"115 419 OFFCURVE",
"208 370 CURVE",
"203 401 LINE",
"142 362 OFFCURVE",
"77 320 OFFCURVE",
"30 256 CURVE",
"85 93 OFFCURVE",
"219 26 OFFCURVE",
"351 26 CURVE SMOOTH"
);
},
{
closed = 1;
nodes = (
"562 530 LINE",
"562 694 LINE",
"0 694 LINE",
"0 530 LINE"
);
},
{
closed = 1;
nodes = (
"682 0 LINE",
"682 611 LINE",
"626 530 LINE",
"736 530 LINE",
"736 694 LINE",
"460 694 LINE",
"460 0 LINE"
);
}
);
width = 736;
}
);
leftMetricsKey = "ra-gurmukhi";
rightMetricsKey = "STEM-GURM";
unicode = 0A2C;
},
{
glyphname = "bha-gurmukhi";
layers = (
{
anchors = (
{
name = bindu;
position = "{493, 680}";
},
{
name = bottom;
position = "{303, 2}";
},
{
name = candra;
position = "{493, 690}";
},
{
name = caret_1;
position = "{283, 30}";
},
{
name = nukta;
position = "{65, -118}";
},
{
name = top;
position = "{484, 670}";
}
);
layerId = "5F4BB537-F6D4-41E2-86C5-F7A1868B70F1";
paths = (
{
closed = 1;
nodes = (
"485 -18 OFFCURVE",
"587 89 OFFCURVE",
"587 207 CURVE SMOOTH",
"587 263 OFFCURVE",
"564 326 OFFCURVE",
"511 382 CURVE",
"518 323 LINE",
"560 387 OFFCURVE",
"581 460 OFFCURVE",
"581 513 CURVE SMOOTH",
"581 567 LINE",
"396 567 LINE",
"396 514 OFFCURVE",
"395 475 OFFCURVE",
"367 433 CURVE",
"412 458 LINE",
"350 491 OFFCURVE",
"277 506 OFFCURVE",
"220 506 CURVE SMOOTH",
"116 506 OFFCURVE",
"17 457 OFFCURVE",
"17 349 CURVE SMOOTH",
"17 223 OFFCURVE",
"152 173 OFFCURVE",
"256 173 CURVE SMOOTH",
"341 173 OFFCURVE",
"398 207 OFFCURVE",
"452 262 CURVE",
"420 265 LINE",
"420 179 OFFCURVE",
"364 147 OFFCURVE",
"264 147 CURVE SMOOTH",
"194 147 OFFCURVE",
"121 165 OFFCURVE",
"63 186 CURVE",
"20 31 LINE",
"87 3 OFFCURVE",
"188 -18 OFFCURVE",
"279 -18 CURVE SMOOTH"
);
},
{
closed = 1;
nodes = (
"222 312 OFFCURVE",
"200 323 OFFCURVE",
"200 347 CURVE SMOOTH",
"200 372 OFFCURVE",
"225 384 OFFCURVE",
"256 384 CURVE SMOOTH",
"293 384 OFFCURVE",
"338 367 OFFCURVE",
"360 334 CURVE",
"349 385 LINE",
"344 338 OFFCURVE",
"291 312 OFFCURVE",
"249 312 CURVE SMOOTH"
);
},
{
closed = 1;
nodes = (
"610 530 LINE",
"610 694 LINE",
"0 694 LINE",
"0 530 LINE"
);
}
);
width = 610;
}
);
leftMetricsKey = "ta-gurmukhi";
rightMetricsKey = "ta-gurmukhi";
unicode = 0A2D;
},
{
glyphname = "ma-gurmukhi";
layers = (
{
anchors = (
{
name = bindu;
position = "{550, 680}";
},
{
name = bottom;
position = "{584, 0}";
},
{
name = candra;
position = "{550, 690}";
},
{
name = caret_1;
position = "{363, 30}";
},
{
name = nukta;
position = "{444, 24}";
},
{
name = top;
position = "{550, 670}";
}
);
layerId = "5F4BB537-F6D4-41E2-86C5-F7A1868B70F1";
paths = (
{
closed = 1;
nodes = (
"297 116 OFFCURVE",
"352 288 OFFCURVE",
"352 401 CURVE SMOOTH",
"352 587 OFFCURVE",
"210 694 OFFCURVE",
"20 694 CURVE SMOOTH",
"0 694 LINE",
"0 530 LINE",
"35 530 LINE SMOOTH",
"115 530 OFFCURVE",
"143 472 OFFCURVE",
"143 406 CURVE SMOOTH",
"143 378 OFFCURVE",
"138 349 OFFCURVE",
"130 322 CURVE",
"168 365 LINE",
"63 314 OFFCURVE",
"37 209 OFFCURVE",
"37 123 CURVE SMOOTH",
"37 99 OFFCURVE",
"39 76 OFFCURVE",
"42 56 CURVE",
"222 25 LINE"
);
},
{
closed = 1;
nodes = (
"549 197 LINE",
"549 361 LINE",
"230 361 LINE",
"215 197 LINE"
);
},
{
closed = 1;
nodes = (
"693 0 LINE",
"693 611 LINE",
"637 530 LINE",
"747 530 LINE",
"747 694 LINE",
"471 694 LINE",
"471 0 LINE"
);
}
);
width = 747;
}
);
rightMetricsKey = "STEM-GURM";
unicode = 0A2E;
},
{
glyphname = "ya-gurmukhi";
layers = (
{
anchors = (
{
name = bindu;
position = "{685, 680}";
},
{
name = bottom;
position = "{719, 0}";
},
{
name = candra;
position = "{685, 690}";
},
{
name = caret_1;
position = "{429, 30}";
},
{
name = nukta;
position = "{123, -12}";
},
{
name = top;
position = "{715, 670}";
}
);
layerId = "5F4BB537-F6D4-41E2-86C5-F7A1868B70F1";
paths = (
{
closed = 1;
nodes = (
"480 67 OFFCURVE",
"575 138 OFFCURVE",
"575 268 CURVE",
"575 296 LINE",
"520 256 LINE",
"629 256 LINE",
"629 420 LINE",
"373 420 LINE",
"373 298 LINE",
"373 245 OFFCURVE",
"341 233 OFFCURVE",
"315 233 CURVE SMOOTH",
"260 233 OFFCURVE",
"247 260 OFFCURVE",
"238 278 CURVE",
"224 241 LINE",
"276 272 OFFCURVE",
"343 322 OFFCURVE",
"343 427 CURVE SMOOTH",
"343 545 OFFCURVE",
"231 694 OFFCURVE",
"31 694 CURVE SMOOTH",
"0 694 LINE",
"0 530 LINE",
"40 530 LINE SMOOTH",
"101 530 OFFCURVE",
"125 492 OFFCURVE",
"125 444 CURVE SMOOTH",
"125 387 OFFCURVE",
"91 361 OFFCURVE",
"34 324 CURVE",
"61 154 OFFCURVE",
"210 67 OFFCURVE",
"326 67 CURVE SMOOTH"
);
},
{
closed = 1;
nodes = (
"630 530 LINE",
"630 694 LINE",
"3 694 LINE",
"3 530 LINE"
);
},
{
closed = 1;
nodes = (
"827 0 LINE",
"827 611 LINE",
"771 530 LINE",
"881 530 LINE",
"881 694 LINE",
"605 694 LINE",
"605 0 LINE"
);
}
);
width = 881;
}
);
leftMetricsKey = "pa-gurmukhi";
rightMetricsKey = "STEM-GURM";
unicode = 0A2F;
},
{
glyphname = "ra-gurmukhi";
layers = (
{
anchors = (
{
name = bindu;
position = "{461, 680}";
},
{
name = bottom;
position = "{372, 0}";
},
{
name = candra;
position = "{461, 690}";
},
{
name = caret_1;
position = "{396, 30}";
},
{
name = nukta;
position = "{48, -36}";
},
{
name = top;
position = "{491, 670}";
}
);
layerId = "5F4BB537-F6D4-41E2-86C5-F7A1868B70F1";
paths = (
{
closed = 1;
nodes = (
"496 -18 OFFCURVE",
"606 46 OFFCURVE",
"606 179 CURVE SMOOTH",
"606 614 LINE",
"385 614 LINE",
"385 394 LINE",
"439 452 LINE",
"242 452 LINE SMOOTH",
"103 452 OFFCURVE",
"16 378 OFFCURVE",
"16 268 CURVE SMOOTH",
"16 104 OFFCURVE",
"208 -18 OFFCURVE",
"375 -18 CURVE SMOOTH"
);
},
{
closed = 1;
nodes = (
"289 146 OFFCURVE",
"240 191 OFFCURVE",
"240 239 CURVE SMOOTH",
"240 267 OFFCURVE",
"256 288 OFFCURVE",
"289 288 CURVE SMOOTH",
"440 288 LINE",
"386 317 LINE",
"386 201 LINE SMOOTH",
"386 171 OFFCURVE",
"381 146 OFFCURVE",
"342 146 CURVE SMOOTH"
);
},
{
closed = 1;
nodes = (
"661 530 LINE",
"661 694 LINE",
"0 694 LINE",
"0 530 LINE"
);
}
);
width = 661;
}
);
rightMetricsKey = "STEM-GURM";
unicode = 0A30;
},
{
glyphname = "la-gurmukhi";
layers = (
{
anchors = (
{
name = bindu;
position = "{593, 680}";
},
{
name = bottom;
position = "{572, 21}";
},
{
name = candra;
position = "{379, 690}";
},
{
name = caret_1;
position = "{378, 30}";
},
{
name = nukta;
position = "{380, -51}";
},
{
name = top;
position = "{573, 670}";
}
);
layerId = "5F4BB537-F6D4-41E2-86C5-F7A1868B70F1";
paths = (
{
closed = 1;
nodes = (
"318 153 LINE",
"278 163 OFFCURVE",
"247 187 OFFCURVE",
"247 226 CURVE SMOOTH",
"247 252 OFFCURVE",
"260 272 OFFCURVE",
"280 286 CURVE",
"322 266 OFFCURVE",
"363 248 OFFCURVE",
"400 233 CURVE",
"435 251 OFFCURVE",
"464 265 OFFCURVE",
"492 278 CURVE",
"504 266 OFFCURVE",
"512 248 OFFCURVE",
"512 228 CURVE SMOOTH",
"512 187 OFFCURVE",
"479 163 OFFCURVE",
"439 153 CURVE",
"459 -14 LINE",
"611 3 OFFCURVE",
"736 84 OFFCURVE",
"736 215 CURVE SMOOTH",
"736 289 OFFCURVE",
"696 353 OFFCURVE",
"639 395 CURVE",
"671 436 OFFCURVE",
"686 486 OFFCURVE",
"684 551 CURVE",
"460 551 LINE",
"467 478 OFFCURVE",
"397 426 OFFCURVE",
"333 411 CURVE",
"385 410 LINE",
"334 428 OFFCURVE",
"293 461 OFFCURVE",
"298 552 CURVE",
"74 552 LINE",
"72 496 OFFCURVE",
"91 449 OFFCURVE",
"120 408 CURVE",
"59 366 OFFCURVE",
"23 305 OFFCURVE",
"23 230 CURVE SMOOTH",
"23 86 OFFCURVE",
"156 9 OFFCURVE",
"298 -14 CURVE"
);
},
{
closed = 1;
nodes = (
"759 530 LINE",
"759 694 LINE",
"0 694 LINE",
"0 530 LINE"
);
}
);
width = 759;
}
);
rightMetricsKey = "ta-gurmukhi";
unicode = 0A32;
},
{
glyphname = "va-gurmukhi";
layers = (
{
anchors = (
{
name = bindu;
position = "{465, 680}";
},
{
name = bottom;
position = "{436, 0}";
},
{
name = candra;
position = "{465, 690}";
},
{
name = caret_1;
position = "{418, 30}";
},
{
name = nukta;
position = "{102, -53}";
},
{
name = top;
position = "{495, 670}";
}
);
layerId = "5F4BB537-F6D4-41E2-86C5-F7A1868B70F1";
paths = (
{
closed = 1;
nodes = (
"559 191 LINE",
"564 323 LINE",
"244 323 LINE",
"232 323 OFFCURVE",
"226 331 OFFCURVE",
"226 338 CURVE SMOOTH",
"226 346 OFFCURVE",
"231 353 OFFCURVE",
"243 353 CURVE",
"607 353 LINE",
"607 604 LINE",
"386 604 LINE",
"386 455 LINE",
"441 492 LINE",
"185 492 LINE",
"79 492 OFFCURVE",
"24 435 OFFCURVE",
"24 369 CURVE SMOOTH",
"24 288 OFFCURVE",
"103 191 OFFCURVE",
"259 191 CURVE"
);
},
{
closed = 1;
nodes = (
"506 -18 OFFCURVE",
"569 -8 OFFCURVE",
"618 7 CURVE",
"574 161 LINE",
"523 153 OFFCURVE",
"470 146 OFFCURVE",
"412 146 CURVE SMOOTH",
"332 146 OFFCURVE",
"301 160 OFFCURVE",
"301 186 CURVE SMOOTH",
"301 206 OFFCURVE",
"301 223 OFFCURVE",
"300 239 CURVE",
"98 239 LINE",
"99 231 OFFCURVE",
"100 219 OFFCURVE",
"100 207 CURVE SMOOTH",
"100 75 OFFCURVE",
"223 -18 OFFCURVE",
"436 -18 CURVE SMOOTH"
);
},
{
closed = 1;
nodes = (
"662 530 LINE",
"662 694 LINE",
"0 694 LINE",
"0 530 LINE"
);
}
);
width = 662;
}
);
leftMetricsKey = "ra-gurmukhi";
unicode = 0A35;
},
{
glyphname = "sa-gurmukhi";
layers = (
{
anchors = (
{
name = bindu;
position = "{554, 680}";
},
{
name = bottom;
position = "{585, 0}";
},
{
name = candra;
position = "{554, 690}";
},
{
name = caret_1;
position = "{364, 30}";
},
{
name = nukta;
position = "{364, 40}";
},
{
name = top;
position = "{584, 670}";
}
);
components = (
{
name = "ma-gurmukhi";
transform = "{1, 0, 0, 1, 1, 0}";
}
);
layerId = "5F4BB537-F6D4-41E2-86C5-F7A1868B70F1";
paths = (
{
closed = 1;
nodes = (
"655 530 LINE",
"655 694 LINE",
"0 694 LINE",
"0 530 LINE"
);
}
);
width = 748;
}
);
leftMetricsKey = "ma-gurmukhi";
rightMetricsKey = "ma-gurmukhi";
unicode = 0A38;
},
{
glyphname = "ha-gurmukhi";
layers = (
{
anchors = (
{
name = bindu;
position = "{461, 680}";
},
{
name = bottom;
position = "{372, 0}";
},
{
name = candra;
position = "{461, 690}";
},
{
name = caret_1;
position = "{399, 30}";
},
{
name = nukta;
position = "{44, -36}";
},
{
name = top;
position = "{491, 670}";
}
);
layerId = "5F4BB537-F6D4-41E2-86C5-F7A1868B70F1";
paths = (
{
closed = 1;
nodes = (
"496 -18 OFFCURVE",
"606 46 OFFCURVE",
"606 179 CURVE",
"606 614 LINE",
"385 614 LINE",
"386 201 LINE",
"386 168 OFFCURVE",
"381 146 OFFCURVE",
"342 146 CURVE SMOOTH",
"298 146 OFFCURVE",
"240 175 OFFCURVE",
"240 236 CURVE SMOOTH",
"240 270 OFFCURVE",
"258 288 OFFCURVE",
"340 288 CURVE",
"319 452 LINE",
"113 452 OFFCURVE",
"16 390 OFFCURVE",
"16 270 CURVE SMOOTH",
"16 102 OFFCURVE",
"207 -18 OFFCURVE",
"374 -18 CURVE SMOOTH"
);
},
{
closed = 1;
nodes = (
"661 530 LINE",
"661 694 LINE",
"0 694 LINE",
"0 530 LINE"
);
}
);
width = 661;
}
);
rightMetricsKey = "STEM-GURM";
unicode = 0A39;
},
{
glyphname = "rra-gurmukhi";
layers = (
{
anchors = (
{
name = bindu;
position = "{473, 680}";
},
{
name = bottom;
position = "{334, 22}";
},
{
name = candra;
position = "{473, 690}";
},
{
name = caret_1;
position = "{334, 66}";
},
{
name = top;
position = "{453, 670}";
}
);
layerId = "5F4BB537-F6D4-41E2-86C5-F7A1868B70F1";
paths = (
{
closed = 1;
nodes = (
"212 0 LINE",
"212 31 LINE SMOOTH",
"212 55 OFFCURVE",
"223 65 OFFCURVE",
"245 65 CURVE SMOOTH",
"279 65 OFFCURVE",
"291 41 OFFCURVE",
"357 41 CURVE SMOOTH",
"381 41 OFFCURVE",
"410 44 OFFCURVE",
"442 57 CURVE",
"339 74 LINE",
"383 2 LINE",
"572 0 LINE",
"574 19 LINE",
"500 143 LINE",
"497 74 LINE",
"551 111 OFFCURVE",
"581 160 OFFCURVE",
"581 213 CURVE SMOOTH",
"581 271 OFFCURVE",
"545 331 OFFCURVE",
"471 368 CURVE",
"483 331 LINE",
"545 381 OFFCURVE",
"560 446 OFFCURVE",
"560 532 CURVE",
"560 556 LINE",
"339 556 LINE",
"339 533 LINE",
"339 479 OFFCURVE",
"336 452 OFFCURVE",
"300 439 CURVE",
"357 438 LINE",
"312 463 OFFCURVE",
"255 473 OFFCURVE",
"198 473 CURVE SMOOTH",
"147 473 OFFCURVE",
"97 465 OFFCURVE",
"63 452 CURVE",
"76 291 LINE",
"115 277 OFFCURVE",
"160 271 OFFCURVE",
"211 271 CURVE SMOOTH",
"269 271 OFFCURVE",
"330 279 OFFCURVE",
"389 295 CURVE",
"326 298 LINE",
"341 292 OFFCURVE",
"367 265 OFFCURVE",
"367 235 CURVE SMOOTH",
"367 215 OFFCURVE",
"356 190 OFFCURVE",
"324 190 CURVE SMOOTH",
"286 190 OFFCURVE",
"272 227 OFFCURVE",
"195 227 CURVE SMOOTH",
"92 227 OFFCURVE",
"19 161 OFFCURVE",
"19 44 CURVE SMOOTH",
"19 0 LINE"
);
},
{
closed = 1;
nodes = (
"608 530 LINE",
"608 694 LINE",
"0 694 LINE",
"0 530 LINE"
);
}
);
width = 608;
}
);
leftMetricsKey = "ta-gurmukhi";
rightMetricsKey = "ta-gurmukhi";
unicode = 0A5C;
},
{
glyphname = "iri-gurmukhi";
layers = (
{
anchors = (
{
name = bindu;
position = "{453, 680}";
},
{
name = bottom;
position = "{410, 2}";
},
{
name = candra;
position = "{453, 690}";
},
{
name = caret_1;
position = "{412, 30}";
},
{
name = nukta;
position = "{113, -65}";
},
{
name = top;
position = "{483, 670}";
}
);
layerId = "5F4BB537-F6D4-41E2-86C5-F7A1868B70F1";
paths = (
{
closed = 1;
nodes = (
"481 -18 OFFCURVE",
"554 -3 OFFCURVE",
"620 27 CURVE",
"577 182 LINE",
"523 164 OFFCURVE",
"449 146 OFFCURVE",
"380 146 CURVE SMOOTH",
"310 146 OFFCURVE",
"246 165 OFFCURVE",
"214 219 CURVE",
"219 176 LINE",
"273 245 OFFCURVE",
"378 274 OFFCURVE",
"536 274 CURVE SMOOTH",
"599 274 LINE",
"599 613 LINE",
"377 613 LINE",
"377 380 LINE",
"428 432 LINE",
"396 432 LINE",
"292 432 OFFCURVE",
"249 489 OFFCURVE",
"245 558 CURVE",
"24 566 LINE",
"24 485 OFFCURVE",
"83 404 OFFCURVE",
"186 356 CURVE",
"182 388 LINE",
"124 345 OFFCURVE",
"60 302 OFFCURVE",
"16 238 CURVE",
"72 50 OFFCURVE",
"262 -18 OFFCURVE",
"411 -18 CURVE SMOOTH"
);
},
{
closed = 1;
nodes = (
"653 530 LINE",
"653 694 LINE",
"-26 694 LINE",
"-26 530 LINE"
);
}
);
width = 653;
}
);
rightMetricsKey = "STEM-GURM";
unicode = 0A72;
},
{
glyphname = "ura-gurmukhi";
layers = (
{
anchors = (
{
name = bindu;
position = "{723, 680}";
},
{
name = bottom;
position = "{421, 2}";
},
{
name = candra;
position = "{869, 650}";
},
{
name = caret_1;
position = "{423, 30}";
},
{
name = nukta;
position = "{92, -24}";
}
);
layerId = "5F4BB537-F6D4-41E2-86C5-F7A1868B70F1";
paths = (
{
closed = 1;
nodes = (
"577 -18 OFFCURVE",
"663 66 OFFCURVE",
"663 154 CURVE SMOOTH",
"663 231 OFFCURVE",
"597 319 OFFCURVE",
"466 360 CURVE",
"472 279 LINE",
"639 353 OFFCURVE",
"669 449 OFFCURVE",
"669 573 CURVE SMOOTH",
"669 800 OFFCURVE",
"529 963 OFFCURVE",
"325 963 CURVE SMOOTH",
"164 963 OFFCURVE",
"33 850 OFFCURVE",
"33 545 CURVE SMOOTH",
"33 277 OFFCURVE",
"133 -18 OFFCURVE",
"420 -18 CURVE SMOOTH"
);
},
{
closed = 1;
nodes = (
"256 148 OFFCURVE",
"243 384 OFFCURVE",
"243 528 CURVE SMOOTH",
"243 708 OFFCURVE",
"275 797 OFFCURVE",
"349 797 CURVE SMOOTH",
"413 797 OFFCURVE",
"455 737 OFFCURVE",
"455 604 CURVE SMOOTH",
"455 492 OFFCURVE",
"430 423 OFFCURVE",
"267 423 CURVE SMOOTH",
"157 423 LINE",
"157 280 LINE",
"338 280 LINE SMOOTH",
"398 280 OFFCURVE",
"445 231 OFFCURVE",
"445 192 CURVE SMOOTH",
"445 172 OFFCURVE",
"435 148 OFFCURVE",
"391 148 CURVE SMOOTH"
);
},
{
closed = 1;
nodes = (
"720 530 LINE",
"720 694 LINE",
"-26 694 LINE",
"-26 530 LINE"
);
}
);
width = 694;
}
);
unicode = 0A73;
},
{
glyphname = "ekonkar-gurmukhi";
layers = (
{
layerId = "5F4BB537-F6D4-41E2-86C5-F7A1868B70F1";
paths = (
{
closed = 1;
nodes = (
"1220 -18 OFFCURVE",
"1307 66 OFFCURVE",
"1307 158 CURVE SMOOTH",
"1307 224 OFFCURVE",
"1262 297 OFFCURVE",
"1171 347 CURVE",
"1174 307 LINE",
"1278 377 OFFCURVE",
"1308 455 OFFCURVE",
"1313 548 CURVE",
"1095 547 LINE",
"1082 469 OFFCURVE",
"1037 427 OFFCURVE",
"911 427 CURVE SMOOTH",
"869 427 LINE",
"894 284 LINE",
"982 284 LINE SMOOTH",
"1042 284 OFFCURVE",
"1089 235 OFFCURVE",
"1089 193 CURVE SMOOTH",
"1089 173 OFFCURVE",
"1078 148 OFFCURVE",
"1035 148 CURVE SMOOTH",
"901 148 OFFCURVE",
"887 393 OFFCURVE",
"887 528 CURVE SMOOTH",
"887 730 OFFCURVE",
"918 893 OFFCURVE",
"1222 893 CURVE",
"1070 931 LINE",
"1093 845 OFFCURVE",
"1204 803 OFFCURVE",
"1309 803 CURVE SMOOTH",
"1342 803 OFFCURVE",
"1374 807 OFFCURVE",
"1402 815 CURVE",
"1470 938 LINE",
"1384 999 OFFCURVE",
"1244 1052 OFFCURVE",
"1194 1049 CURVE",
"1218 1031 LINE",
"1218 1086 OFFCURVE",
"1271 1140 OFFCURVE",
"1352 1140 CURVE SMOOTH",
"1417 1140 OFFCURVE",
"1509 1105 OFFCURVE",
"1570 1028 CURVE",
"1713 1102 LINE",
"1622 1237 OFFCURVE",
"1467 1296 OFFCURVE",
"1342 1296 CURVE SMOOTH",
"1162 1296 OFFCURVE",
"1044 1174 OFFCURVE",
"1044 1047 CURVE",
"1044 1035 LINE",
"1147 1052 LINE",
"868 1052 OFFCURVE",
"677 912 OFFCURVE",
"677 541 CURVE SMOOTH",
"677 281 OFFCURVE",
"771 -18 OFFCURVE",
"1064 -18 CURVE SMOOTH"
);
},
{
closed = 1;
nodes = (
"694 130 LINE",
"656 140 OFFCURVE",
"634 169 OFFCURVE",
"634 205 CURVE SMOOTH",
"634 368 LINE SMOOTH",
"634 599 OFFCURVE",
"472 715 OFFCURVE",
"299 715 CURVE SMOOTH",
"127 715 OFFCURVE",
"38 600 OFFCURVE",
"38 478 CURVE SMOOTH",
"38 347 OFFCURVE",
"142 210 OFFCURVE",
"338 210 CURVE SMOOTH",
"371 210 OFFCURVE",
"409 214 OFFCURVE",
"448 223 CURVE",
"419 266 LINE",
"419 219 LINE",
"419 81 OFFCURVE",
"518 0 OFFCURVE",
"635 -24 CURVE"
);
},
{
closed = 1;
nodes = (
"1367 530 LINE",
"1367 694 LINE",
"867 694 LINE",
"867 530 LINE"
);
},
{
closed = 1;
nodes = (
"273 375 OFFCURVE",
"243 418 OFFCURVE",
"243 462 CURVE SMOOTH",
"243 504 OFFCURVE",
"272 547 OFFCURVE",
"330 547 CURVE SMOOTH",
"389 547 OFFCURVE",
"419 502 OFFCURVE",
"419 458 CURVE SMOOTH",
"419 416 OFFCURVE",
"391 375 OFFCURVE",
"333 375 CURVE SMOOTH"
);
}
);
width = 1499;
}
);
leftMetricsKey = "one-gurmukhi";
unicode = 0A74;
},
{
glyphname = "ya-gurmukhi.post";
layers = (
{
anchors = (
{
name = bindu;
position = "{404, 680}";
},
{
name = bottom;
position = "{438, 0}";
},
{
name = candra;
position = "{404, 690}";
},
{
name = caret_1;
position = "{118, 30}";
},
{
name = nukta;
position = "{117, -30}";
},
{
name = top;
position = "{434, 670}";
}
);
layerId = "5F4BB537-F6D4-41E2-86C5-F7A1868B70F1";
paths = (
{
closed = 1;
nodes = (
"44 76 LINE SMOOTH",
"199 76 OFFCURVE",
"297 141 OFFCURVE",
"297 269 CURVE SMOOTH",
"297 297 LINE",
"242 256 LINE",
"348 256 LINE",
"348 420 LINE",
"91 420 LINE",
"91 297 LINE SMOOTH",
"91 249 OFFCURVE",
"59 237 OFFCURVE",
"33 237 CURVE SMOOTH",
"-69 237 LINE",
"-69 76 LINE"
);
},
{
closed = 1;
nodes = (
"352 530 LINE",
"352 694 LINE",
"-40 694 LINE",
"-40 530 LINE"
);
},
{
closed = 1;
nodes = (
"547 0 LINE",
"547 611 LINE",
"491 530 LINE",
"601 530 LINE",
"601 694 LINE",
"325 694 LINE",
"325 0 LINE"
);
}
);
width = 601;
}
);
rightMetricsKey = "STEM-GURM";
},
{
glyphname = "ekonkar-gurmukhi.ss01";
layers = (
{
layerId = "5F4BB537-F6D4-41E2-86C5-F7A1868B70F1";
paths = (
{
closed = 1;
nodes = (
"1095 547 LINE",
"1082 469 OFFCURVE",
"1037 427 OFFCURVE",
"911 427 CURVE SMOOTH",
"869 427 LINE",
"894 284 LINE",
"982 284 LINE SMOOTH",
"1042 284 OFFCURVE",
"1089 235 OFFCURVE",
"1089 194 CURVE SMOOTH",
"1089 173 OFFCURVE",
"1079 148 OFFCURVE",
"1034 148 CURVE SMOOTH",
"894 148 OFFCURVE",
"887 418 OFFCURVE",
"887 513 CURVE SMOOTH",
"887 707 OFFCURVE",
"924 890 OFFCURVE",
"1177 890 CURVE",
"1165 897 LINE",
"1211 813 OFFCURVE",
"1302 786 OFFCURVE",
"1381 786 CURVE SMOOTH",
"1422 786 OFFCURVE",
"1459 793 OFFCURVE",
"1486 803 CURVE",
"1554 927 LINE",
"1482 977 OFFCURVE",
"1394 1017 OFFCURVE",
"1301 1037 CURVE",
"1302 1223 OFFCURVE",
"1445 1356 OFFCURVE",
"1668 1356 CURVE SMOOTH",
"1760 1356 OFFCURVE",
"1882 1336 OFFCURVE",
"2008 1286 CURVE",
"2084 1406 LINE",
"1943 1482 OFFCURVE",
"1789 1516 OFFCURVE",
"1655 1516 CURVE SMOOTH",
"1355 1516 OFFCURVE",
"1128 1332 OFFCURVE",
"1128 1059 CURVE",
"1128 1006 LINE",
"1165 1052 LINE",
"876 1052 OFFCURVE",
"677 915 OFFCURVE",
"677 527 CURVE SMOOTH",
"677 285 OFFCURVE",
"771 -18 OFFCURVE",
"1065 -18 CURVE SMOOTH",
"1220 -18 OFFCURVE",
"1307 67 OFFCURVE",
"1307 157 CURVE SMOOTH",
"1307 224 OFFCURVE",
"1262 297 OFFCURVE",
"1171 347 CURVE",
"1174 307 LINE",
"1278 377 OFFCURVE",
"1308 455 OFFCURVE",
"1313 548 CURVE"
);
},
{
closed = 1;
nodes = (
"1368 530 LINE",
"1368 694 LINE",
"869 694 LINE",
"868 530 LINE"
);
},
{
closed = 1;
nodes = (
"694 130 LINE",
"656 140 OFFCURVE",
"634 169 OFFCURVE",
"634 205 CURVE SMOOTH",
"634 368 LINE SMOOTH",
"634 599 OFFCURVE",
"472 715 OFFCURVE",
"299 715 CURVE SMOOTH",
"127 715 OFFCURVE",
"38 600 OFFCURVE",
"38 478 CURVE SMOOTH",
"38 347 OFFCURVE",
"142 210 OFFCURVE",
"338 210 CURVE SMOOTH",
"371 210 OFFCURVE",
"409 214 OFFCURVE",
"448 223 CURVE",
"419 266 LINE",
"419 219 LINE",
"419 81 OFFCURVE",
"518 0 OFFCURVE",
"635 -24 CURVE"
);
},
{
closed = 1;
nodes = (
"273 375 OFFCURVE",
"243 418 OFFCURVE",
"243 462 CURVE SMOOTH",
"243 504 OFFCURVE",
"272 547 OFFCURVE",
"330 547 CURVE SMOOTH",
"389 547 OFFCURVE",
"419 502 OFFCURVE",
"419 458 CURVE SMOOTH",
"419 416 OFFCURVE",
"391 375 OFFCURVE",
"333 375 CURVE SMOOTH"
);
}
);
width = 1499;
}
);
leftMetricsKey = "one-gurmukhi";
},
{
glyphname = zero;
layers = (
{
layerId = "5F4BB537-F6D4-41E2-86C5-F7A1868B70F1";
paths = (
{
closed = 1;
nodes = (
"125 708 OFFCURVE",
"25 581 OFFCURVE",
"25 351 CURVE SMOOTH",
"25 121 OFFCURVE",
"125 -6 OFFCURVE",
"309 -6 CURVE SMOOTH",
"491 -6 OFFCURVE",
"592 121 OFFCURVE",
"592 351 CURVE SMOOTH",
"592 581 OFFCURVE",
"491 708 OFFCURVE",
"309 708 CURVE SMOOTH"
);
},
{
closed = 1;
nodes = (
"358 552 OFFCURVE",
"373 499 OFFCURVE",
"373 351 CURVE SMOOTH",
"373 204 OFFCURVE",
"358 150 OFFCURVE",
"309 150 CURVE SMOOTH",
"259 150 OFFCURVE",
"244 204 OFFCURVE",
"244 351 CURVE SMOOTH",
"244 499 OFFCURVE",
"259 552 OFFCURVE",
"309 552 CURVE SMOOTH"
);
}
);
width = 617;
}
);
note = zero;
unicode = 0030;
},
{
glyphname = one;
layers = (
{
layerId = "5F4BB537-F6D4-41E2-86C5-F7A1868B70F1";
paths = (
{
closed = 1;
nodes = (
"436 0 LINE",
"436 701 LINE",
"82 701 LINE",
"82 518 LINE",
"204 518 LINE",
"204 0 LINE"
);
}
);
width = 617;
}
);
note = one;
unicode = 0031;
},
{
glyphname = two;
layers = (
{
layerId = "5F4BB537-F6D4-41E2-86C5-F7A1868B70F1";
paths = (
{
closed = 1;
nodes = (
"216 712 OFFCURVE",
"113 671 OFFCURVE",
"13 602 CURVE",
"99 435 LINE",
"167 490 OFFCURVE",
"237 525 OFFCURVE",
"290 525 CURVE SMOOTH",
"321 525 OFFCURVE",
"338 512 OFFCURVE",
"338 488 CURVE SMOOTH",
"338 464 OFFCURVE",
"314 429 OFFCURVE",
"285 399 CURVE SMOOTH",
"40 146 LINE",
"41 0 LINE",
"591 0 LINE",
"591 178 LINE",
"335 178 LINE",
"443 285 LINE SMOOTH",
"522 363 OFFCURVE",
"581 441 OFFCURVE",
"581 522 CURVE SMOOTH",
"581 636 OFFCURVE",
"471 712 OFFCURVE",
"326 712 CURVE SMOOTH"
);
}
);
width = 617;
}
);
note = two;
unicode = 0032;
},
{
glyphname = three;
layers = (
{
layerId = "5F4BB537-F6D4-41E2-86C5-F7A1868B70F1";
paths = (
{
closed = 1;
nodes = (
"389 425 LINE",
"552 570 LINE",
"552 700 LINE",
"40 700 LINE",
"40 532 LINE",
"278 532 LINE",
"145 404 LINE",
"145 284 LINE",
"276 284 LINE SMOOTH",
"331 284 OFFCURVE",
"359 263 OFFCURVE",
"359 222 CURVE SMOOTH",
"359 181 OFFCURVE",
"331 161 OFFCURVE",
"276 161 CURVE SMOOTH",
"211 161 OFFCURVE",
"150 194 OFFCURVE",
"94 259 CURVE",
"2 83 LINE",
"73 27 OFFCURVE",
"186 -10 OFFCURVE",
"295 -10 CURVE SMOOTH",
"472 -10 OFFCURVE",
"586 86 OFFCURVE",
"586 223 CURVE SMOOTH",
"586 328 OFFCURVE",
"517 397 OFFCURVE",
"421 418 CURVE SMOOTH"
);
}
);
width = 617;
}
);
note = three;
unicode = 0033;
},
{
glyphname = four;
layers = (
{
layerId = "5F4BB537-F6D4-41E2-86C5-F7A1868B70F1";
paths = (
{
closed = 1;
nodes = (
"204 702 LINE",
"24 286 LINE",
"24 136 LINE",
"323 136 LINE",
"323 0 LINE",
"534 0 LINE",
"534 136 LINE",
"614 136 LINE",
"614 301 LINE",
"534 301 LINE",
"534 436 LINE",
"323 436 LINE",
"323 301 LINE",
"255 301 LINE",
"422 702 LINE"
);
}
);
width = 617;
}
);
note = four;
unicode = 0034;
},
{
glyphname = five;
layers = (
{
layerId = "5F4BB537-F6D4-41E2-86C5-F7A1868B70F1";
paths = (
{
closed = 1;
nodes = (
"69 702 LINE",
"69 281 LINE",
"109 281 OFFCURVE",
"236 281 OFFCURVE",
"267 281 CURVE SMOOTH",
"318 281 OFFCURVE",
"343 261 OFFCURVE",
"343 223 CURVE SMOOTH",
"343 182 OFFCURVE",
"318 161 OFFCURVE",
"267 161 CURVE SMOOTH",
"204 161 OFFCURVE",
"147 194 OFFCURVE",
"96 259 CURVE",
"4 83 LINE",
"82 27 OFFCURVE",
"195 -10 OFFCURVE",
"295 -10 CURVE SMOOTH",
"476 -10 OFFCURVE",
"593 88 OFFCURVE",
"593 239 CURVE SMOOTH",
"593 367 OFFCURVE",
"483 450 OFFCURVE",
"313 450 CURVE SMOOTH",
"309 450 OFFCURVE",
"285 450 OFFCURVE",
"281 450 CURVE",
"281 524 LINE",
"560 524 LINE",
"560 702 LINE"
);
}
);
width = 617;
}
);
note = five;
unicode = 0035;
},
{
glyphname = six;
layers = (
{
layerId = "5F4BB537-F6D4-41E2-86C5-F7A1868B70F1";
paths = (
{
closed = 1;
nodes = (
"160 711 OFFCURVE",
"29 566 OFFCURVE",
"29 342 CURVE SMOOTH",
"29 127 OFFCURVE",
"145 -10 OFFCURVE",
"337 -10 CURVE SMOOTH",
"496 -10 OFFCURVE",
"603 86 OFFCURVE",
"603 236 CURVE SMOOTH",
"603 374 OFFCURVE",
"515 467 OFFCURVE",
"382 467 CURVE SMOOTH",
"315 467 OFFCURVE",
"269 443 OFFCURVE",
"239 410 CURVE",
"239 496 OFFCURVE",
"285 542 OFFCURVE",
"373 542 CURVE SMOOTH",
"427 542 OFFCURVE",
"473 526 OFFCURVE",
"510 496 CURVE",
"594 650 LINE",
"535 688 OFFCURVE",
"444 711 OFFCURVE",
"360 711 CURVE SMOOTH"
);
},
{
closed = 1;
nodes = (
"375 307 OFFCURVE",
"398 282 OFFCURVE",
"398 237 CURVE SMOOTH",
"398 190 OFFCURVE",
"374 166 OFFCURVE",
"329 166 CURVE SMOOTH",
"282 166 OFFCURVE",
"259 192 OFFCURVE",
"259 236 CURVE SMOOTH",
"259 281 OFFCURVE",
"283 307 OFFCURVE",
"330 307 CURVE SMOOTH"
);
}
);
width = 617;
}
);
note = six;
unicode = 0036;
},
{
glyphname = seven;
layers = (
{
layerId = "5F4BB537-F6D4-41E2-86C5-F7A1868B70F1";
paths = (
{
closed = 1;
nodes = (
"29 702 LINE",
"29 426 LINE",
"233 426 LINE",
"233 524 LINE",
"353 524 LINE",
"122 0 LINE",
"367 0 LINE",
"608 547 LINE",
"608 702 LINE"
);
}
);
width = 617;
}
);
note = seven;
unicode = 0037;
},
{
glyphname = eight;
layers = (
{
layerId = "5F4BB537-F6D4-41E2-86C5-F7A1868B70F1";
paths = (
{
closed = 1;
nodes = (
"153 712 OFFCURVE",
"52 638 OFFCURVE",
"52 523 CURVE SMOOTH",
"52 470 OFFCURVE",
"84 412 OFFCURVE",
"133 376 CURVE",
"62 341 OFFCURVE",
"15 270 OFFCURVE",
"15 195 CURVE SMOOTH",
"15 71 OFFCURVE",
"131 -10 OFFCURVE",
"308 -10 CURVE SMOOTH",
"486 -10 OFFCURVE",
"602 72 OFFCURVE",
"602 199 CURVE SMOOTH",
"602 272 OFFCURVE",
"560 341 OFFCURVE",
"495 376 CURVE",
"538 408 OFFCURVE",
"565 463 OFFCURVE",
"565 516 CURVE SMOOTH",
"565 635 OFFCURVE",
"464 712 OFFCURVE",
"307 712 CURVE SMOOTH"
);
},
{
closed = 1;
nodes = (
"359 285 OFFCURVE",
"386 262 OFFCURVE",
"386 219 CURVE SMOOTH",
"386 177 OFFCURVE",
"359 155 OFFCURVE",
"308 155 CURVE SMOOTH",
"258 155 OFFCURVE",
"232 177 OFFCURVE",
"232 219 CURVE SMOOTH",
"232 262 OFFCURVE",
"258 285 OFFCURVE",
"309 285 CURVE SMOOTH"
);
},
{
closed = 1;
nodes = (
"351 562 OFFCURVE",
"373 542 OFFCURVE",
"373 504 CURVE SMOOTH",
"373 468 OFFCURVE",
"351 450 OFFCURVE",
"308 450 CURVE SMOOTH",
"266 450 OFFCURVE",
"244 468 OFFCURVE",
"244 504 CURVE SMOOTH",
"244 542 OFFCURVE",
"266 562 OFFCURVE",
"308 562 CURVE SMOOTH"
);
}
);
width = 617;
}
);
note = eight;
unicode = 0038;
},
{
glyphname = nine;
layers = (
{
layerId = "5F4BB537-F6D4-41E2-86C5-F7A1868B70F1";
paths = (
{
closed = 1;
nodes = (
"458 -10 OFFCURVE",
"588 136 OFFCURVE",
"588 360 CURVE SMOOTH",
"588 575 OFFCURVE",
"472 711 OFFCURVE",
"281 711 CURVE SMOOTH",
"121 711 OFFCURVE",
"15 616 OFFCURVE",
"15 466 CURVE SMOOTH",
"15 328 OFFCURVE",
"102 234 OFFCURVE",
"235 234 CURVE SMOOTH",
"302 234 OFFCURVE",
"348 259 OFFCURVE",
"378 292 CURVE",
"378 206 OFFCURVE",
"333 160 OFFCURVE",
"243 160 CURVE SMOOTH",
"190 160 OFFCURVE",
"144 175 OFFCURVE",
"107 206 CURVE",
"23 52 LINE",
"83 14 OFFCURVE",
"174 -10 OFFCURVE",
"256 -10 CURVE SMOOTH"
);
},
{
closed = 1;
nodes = (
"242 395 OFFCURVE",
"220 420 OFFCURVE",
"220 465 CURVE SMOOTH",
"220 512 OFFCURVE",
"243 536 OFFCURVE",
"288 536 CURVE SMOOTH",
"335 536 OFFCURVE",
"358 510 OFFCURVE",
"358 466 CURVE SMOOTH",
"358 421 OFFCURVE",
"334 395 OFFCURVE",
"287 395 CURVE SMOOTH"
);
}
);
width = 617;
}
);
note = nine;
unicode = 0039;
},
{
glyphname = zero.lf;
layers = (
{
layerId = "5F4BB537-F6D4-41E2-86C5-F7A1868B70F1";
paths = (
{
closed = 1;
nodes = (
"149 708 OFFCURVE",
"35 581 OFFCURVE",
"35 351 CURVE SMOOTH",
"35 121 OFFCURVE",
"149 -7 OFFCURVE",
"357 -7 CURVE SMOOTH",
"563 -7 OFFCURVE",
"678 121 OFFCURVE",
"678 351 CURVE SMOOTH",
"678 581 OFFCURVE",
"563 708 OFFCURVE",
"357 708 CURVE SMOOTH"
);
},
{
closed = 1;
nodes = (
"419 540 OFFCURVE",
"440 493 OFFCURVE",
"440 351 CURVE SMOOTH",
"440 209 OFFCURVE",
"419 161 OFFCURVE",
"357 161 CURVE SMOOTH",
"294 161 OFFCURVE",
"273 209 OFFCURVE",
"273 351 CURVE SMOOTH",
"273 493 OFFCURVE",
"294 540 OFFCURVE",
"357 540 CURVE SMOOTH"
);
}
);
width = 713;
}
);
},
{
glyphname = one.lf;
layers = (
{
layerId = "5F4BB537-F6D4-41E2-86C5-F7A1868B70F1";
paths = (
{
closed = 1;
nodes = (
"356 0 LINE",
"356 701 LINE",
"2 701 LINE",
"2 518 LINE",
"124 518 LINE",
"124 0 LINE"
);
}
);
width = 435;
}
);
},
{
glyphname = two.lf;
layers = (
{
layerId = "5F4BB537-F6D4-41E2-86C5-F7A1868B70F1";
paths = (
{
closed = 1;
nodes = (
"213 711 OFFCURVE",
"111 670 OFFCURVE",
"11 601 CURVE",
"97 434 LINE",
"165 489 OFFCURVE",
"234 524 OFFCURVE",
"287 524 CURVE SMOOTH",
"317 524 OFFCURVE",
"333 511 OFFCURVE",
"333 487 CURVE SMOOTH",
"333 463 OFFCURVE",
"310 428 OFFCURVE",
"282 398 CURVE SMOOTH",
"39 145 LINE",
"39 0 LINE",
"586 0 LINE",
"586 178 LINE",
"334 178 LINE",
"440 284 LINE SMOOTH",
"518 362 OFFCURVE",
"576 440 OFFCURVE",
"576 521 CURVE SMOOTH",
"576 635 OFFCURVE",
"467 711 OFFCURVE",
"323 711 CURVE SMOOTH"
);
}
);
width = 610;
}
);
},
{
glyphname = three.lf;
layers = (
{
layerId = "5F4BB537-F6D4-41E2-86C5-F7A1868B70F1";
paths = (
{
closed = 1;
nodes = (
"373 424 LINE",
"524 569 LINE",
"524 699 LINE",
"30 699 LINE",
"30 531 LINE",
"263 531 LINE SMOOTH",
"130 404 LINE",
"130 283 LINE",
"257 283 LINE SMOOTH",
"305 283 OFFCURVE",
"329 263 OFFCURVE",
"329 222 CURVE SMOOTH",
"329 181 OFFCURVE",
"305 161 OFFCURVE",
"257 161 CURVE SMOOTH",
"196 161 OFFCURVE",
"138 194 OFFCURVE",
"85 259 CURVE",
"-7 83 LINE",
"61 27 OFFCURVE",
"171 -10 OFFCURVE",
"276 -10 CURVE SMOOTH",
"446 -10 OFFCURVE",
"556 86 OFFCURVE",
"556 223 CURVE SMOOTH",
"556 328 OFFCURVE",
"491 396 OFFCURVE",
"403 417 CURVE SMOOTH"
);
}
);
width = 575;
}
);
},
{
glyphname = four.lf;
layers = (
{
layerId = "5F4BB537-F6D4-41E2-86C5-F7A1868B70F1";
paths = (
{
closed = 1;
nodes = (
"230 701 LINE",
"25 287 LINE",
"25 135 LINE",
"355 135 LINE",
"355 0 LINE",
"570 0 LINE",
"570 135 LINE",
"659 135 LINE",
"659 301 LINE",
"570 301 LINE",
"570 435 LINE",
"355 435 LINE",
"355 301 LINE",
"260 301 LINE",
"451 701 LINE"
);
}
);
width = 664;
}
);
},
{
glyphname = five.lf;
layers = (
{
layerId = "5F4BB537-F6D4-41E2-86C5-F7A1868B70F1";
paths = (
{
closed = 1;
nodes = (
"67 701 LINE",
"67 280 LINE",
"107 280 OFFCURVE",
"233 280 OFFCURVE",
"264 280 CURVE SMOOTH",
"314 280 OFFCURVE",
"339 261 OFFCURVE",
"339 223 CURVE SMOOTH",
"339 182 OFFCURVE",
"314 161 OFFCURVE",
"264 161 CURVE SMOOTH",
"202 161 OFFCURVE",
"145 194 OFFCURVE",
"95 259 CURVE",
"3 83 LINE",
"80 27 OFFCURVE",
"193 -10 OFFCURVE",
"292 -10 CURVE SMOOTH",
"472 -10 OFFCURVE",
"589 88 OFFCURVE",
"589 239 CURVE SMOOTH",
"589 367 OFFCURVE",
"479 449 OFFCURVE",
"310 449 CURVE SMOOTH",
"306 449 OFFCURVE",
"283 449 OFFCURVE",
"279 449 CURVE",
"279 523 LINE",
"556 523 LINE",
"556 701 LINE"
);
}
);
width = 611;
}
);
},
{
glyphname = six.lf;
layers = (
{
layerId = "5F4BB537-F6D4-41E2-86C5-F7A1868B70F1";
paths = (
{
closed = 1;
nodes = (
"170 711 OFFCURVE",
"35 566 OFFCURVE",
"35 343 CURVE SMOOTH",
"35 128 OFFCURVE",
"155 -10 OFFCURVE",
"353 -10 CURVE SMOOTH",
"518 -10 OFFCURVE",
"628 86 OFFCURVE",
"628 237 CURVE SMOOTH",
"628 374 OFFCURVE",
"538 468 OFFCURVE",
"401 468 CURVE SMOOTH",
"333 468 OFFCURVE",
"286 445 OFFCURVE",
"256 416 CURVE",
"256 494 OFFCURVE",
"302 533 OFFCURVE",
"392 533 CURVE SMOOTH",
"447 533 OFFCURVE",
"494 518 OFFCURVE",
"532 487 CURVE",
"620 649 LINE",
"559 687 OFFCURVE",
"464 711 OFFCURVE",
"378 711 CURVE SMOOTH"
);
},
{
closed = 1;
nodes = (
"391 300 OFFCURVE",
"413 279 OFFCURVE",
"413 238 CURVE SMOOTH",
"413 195 OFFCURVE",
"390 174 OFFCURVE",
"345 174 CURVE SMOOTH",
"299 174 OFFCURVE",
"276 195 OFFCURVE",
"276 237 CURVE SMOOTH",
"276 279 OFFCURVE",
"300 300 OFFCURVE",
"346 300 CURVE SMOOTH"
);
}
);
width = 648;
}
);
leftMetricsKey = zero.lf;
},
{
glyphname = seven.lf;
layers = (
{
layerId = "5F4BB537-F6D4-41E2-86C5-F7A1868B70F1";
paths = (
{
closed = 1;
nodes = (
"29 701 LINE",
"29 425 LINE",
"233 425 LINE",
"233 523 LINE",
"353 523 LINE",
"122 0 LINE",
"367 0 LINE",
"608 546 LINE",
"608 701 LINE"
);
}
);
width = 617;
}
);
},
{
glyphname = eight.lf;
layers = (
{
layerId = "5F4BB537-F6D4-41E2-86C5-F7A1868B70F1";
paths = (
{
closed = 1;
nodes = (
"167 711 OFFCURVE",
"63 637 OFFCURVE",
"63 522 CURVE SMOOTH",
"63 469 OFFCURVE",
"97 411 OFFCURVE",
"149 375 CURVE",
"74 341 OFFCURVE",
"25 270 OFFCURVE",
"25 195 CURVE SMOOTH",
"25 71 OFFCURVE",
"144 -10 OFFCURVE",
"328 -10 CURVE SMOOTH",
"512 -10 OFFCURVE",
"631 72 OFFCURVE",
"631 199 CURVE SMOOTH",
"631 272 OFFCURVE",
"587 341 OFFCURVE",
"519 375 CURVE",
"564 407 OFFCURVE",
"593 462 OFFCURVE",
"593 515 CURVE SMOOTH",
"593 634 OFFCURVE",
"489 711 OFFCURVE",
"327 711 CURVE SMOOTH"
);
},
{
closed = 1;
nodes = (
"384 284 OFFCURVE",
"413 262 OFFCURVE",
"413 219 CURVE SMOOTH",
"413 177 OFFCURVE",
"384 156 OFFCURVE",
"328 156 CURVE SMOOTH",
"272 156 OFFCURVE",
"244 177 OFFCURVE",
"244 219 CURVE SMOOTH",
"244 262 OFFCURVE",
"272 284 OFFCURVE",
"328 284 CURVE SMOOTH"
);
},
{
closed = 1;
nodes = (
"375 560 OFFCURVE",
"399 541 OFFCURVE",
"399 503 CURVE SMOOTH",
"399 467 OFFCURVE",
"375 449 OFFCURVE",
"328 449 CURVE SMOOTH",
"281 449 OFFCURVE",
"257 467 OFFCURVE",
"257 503 CURVE SMOOTH",
"257 541 OFFCURVE",
"281 560 OFFCURVE",
"328 560 CURVE SMOOTH"
);
}
);
width = 656;
}
);
},
{
glyphname = zero.osf;
layers = (
{
layerId = "5F4BB537-F6D4-41E2-86C5-F7A1868B70F1";
paths = (
{
closed = 1;
nodes = (
"162 608 OFFCURVE",
"35 487 OFFCURVE",
"35 301 CURVE SMOOTH",
"35 114 OFFCURVE",
"162 -7 OFFCURVE",
"357 -7 CURVE SMOOTH",
"552 -7 OFFCURVE",
"678 114 OFFCURVE",
"678 301 CURVE SMOOTH",
"678 487 OFFCURVE",
"552 608 OFFCURVE",
"357 608 CURVE SMOOTH"
);
},
{
closed = 1;
nodes = (
"410 440 OFFCURVE",
"440 389 OFFCURVE",
"440 301 CURVE SMOOTH",
"440 212 OFFCURVE",
"410 161 OFFCURVE",
"357 161 CURVE SMOOTH",
"304 161 OFFCURVE",
"273 212 OFFCURVE",
"273 301 CURVE SMOOTH",
"273 389 OFFCURVE",
"304 440 OFFCURVE",
"357 440 CURVE SMOOTH"
);
}
);
width = 713;
}
);
},
{
glyphname = one.osf;
layers = (
{
layerId = "5F4BB537-F6D4-41E2-86C5-F7A1868B70F1";
paths = (
{
closed = 1;
nodes = (
"356 0 LINE",
"356 601 LINE",
"2 601 LINE",
"2 418 LINE",
"124 418 LINE",
"124 0 LINE"
);
}
);
width = 435;
}
);
},
{
glyphname = two.osf;
layers = (
{
layerId = "5F4BB537-F6D4-41E2-86C5-F7A1868B70F1";
paths = (
{
closed = 1;
nodes = (
"196 609 OFFCURVE",
"104 573 OFFCURVE",
"11 512 CURVE",
"96 345 LINE",
"158 392 OFFCURVE",
"217 423 OFFCURVE",
"261 423 CURVE SMOOTH",
"275 423 OFFCURVE",
"282 418 OFFCURVE",
"282 408 CURVE SMOOTH",
"282 393 OFFCURVE",
"265 370 OFFCURVE",
"247 351 CURVE SMOOTH",
"39 143 LINE",
"39 0 LINE",
"528 0 LINE",
"528 177 LINE",
"335 177 LINE",
"405 238 LINE",
"473 304 OFFCURVE",
"525 370 OFFCURVE",
"525 443 CURVE SMOOTH",
"525 542 OFFCURVE",
"426 609 OFFCURVE",
"298 609 CURVE SMOOTH"
);
}
);
width = 552;
}
);
leftMetricsKey = two.lf;
rightMetricsKey = two.lf;
},
{
glyphname = three.osf;
layers = (
{
layerId = "5F4BB537-F6D4-41E2-86C5-F7A1868B70F1";
paths = (
{
closed = 1;
nodes = (
"373 324 LINE",
"524 469 LINE",
"524 599 LINE",
"30 599 LINE",
"30 431 LINE",
"263 431 LINE SMOOTH",
"130 304 LINE",
"130 183 LINE",
"257 183 LINE SMOOTH",
"305 183 OFFCURVE",
"329 163 OFFCURVE",
"329 122 CURVE SMOOTH",
"329 81 OFFCURVE",
"305 61 OFFCURVE",
"257 61 CURVE SMOOTH",
"196 61 OFFCURVE",
"138 94 OFFCURVE",
"85 159 CURVE",
"-7 -17 LINE",
"61 -73 OFFCURVE",
"171 -110 OFFCURVE",
"276 -110 CURVE SMOOTH",
"446 -110 OFFCURVE",
"556 -14 OFFCURVE",
"556 123 CURVE SMOOTH",
"556 228 OFFCURVE",
"491 296 OFFCURVE",
"403 317 CURVE SMOOTH"
);
}
);
width = 575;
}
);
},
{
glyphname = four.osf;
layers = (
{
layerId = "5F4BB537-F6D4-41E2-86C5-F7A1868B70F1";
paths = (
{
closed = 1;
nodes = (
"230 601 LINE",
"25 187 LINE",
"25 35 LINE",
"355 35 LINE",
"355 -100 LINE",
"570 -100 LINE",
"570 35 LINE",
"659 35 LINE",
"659 201 LINE",
"570 201 LINE",
"570 335 LINE",
"355 335 LINE",
"355 201 LINE",
"260 201 LINE",
"451 601 LINE"
);
}
);
width = 664;
}
);
},
{
glyphname = five.osf;
layers = (
{
layerId = "5F4BB537-F6D4-41E2-86C5-F7A1868B70F1";
paths = (
{
closed = 1;
nodes = (
"67 601 LINE",
"67 180 LINE",
"107 180 OFFCURVE",
"233 180 OFFCURVE",
"264 180 CURVE SMOOTH",
"314 180 OFFCURVE",
"339 161 OFFCURVE",
"339 123 CURVE SMOOTH",
"339 82 OFFCURVE",
"314 61 OFFCURVE",
"264 61 CURVE SMOOTH",
"202 61 OFFCURVE",
"145 94 OFFCURVE",
"95 159 CURVE",
"3 -17 LINE",
"80 -73 OFFCURVE",
"193 -110 OFFCURVE",
"292 -110 CURVE SMOOTH",
"472 -110 OFFCURVE",
"589 -12 OFFCURVE",
"589 139 CURVE SMOOTH",
"589 267 OFFCURVE",
"479 349 OFFCURVE",
"310 349 CURVE SMOOTH",
"306 349 OFFCURVE",
"283 349 OFFCURVE",
"279 349 CURVE",
"279 423 LINE",
"556 423 LINE",
"556 601 LINE"
);
}
);
width = 611;
}
);
},
{
glyphname = six.osf;
layers = (
{
layerId = "5F4BB537-F6D4-41E2-86C5-F7A1868B70F1";
paths = (
{
closed = 1;
nodes = (
"170 711 OFFCURVE",
"35 566 OFFCURVE",
"35 343 CURVE SMOOTH",
"35 128 OFFCURVE",
"155 -10 OFFCURVE",
"353 -10 CURVE SMOOTH",
"518 -10 OFFCURVE",
"628 86 OFFCURVE",
"628 237 CURVE SMOOTH",
"628 374 OFFCURVE",
"538 468 OFFCURVE",
"401 468 CURVE SMOOTH",
"333 468 OFFCURVE",
"286 445 OFFCURVE",
"256 416 CURVE",
"256 494 OFFCURVE",
"302 533 OFFCURVE",
"392 533 CURVE SMOOTH",
"447 533 OFFCURVE",
"494 518 OFFCURVE",
"532 487 CURVE",
"620 649 LINE",
"559 687 OFFCURVE",
"464 711 OFFCURVE",
"378 711 CURVE SMOOTH"
);
},
{
closed = 1;
nodes = (
"391 300 OFFCURVE",
"413 279 OFFCURVE",
"413 238 CURVE SMOOTH",
"413 195 OFFCURVE",
"390 174 OFFCURVE",
"345 174 CURVE SMOOTH",
"299 174 OFFCURVE",
"276 195 OFFCURVE",
"276 237 CURVE SMOOTH",
"276 279 OFFCURVE",
"300 300 OFFCURVE",
"346 300 CURVE SMOOTH"
);
}
);
width = 648;
}
);
leftMetricsKey = zero.lf;
},
{
glyphname = seven.osf;
layers = (
{
layerId = "5F4BB537-F6D4-41E2-86C5-F7A1868B70F1";
paths = (
{
closed = 1;
nodes = (
"29 601 LINE",
"29 325 LINE",
"233 325 LINE",
"233 423 LINE",
"353 423 LINE",
"122 -100 LINE",
"367 -100 LINE",
"608 446 LINE",
"608 601 LINE"
);
}
);
width = 617;
}
);
},
{
glyphname = eight.osf;
layers = (
{
layerId = "5F4BB537-F6D4-41E2-86C5-F7A1868B70F1";
paths = (
{
closed = 1;
nodes = (
"167 711 OFFCURVE",
"63 637 OFFCURVE",
"63 522 CURVE SMOOTH",
"63 469 OFFCURVE",
"97 411 OFFCURVE",
"149 375 CURVE",
"74 341 OFFCURVE",
"25 270 OFFCURVE",
"25 195 CURVE SMOOTH",
"25 71 OFFCURVE",
"144 -10 OFFCURVE",
"328 -10 CURVE SMOOTH",
"512 -10 OFFCURVE",
"631 72 OFFCURVE",
"631 199 CURVE SMOOTH",
"631 272 OFFCURVE",
"587 341 OFFCURVE",
"519 375 CURVE",
"564 407 OFFCURVE",
"593 462 OFFCURVE",
"593 515 CURVE SMOOTH",
"593 634 OFFCURVE",
"489 711 OFFCURVE",
"327 711 CURVE SMOOTH"
);
},
{
closed = 1;
nodes = (
"384 284 OFFCURVE",
"413 262 OFFCURVE",
"413 219 CURVE SMOOTH",
"413 177 OFFCURVE",
"384 156 OFFCURVE",
"328 156 CURVE SMOOTH",
"272 156 OFFCURVE",
"244 177 OFFCURVE",
"244 219 CURVE SMOOTH",
"244 262 OFFCURVE",
"272 284 OFFCURVE",
"328 284 CURVE SMOOTH"
);
},
{
closed = 1;
nodes = (
"375 560 OFFCURVE",
"399 541 OFFCURVE",
"399 503 CURVE SMOOTH",
"399 467 OFFCURVE",
"375 449 OFFCURVE",
"328 449 CURVE SMOOTH",
"281 449 OFFCURVE",
"257 467 OFFCURVE",
"257 503 CURVE SMOOTH",
"257 541 OFFCURVE",
"281 560 OFFCURVE",
"328 560 CURVE SMOOTH"
);
}
);
width = 656;
}
);
},
{
glyphname = zero.tosf;
layers = (
{
layerId = "5F4BB537-F6D4-41E2-86C5-F7A1868B70F1";
paths = (
{
closed = 1;
nodes = (
"134 608 OFFCURVE",
"20 486 OFFCURVE",
"20 301 CURVE SMOOTH",
"20 116 OFFCURVE",
"134 -6 OFFCURVE",
"309 -6 CURVE SMOOTH",
"484 -6 OFFCURVE",
"597 116 OFFCURVE",
"597 301 CURVE SMOOTH",
"597 486 OFFCURVE",
"484 608 OFFCURVE",
"309 608 CURVE SMOOTH"
);
},
{
closed = 1;
nodes = (
"358 456 OFFCURVE",
"387 399 OFFCURVE",
"387 301 CURVE SMOOTH",
"387 203 OFFCURVE",
"358 145 OFFCURVE",
"309 145 CURVE SMOOTH",
"260 145 OFFCURVE",
"230 203 OFFCURVE",
"230 301 CURVE SMOOTH",
"230 399 OFFCURVE",
"260 456 OFFCURVE",
"309 456 CURVE SMOOTH"
);
}
);
width = 617;
}
);
userData = {
RMXScaler = {
source = zero.osf;
};
};
},
{
glyphname = one.tosf;
layers = (
{
layerId = "5F4BB537-F6D4-41E2-86C5-F7A1868B70F1";
paths = (
{
closed = 1;
nodes = (
"436 0 LINE",
"436 601 LINE",
"82 601 LINE",
"82 418 LINE",
"204 418 LINE",
"204 0 LINE"
);
}
);
width = 617;
}
);
userData = {
RMXScaler = {
source = one.osf;
};
};
},
{
glyphname = two.tosf;
layers = (
{
layerId = "5F4BB537-F6D4-41E2-86C5-F7A1868B70F1";
paths = (
{
closed = 1;
nodes = (
"221 610 OFFCURVE",
"124 574 OFFCURVE",
"27 513 CURVE",
"112 346 LINE",
"178 393 OFFCURVE",
"242 424 OFFCURVE",
"291 424 CURVE SMOOTH",
"314 424 OFFCURVE",
"326 419 OFFCURVE",
"326 409 CURVE SMOOTH",
"326 394 OFFCURVE",
"306 371 OFFCURVE",
"283 351 CURVE SMOOTH",
"54 144 LINE",
"55 0 LINE",
"576 0 LINE",
"576 177 LINE",
"351 177 LINE",
"441 238 LINE",
"514 305 OFFCURVE",
"569 371 OFFCURVE",
"569 444 CURVE SMOOTH",
"569 543 OFFCURVE",
"465 610 OFFCURVE",
"328 610 CURVE SMOOTH"
);
}
);
width = 617;
}
);
userData = {
RMXScaler = {
source = two.osf;
};
};
},
{
glyphname = three.tosf;
layers = (
{
layerId = "5F4BB537-F6D4-41E2-86C5-F7A1868B70F1";
paths = (
{
closed = 1;
nodes = (
"389 325 LINE",
"552 470 LINE",
"552 600 LINE",
"40 600 LINE",
"40 432 LINE",
"278 432 LINE",
"145 304 LINE",
"145 184 LINE",
"276 184 LINE SMOOTH",
"331 184 OFFCURVE",
"359 163 OFFCURVE",
"359 122 CURVE SMOOTH",
"359 81 OFFCURVE",
"331 61 OFFCURVE",
"276 61 CURVE SMOOTH",
"211 61 OFFCURVE",
"150 94 OFFCURVE",
"94 159 CURVE",
"2 -17 LINE",
"73 -73 OFFCURVE",
"186 -110 OFFCURVE",
"295 -110 CURVE SMOOTH",
"472 -110 OFFCURVE",
"586 -14 OFFCURVE",
"586 123 CURVE SMOOTH",
"586 228 OFFCURVE",
"517 297 OFFCURVE",
"421 318 CURVE SMOOTH"
);
}
);
width = 617;
}
);
},
{
glyphname = four.tosf;
layers = (
{
layerId = "5F4BB537-F6D4-41E2-86C5-F7A1868B70F1";
paths = (
{
closed = 1;
nodes = (
"204 602 LINE",
"24 186 LINE",
"24 36 LINE",
"323 36 LINE",
"323 -100 LINE",
"534 -100 LINE",
"534 36 LINE",
"614 36 LINE",
"614 201 LINE",
"534 201 LINE",
"534 336 LINE",
"323 336 LINE",
"323 201 LINE",
"255 201 LINE",
"422 602 LINE"
);
}
);
width = 617;
}
);
},
{
glyphname = five.tosf;
layers = (
{
layerId = "5F4BB537-F6D4-41E2-86C5-F7A1868B70F1";
paths = (
{
closed = 1;
nodes = (
"69 602 LINE",
"69 181 LINE",
"109 181 OFFCURVE",
"236 181 OFFCURVE",
"267 181 CURVE SMOOTH",
"318 181 OFFCURVE",
"343 161 OFFCURVE",
"343 123 CURVE SMOOTH",
"343 82 OFFCURVE",
"318 61 OFFCURVE",
"267 61 CURVE SMOOTH",
"204 61 OFFCURVE",
"147 94 OFFCURVE",
"96 159 CURVE",
"4 -17 LINE",
"82 -73 OFFCURVE",
"195 -110 OFFCURVE",
"295 -110 CURVE SMOOTH",
"476 -110 OFFCURVE",
"593 -12 OFFCURVE",
"593 139 CURVE SMOOTH",
"593 267 OFFCURVE",
"483 350 OFFCURVE",
"313 350 CURVE SMOOTH",
"309 350 OFFCURVE",
"285 350 OFFCURVE",
"281 350 CURVE",
"281 424 LINE",
"560 424 LINE",
"560 602 LINE"
);
}
);
width = 617;
}
);
},
{
glyphname = six.tosf;
layers = (
{
layerId = "5F4BB537-F6D4-41E2-86C5-F7A1868B70F1";
paths = (
{
closed = 1;
nodes = (
"160 711 OFFCURVE",
"29 566 OFFCURVE",
"29 342 CURVE SMOOTH",
"29 127 OFFCURVE",
"145 -10 OFFCURVE",
"337 -10 CURVE SMOOTH",
"496 -10 OFFCURVE",
"603 86 OFFCURVE",
"603 236 CURVE SMOOTH",
"603 374 OFFCURVE",
"515 467 OFFCURVE",
"382 467 CURVE SMOOTH",
"315 467 OFFCURVE",
"269 443 OFFCURVE",
"239 410 CURVE",
"239 496 OFFCURVE",
"285 542 OFFCURVE",
"373 542 CURVE SMOOTH",
"427 542 OFFCURVE",
"473 526 OFFCURVE",
"510 496 CURVE",
"594 650 LINE",
"535 688 OFFCURVE",
"444 711 OFFCURVE",
"360 711 CURVE SMOOTH"
);
},
{
closed = 1;
nodes = (
"375 307 OFFCURVE",
"398 282 OFFCURVE",
"398 237 CURVE SMOOTH",
"398 190 OFFCURVE",
"374 166 OFFCURVE",
"329 166 CURVE SMOOTH",
"282 166 OFFCURVE",
"259 192 OFFCURVE",
"259 236 CURVE SMOOTH",
"259 281 OFFCURVE",
"283 307 OFFCURVE",
"330 307 CURVE SMOOTH"
);
}
);
width = 617;
}
);
},
{
glyphname = seven.tosf;
layers = (
{
layerId = "5F4BB537-F6D4-41E2-86C5-F7A1868B70F1";
paths = (
{
closed = 1;
nodes = (
"29 602 LINE",
"29 326 LINE",
"233 326 LINE",
"233 424 LINE",
"353 424 LINE",
"122 -100 LINE",
"367 -100 LINE",
"608 447 LINE",
"608 602 LINE"
);
}
);
width = 617;
}
);
},
{
glyphname = eight.tosf;
layers = (
{
layerId = "5F4BB537-F6D4-41E2-86C5-F7A1868B70F1";
paths = (
{
closed = 1;
nodes = (
"153 712 OFFCURVE",
"52 638 OFFCURVE",
"52 523 CURVE SMOOTH",
"52 470 OFFCURVE",
"84 412 OFFCURVE",
"133 376 CURVE",
"62 341 OFFCURVE",
"15 270 OFFCURVE",
"15 195 CURVE SMOOTH",
"15 71 OFFCURVE",
"131 -10 OFFCURVE",
"308 -10 CURVE SMOOTH",
"486 -10 OFFCURVE",
"602 72 OFFCURVE",
"602 199 CURVE SMOOTH",
"602 272 OFFCURVE",
"560 341 OFFCURVE",
"495 376 CURVE",
"538 408 OFFCURVE",
"565 463 OFFCURVE",
"565 516 CURVE SMOOTH",
"565 635 OFFCURVE",
"464 712 OFFCURVE",
"307 712 CURVE SMOOTH"
);
},
{
closed = 1;
nodes = (
"359 285 OFFCURVE",
"386 262 OFFCURVE",
"386 219 CURVE SMOOTH",
"386 177 OFFCURVE",
"359 155 OFFCURVE",
"308 155 CURVE SMOOTH",
"258 155 OFFCURVE",
"232 177 OFFCURVE",
"232 219 CURVE SMOOTH",
"232 262 OFFCURVE",
"258 285 OFFCURVE",
"309 285 CURVE SMOOTH"
);
},
{
closed = 1;
nodes = (
"351 562 OFFCURVE",
"373 542 OFFCURVE",
"373 504 CURVE SMOOTH",
"373 468 OFFCURVE",
"351 450 OFFCURVE",
"308 450 CURVE SMOOTH",
"266 450 OFFCURVE",
"244 468 OFFCURVE",
"244 504 CURVE SMOOTH",
"244 542 OFFCURVE",
"266 562 OFFCURVE",
"308 562 CURVE SMOOTH"
);
}
);
width = 617;
}
);
},
{
glyphname = nine.tosf;
layers = (
{
layerId = "5F4BB537-F6D4-41E2-86C5-F7A1868B70F1";
paths = (
{
closed = 1;
nodes = (
"458 -110 OFFCURVE",
"588 36 OFFCURVE",
"588 260 CURVE SMOOTH",
"588 475 OFFCURVE",
"472 611 OFFCURVE",
"281 611 CURVE SMOOTH",
"121 611 OFFCURVE",
"15 516 OFFCURVE",
"15 366 CURVE SMOOTH",
"15 228 OFFCURVE",
"102 134 OFFCURVE",
"235 134 CURVE SMOOTH",
"302 134 OFFCURVE",
"348 159 OFFCURVE",
"378 192 CURVE",
"378 106 OFFCURVE",
"333 60 OFFCURVE",
"243 60 CURVE SMOOTH",
"190 60 OFFCURVE",
"144 75 OFFCURVE",
"107 106 CURVE",
"23 -48 LINE",
"83 -86 OFFCURVE",
"174 -110 OFFCURVE",
"256 -110 CURVE SMOOTH"
);
},
{
closed = 1;
nodes = (
"242 295 OFFCURVE",
"220 320 OFFCURVE",
"220 365 CURVE SMOOTH",
"220 412 OFFCURVE",
"243 436 OFFCURVE",
"288 436 CURVE SMOOTH",
"335 436 OFFCURVE",
"358 410 OFFCURVE",
"358 366 CURVE SMOOTH",
"358 321 OFFCURVE",
"334 295 OFFCURVE",
"287 295 CURVE SMOOTH"
);
}
);
width = 617;
}
);
},
{
glyphname = zero.dnom;
layers = (
{
layerId = "5F4BB537-F6D4-41E2-86C5-F7A1868B70F1";
paths = (
{
closed = 1;
nodes = (
"106 425 OFFCURVE",
"25 341 OFFCURVE",
"25 211 CURVE SMOOTH",
"25 80 OFFCURVE",
"106 -5 OFFCURVE",
"230 -5 CURVE SMOOTH",
"354 -5 OFFCURVE",
"434 80 OFFCURVE",
"434 211 CURVE SMOOTH",
"434 341 OFFCURVE",
"354 425 OFFCURVE",
"230 425 CURVE SMOOTH"
);
},
{
closed = 1;
nodes = (
"269 307 OFFCURVE",
"294 269 OFFCURVE",
"294 211 CURVE SMOOTH",
"294 152 OFFCURVE",
"269 114 OFFCURVE",
"230 114 CURVE SMOOTH",
"191 114 OFFCURVE",
"166 152 OFFCURVE",
"166 211 CURVE SMOOTH",
"166 269 OFFCURVE",
"191 307 OFFCURVE",
"230 307 CURVE SMOOTH"
);
}
);
width = 459;
}
);
},
{
glyphname = one.dnom;
layers = (
{
layerId = "5F4BB537-F6D4-41E2-86C5-F7A1868B70F1";
paths = (
{
closed = 1;
nodes = (
"236 421 LINE",
"4 421 LINE",
"4 302 LINE",
"80 302 LINE",
"80 0 LINE",
"236 0 LINE"
);
}
);
width = 286;
}
);
},
{
glyphname = two.dnom;
layers = (
{
layerId = "5F4BB537-F6D4-41E2-86C5-F7A1868B70F1";
paths = (
{
closed = 1;
nodes = (
"140 427 OFFCURVE",
"74 402 OFFCURVE",
"9 360 CURVE",
"67 252 LINE",
"110 285 OFFCURVE",
"154 306 OFFCURVE",
"186 306 CURVE",
"201 306 OFFCURVE",
"209 301 OFFCURVE",
"209 290 CURVE",
"209 277 OFFCURVE",
"195 258 OFFCURVE",
"180 242 CURVE SMOOTH",
"28 93 LINE",
"28 0 LINE",
"377 0 LINE",
"377 115 LINE",
"228 115 LINE",
"286 169 LINE SMOOTH",
"336 216 OFFCURVE",
"373 262 OFFCURVE",
"373 312 CURVE",
"373 381 OFFCURVE",
"303 427 OFFCURVE",
"211 427 CURVE"
);
}
);
width = 394;
}
);
},
{
glyphname = three.dnom;
layers = (
{
layerId = "5F4BB537-F6D4-41E2-86C5-F7A1868B70F1";
paths = (
{
closed = 1;
nodes = (
"249 256 LINE",
"340 335 LINE",
"340 419 LINE",
"22 419 LINE",
"22 311 LINE",
"164 311 LINE",
"86 243 LINE",
"86 165 LINE",
"168 165 LINE SMOOTH",
"194 165 OFFCURVE",
"207 155 OFFCURVE",
"207 134 CURVE SMOOTH",
"207 113 OFFCURVE",
"194 104 OFFCURVE",
"168 104 CURVE SMOOTH",
"130 104 OFFCURVE",
"94 124 OFFCURVE",
"61 165 CURVE",
"-1 51 LINE",
"42 16 OFFCURVE",
"113 -7 OFFCURVE",
"181 -7 CURVE SMOOTH",
"290 -7 OFFCURVE",
"360 52 OFFCURVE",
"360 134 CURVE SMOOTH",
"360 197 OFFCURVE",
"320 238 OFFCURVE",
"268 251 CURVE SMOOTH"
);
}
);
width = 374;
}
);
},
{
glyphname = four.dnom;
layers = (
{
layerId = "5F4BB537-F6D4-41E2-86C5-F7A1868B70F1";
paths = (
{
closed = 1;
nodes = (
"294 421 LINE",
"145 421 LINE",
"19 175 LINE",
"19 77 LINE",
"227 77 LINE",
"227 0 LINE",
"372 0 LINE",
"372 77 LINE",
"427 77 LINE",
"427 184 LINE",
"372 184 LINE",
"372 260 LINE",
"227 260 LINE",
"227 184 LINE",
"178 184 LINE"
);
}
);
width = 432;
}
);
},
{
glyphname = five.dnom;
layers = (
{
layerId = "5F4BB537-F6D4-41E2-86C5-F7A1868B70F1";
paths = (
{
closed = 1;
nodes = (
"359 421 LINE",
"45 421 LINE",
"45 164 LINE",
"70 163 OFFCURVE",
"152 162 OFFCURVE",
"170 162 CURVE",
"198 162 OFFCURVE",
"211 153 OFFCURVE",
"211 134 CURVE",
"211 113 OFFCURVE",
"198 104 OFFCURVE",
"171 104 CURVE",
"132 104 OFFCURVE",
"97 124 OFFCURVE",
"66 165 CURVE",
"4 50 LINE",
"53 16 OFFCURVE",
"126 -7 OFFCURVE",
"190 -7 CURVE",
"305 -7 OFFCURVE",
"380 53 OFFCURVE",
"380 144 CURVE",
"380 222 OFFCURVE",
"310 271 OFFCURVE",
"202 271 CURVE",
"201 271 OFFCURVE",
"189 272 OFFCURVE",
"188 273 CURVE",
"188 306 LINE",
"359 306 LINE"
);
}
);
width = 396;
}
);
},
{
glyphname = six.dnom;
layers = (
{
layerId = "5F4BB537-F6D4-41E2-86C5-F7A1868B70F1";
paths = (
{
closed = 1;
nodes = (
"112 427 OFFCURVE",
"25 340 OFFCURVE",
"25 206 CURVE SMOOTH",
"25 77 OFFCURVE",
"102 -7 OFFCURVE",
"228 -7 CURVE SMOOTH",
"334 -7 OFFCURVE",
"404 52 OFFCURVE",
"404 143 CURVE SMOOTH",
"404 225 OFFCURVE",
"347 282 OFFCURVE",
"261 282 CURVE SMOOTH",
"221 282 OFFCURVE",
"193 271 OFFCURVE",
"174 258 CURVE",
"175 295 OFFCURVE",
"202 312 OFFCURVE",
"254 312 CURVE SMOOTH",
"289 312 OFFCURVE",
"318 303 OFFCURVE",
"341 284 CURVE",
"400 389 LINE",
"362 412 OFFCURVE",
"300 427 OFFCURVE",
"245 427 CURVE SMOOTH"
);
},
{
closed = 1;
nodes = (
"248 174 OFFCURVE",
"259 164 OFFCURVE",
"259 144 CURVE SMOOTH",
"259 122 OFFCURVE",
"248 113 OFFCURVE",
"223 113 CURVE SMOOTH",
"199 113 OFFCURVE",
"187 120 OFFCURVE",
"187 143 CURVE",
"187 165 OFFCURVE",
"199 174 OFFCURVE",
"223 174 CURVE SMOOTH"
);
}
);
width = 419;
}
);
},
{
glyphname = seven.dnom;
layers = (
{
layerId = "5F4BB537-F6D4-41E2-86C5-F7A1868B70F1";
paths = (
{
closed = 1;
nodes = (
"393 421 LINE",
"22 421 LINE",
"22 248 LINE",
"159 248 LINE",
"159 306 LINE",
"220 306 LINE",
"79 0 LINE",
"244 0 LINE",
"393 321 LINE"
);
}
);
width = 401;
}
);
},
{
glyphname = eight.dnom;
layers = (
{
layerId = "5F4BB537-F6D4-41E2-86C5-F7A1868B70F1";
paths = (
{
closed = 1;
nodes = (
"109 427 OFFCURVE",
"42 382 OFFCURVE",
"42 313 CURVE SMOOTH",
"42 282 OFFCURVE",
"63 247 OFFCURVE",
"94 225 CURVE",
"48 204 OFFCURVE",
"18 161 OFFCURVE",
"18 117 CURVE SMOOTH",
"18 43 OFFCURVE",
"94 -7 OFFCURVE",
"212 -7 CURVE SMOOTH",
"330 -7 OFFCURVE",
"406 43 OFFCURVE",
"406 120 CURVE SMOOTH",
"406 162 OFFCURVE",
"379 204 OFFCURVE",
"338 225 CURVE",
"364 245 OFFCURVE",
"382 278 OFFCURVE",
"382 308 CURVE SMOOTH",
"382 380 OFFCURVE",
"315 427 OFFCURVE",
"211 427 CURVE SMOOTH"
);
},
{
closed = 1;
nodes = (
"243 166 OFFCURVE",
"259 155 OFFCURVE",
"259 133 CURVE SMOOTH",
"259 111 OFFCURVE",
"243 101 OFFCURVE",
"212 101 CURVE SMOOTH",
"181 101 OFFCURVE",
"166 111 OFFCURVE",
"166 133 CURVE SMOOTH",
"166 155 OFFCURVE",
"181 166 OFFCURVE",
"212 166 CURVE SMOOTH"
);
},
{
closed = 1;
nodes = (
"238 330 OFFCURVE",
"251 320 OFFCURVE",
"251 300 CURVE SMOOTH",
"251 282 OFFCURVE",
"238 273 OFFCURVE",
"212 273 CURVE SMOOTH",
"186 273 OFFCURVE",
"173 282 OFFCURVE",
"173 300 CURVE SMOOTH",
"173 320 OFFCURVE",
"186 330 OFFCURVE",
"212 330 CURVE SMOOTH"
);
}
);
width = 424;
}
);
},
{
glyphname = nine.dnom;
layers = (
{
layerId = "5F4BB537-F6D4-41E2-86C5-F7A1868B70F1";
paths = (
{
closed = 1;
nodes = (
"307 -7 OFFCURVE",
"394 80 OFFCURVE",
"394 214 CURVE SMOOTH",
"394 343 OFFCURVE",
"317 427 OFFCURVE",
"191 427 CURVE SMOOTH",
"85 427 OFFCURVE",
"15 369 OFFCURVE",
"15 278 CURVE SMOOTH",
"15 195 OFFCURVE",
"72 138 OFFCURVE",
"158 138 CURVE SMOOTH",
"198 138 OFFCURVE",
"226 150 OFFCURVE",
"245 162 CURVE",
"244 125 OFFCURVE",
"217 109 OFFCURVE",
"165 109 CURVE SMOOTH",
"130 109 OFFCURVE",
"101 118 OFFCURVE",
"78 136 CURVE",
"19 32 LINE",
"57 8 OFFCURVE",
"118 -7 OFFCURVE",
"174 -7 CURVE SMOOTH"
);
},
{
closed = 1;
nodes = (
"171 247 OFFCURVE",
"160 257 OFFCURVE",
"160 277 CURVE SMOOTH",
"160 299 OFFCURVE",
"171 308 OFFCURVE",
"196 308 CURVE SMOOTH",
"220 308 OFFCURVE",
"232 301 OFFCURVE",
"232 277 CURVE",
"232 255 OFFCURVE",
"220 247 OFFCURVE",
"196 247 CURVE SMOOTH"
);
}
);
width = 419;
}
);
},
{
glyphname = zero.numr;
layers = (
{
layerId = "5F4BB537-F6D4-41E2-86C5-F7A1868B70F1";
paths = (
{
closed = 1;
nodes = (
"106 705 OFFCURVE",
"25 621 OFFCURVE",
"25 491 CURVE SMOOTH",
"25 360 OFFCURVE",
"106 275 OFFCURVE",
"230 275 CURVE SMOOTH",
"354 275 OFFCURVE",
"434 360 OFFCURVE",
"434 491 CURVE SMOOTH",
"434 621 OFFCURVE",
"354 705 OFFCURVE",
"230 705 CURVE SMOOTH"
);
},
{
closed = 1;
nodes = (
"269 587 OFFCURVE",
"294 549 OFFCURVE",
"294 491 CURVE SMOOTH",
"294 432 OFFCURVE",
"269 394 OFFCURVE",
"230 394 CURVE SMOOTH",
"191 394 OFFCURVE",
"166 432 OFFCURVE",
"166 491 CURVE SMOOTH",
"166 549 OFFCURVE",
"191 587 OFFCURVE",
"230 587 CURVE SMOOTH"
);
}
);
width = 459;
}
);
},
{
glyphname = one.numr;
layers = (
{
layerId = "5F4BB537-F6D4-41E2-86C5-F7A1868B70F1";
paths = (
{
closed = 1;
nodes = (
"236 701 LINE",
"4 701 LINE",
"4 582 LINE",
"80 582 LINE",
"80 280 LINE",
"236 280 LINE"
);
}
);
width = 286;
}
);
},
{
glyphname = two.numr;
layers = (
{
layerId = "5F4BB537-F6D4-41E2-86C5-F7A1868B70F1";
paths = (
{
closed = 1;
nodes = (
"140 707 OFFCURVE",
"74 682 OFFCURVE",
"9 640 CURVE",
"67 532 LINE",
"110 565 OFFCURVE",
"154 586 OFFCURVE",
"186 586 CURVE",
"201 586 OFFCURVE",
"209 581 OFFCURVE",
"209 570 CURVE",
"209 557 OFFCURVE",
"195 538 OFFCURVE",
"180 522 CURVE SMOOTH",
"28 373 LINE",
"28 280 LINE",
"377 280 LINE",
"377 395 LINE",
"228 395 LINE",
"286 449 LINE SMOOTH",
"336 496 OFFCURVE",
"373 542 OFFCURVE",
"373 592 CURVE",
"373 661 OFFCURVE",
"303 707 OFFCURVE",
"211 707 CURVE"
);
}
);
width = 394;
}
);
},
{
glyphname = three.numr;
layers = (
{
layerId = "5F4BB537-F6D4-41E2-86C5-F7A1868B70F1";
paths = (
{
closed = 1;
nodes = (
"249 536 LINE",
"340 615 LINE",
"340 699 LINE",
"22 699 LINE",
"22 591 LINE",
"164 591 LINE",
"86 523 LINE",
"86 445 LINE",
"168 445 LINE SMOOTH",
"194 445 OFFCURVE",
"207 435 OFFCURVE",
"207 414 CURVE SMOOTH",
"207 393 OFFCURVE",
"194 384 OFFCURVE",
"168 384 CURVE SMOOTH",
"130 384 OFFCURVE",
"94 404 OFFCURVE",
"61 445 CURVE",
"-1 331 LINE",
"42 296 OFFCURVE",
"113 273 OFFCURVE",
"181 273 CURVE SMOOTH",
"290 273 OFFCURVE",
"360 332 OFFCURVE",
"360 414 CURVE SMOOTH",
"360 477 OFFCURVE",
"320 518 OFFCURVE",
"268 531 CURVE SMOOTH"
);
}
);
width = 374;
}
);
},
{
glyphname = four.numr;
layers = (
{
layerId = "5F4BB537-F6D4-41E2-86C5-F7A1868B70F1";
paths = (
{
closed = 1;
nodes = (
"294 701 LINE",
"145 701 LINE",
"19 455 LINE",
"19 357 LINE",
"227 357 LINE",
"227 280 LINE",
"372 280 LINE",
"372 357 LINE",
"427 357 LINE",
"427 464 LINE",
"372 464 LINE",
"372 540 LINE",
"227 540 LINE",
"227 464 LINE",
"178 464 LINE"
);
}
);
width = 432;
}
);
},
{
glyphname = five.numr;
layers = (
{
layerId = "5F4BB537-F6D4-41E2-86C5-F7A1868B70F1";
paths = (
{
closed = 1;
nodes = (
"359 701 LINE",
"45 701 LINE",
"45 444 LINE",
"70 443 OFFCURVE",
"152 442 OFFCURVE",
"170 442 CURVE",
"198 442 OFFCURVE",
"211 433 OFFCURVE",
"211 414 CURVE",
"211 393 OFFCURVE",
"198 384 OFFCURVE",
"171 384 CURVE",
"132 384 OFFCURVE",
"97 404 OFFCURVE",
"66 445 CURVE",
"4 330 LINE",
"53 296 OFFCURVE",
"126 273 OFFCURVE",
"190 273 CURVE",
"305 273 OFFCURVE",
"380 333 OFFCURVE",
"380 424 CURVE",
"380 502 OFFCURVE",
"310 551 OFFCURVE",
"202 551 CURVE",
"201 551 OFFCURVE",
"189 552 OFFCURVE",
"188 553 CURVE",
"188 586 LINE",
"359 586 LINE"
);
}
);
width = 396;
}
);
},
{
glyphname = six.numr;
layers = (
{
layerId = "5F4BB537-F6D4-41E2-86C5-F7A1868B70F1";
paths = (
{
closed = 1;
nodes = (
"112 707 OFFCURVE",
"25 620 OFFCURVE",
"25 486 CURVE SMOOTH",
"25 357 OFFCURVE",
"102 273 OFFCURVE",
"228 273 CURVE SMOOTH",
"334 273 OFFCURVE",
"404 332 OFFCURVE",
"404 423 CURVE SMOOTH",
"404 505 OFFCURVE",
"347 562 OFFCURVE",
"261 562 CURVE SMOOTH",
"221 562 OFFCURVE",
"193 551 OFFCURVE",
"174 538 CURVE",
"175 575 OFFCURVE",
"202 592 OFFCURVE",
"254 592 CURVE SMOOTH",
"289 592 OFFCURVE",
"318 583 OFFCURVE",
"341 564 CURVE",
"400 669 LINE",
"362 692 OFFCURVE",
"300 707 OFFCURVE",
"245 707 CURVE SMOOTH"
);
},
{
closed = 1;
nodes = (
"248 454 OFFCURVE",
"259 444 OFFCURVE",
"259 424 CURVE SMOOTH",
"259 402 OFFCURVE",
"248 393 OFFCURVE",
"223 393 CURVE SMOOTH",
"199 393 OFFCURVE",
"187 400 OFFCURVE",
"187 423 CURVE",
"187 445 OFFCURVE",
"199 454 OFFCURVE",
"223 454 CURVE SMOOTH"
);
}
);
width = 419;
}
);
},
{
glyphname = seven.numr;
layers = (
{
layerId = "5F4BB537-F6D4-41E2-86C5-F7A1868B70F1";
paths = (
{
closed = 1;
nodes = (
"393 701 LINE",
"22 701 LINE",
"22 528 LINE",
"159 528 LINE",
"159 586 LINE",
"220 586 LINE",
"79 280 LINE",
"244 280 LINE",
"393 601 LINE"
);
}
);
width = 401;
}
);
},
{
glyphname = eight.numr;
layers = (
{
layerId = "5F4BB537-F6D4-41E2-86C5-F7A1868B70F1";
paths = (
{
closed = 1;
nodes = (
"109 707 OFFCURVE",
"42 662 OFFCURVE",
"42 593 CURVE SMOOTH",
"42 562 OFFCURVE",
"63 527 OFFCURVE",
"94 505 CURVE",
"48 484 OFFCURVE",
"18 441 OFFCURVE",
"18 397 CURVE SMOOTH",
"18 323 OFFCURVE",
"94 273 OFFCURVE",
"212 273 CURVE SMOOTH",
"330 273 OFFCURVE",
"406 323 OFFCURVE",
"406 400 CURVE SMOOTH",
"406 442 OFFCURVE",
"379 484 OFFCURVE",
"338 505 CURVE",
"364 525 OFFCURVE",
"382 558 OFFCURVE",
"382 588 CURVE SMOOTH",
"382 660 OFFCURVE",
"315 707 OFFCURVE",
"211 707 CURVE SMOOTH"
);
},
{
closed = 1;
nodes = (
"243 446 OFFCURVE",
"259 435 OFFCURVE",
"259 413 CURVE SMOOTH",
"259 391 OFFCURVE",
"243 381 OFFCURVE",
"212 381 CURVE SMOOTH",
"181 381 OFFCURVE",
"166 391 OFFCURVE",
"166 413 CURVE SMOOTH",
"166 435 OFFCURVE",
"181 446 OFFCURVE",
"212 446 CURVE SMOOTH"
);
},
{
closed = 1;
nodes = (
"238 610 OFFCURVE",
"251 600 OFFCURVE",
"251 580 CURVE SMOOTH",
"251 562 OFFCURVE",
"238 553 OFFCURVE",
"212 553 CURVE SMOOTH",
"186 553 OFFCURVE",
"173 562 OFFCURVE",
"173 580 CURVE SMOOTH",
"173 600 OFFCURVE",
"186 610 OFFCURVE",
"212 610 CURVE SMOOTH"
);
}
);
width = 424;
}
);
},
{
glyphname = nine.numr;
layers = (
{
layerId = "5F4BB537-F6D4-41E2-86C5-F7A1868B70F1";
paths = (
{
closed = 1;
nodes = (
"307 273 OFFCURVE",
"394 360 OFFCURVE",
"394 494 CURVE SMOOTH",
"394 623 OFFCURVE",
"317 707 OFFCURVE",
"191 707 CURVE SMOOTH",
"85 707 OFFCURVE",
"15 649 OFFCURVE",
"15 558 CURVE SMOOTH",
"15 475 OFFCURVE",
"72 418 OFFCURVE",
"158 418 CURVE SMOOTH",
"198 418 OFFCURVE",
"226 430 OFFCURVE",
"245 442 CURVE",
"244 405 OFFCURVE",
"217 389 OFFCURVE",
"165 389 CURVE SMOOTH",
"130 389 OFFCURVE",
"101 398 OFFCURVE",
"78 416 CURVE",
"19 312 LINE",
"57 288 OFFCURVE",
"118 273 OFFCURVE",
"174 273 CURVE SMOOTH"
);
},
{
closed = 1;
nodes = (
"171 527 OFFCURVE",
"160 537 OFFCURVE",
"160 557 CURVE SMOOTH",
"160 579 OFFCURVE",
"171 588 OFFCURVE",
"196 588 CURVE SMOOTH",
"220 588 OFFCURVE",
"232 581 OFFCURVE",
"232 557 CURVE",
"232 535 OFFCURVE",
"220 527 OFFCURVE",
"196 527 CURVE SMOOTH"
);
}
);
width = 419;
}
);
},
{
glyphname = onesuperior;
layers = (
{
layerId = "5F4BB537-F6D4-41E2-86C5-F7A1868B70F1";
paths = (
{
closed = 1;
nodes = (
"236 701 LINE",
"4 701 LINE",
"4 582 LINE",
"80 582 LINE",
"80 280 LINE",
"236 280 LINE"
);
}
);
width = 286;
}
);
unicode = 00B9;
},
{
glyphname = twosuperior;
layers = (
{
layerId = "5F4BB537-F6D4-41E2-86C5-F7A1868B70F1";
paths = (
{
closed = 1;
nodes = (
"140 707 OFFCURVE",
"74 682 OFFCURVE",
"9 640 CURVE",
"67 532 LINE",
"110 565 OFFCURVE",
"154 586 OFFCURVE",
"186 586 CURVE",
"201 586 OFFCURVE",
"209 581 OFFCURVE",
"209 570 CURVE",
"209 557 OFFCURVE",
"195 538 OFFCURVE",
"180 522 CURVE SMOOTH",
"28 373 LINE",
"28 280 LINE",
"377 280 LINE",
"377 395 LINE",
"228 395 LINE",
"286 449 LINE SMOOTH",
"336 496 OFFCURVE",
"373 542 OFFCURVE",
"373 592 CURVE",
"373 661 OFFCURVE",
"303 707 OFFCURVE",
"211 707 CURVE"
);
}
);
width = 394;
}
);
unicode = 00B2;
},
{
glyphname = threesuperior;
layers = (
{
layerId = "5F4BB537-F6D4-41E2-86C5-F7A1868B70F1";
paths = (
{
closed = 1;
nodes = (
"249 536 LINE",
"340 615 LINE",
"340 699 LINE",
"22 699 LINE",
"22 591 LINE",
"164 591 LINE",
"86 523 LINE",
"86 445 LINE",
"168 445 LINE SMOOTH",
"194 445 OFFCURVE",
"207 435 OFFCURVE",
"207 414 CURVE SMOOTH",
"207 393 OFFCURVE",
"194 384 OFFCURVE",
"168 384 CURVE SMOOTH",
"130 384 OFFCURVE",
"94 404 OFFCURVE",
"61 445 CURVE",
"-1 331 LINE",
"42 296 OFFCURVE",
"113 273 OFFCURVE",
"181 273 CURVE SMOOTH",
"290 273 OFFCURVE",
"360 332 OFFCURVE",
"360 414 CURVE SMOOTH",
"360 477 OFFCURVE",
"320 518 OFFCURVE",
"268 531 CURVE SMOOTH"
);
}
);
width = 374;
}
);
unicode = 00B3;
},
{
glyphname = fraction;
layers = (
{
layerId = "5F4BB537-F6D4-41E2-86C5-F7A1868B70F1";
paths = (
{
closed = 1;
nodes = (
"423 701 LINE",
"214 701 LINE",
"-273 0 LINE",
"-64 0 LINE"
);
}
);
width = 150;
}
);
unicode = 2044;
},
{
glyphname = "zero-gurmukhi";
layers = (
{
layerId = "5F4BB537-F6D4-41E2-86C5-F7A1868B70F1";
paths = (
{
closed = 1;
nodes = (
"621 43 OFFCURVE",
"731 190 OFFCURVE",
"731 342 CURVE SMOOTH",
"731 500 OFFCURVE",
"614 654 OFFCURVE",
"382 654 CURVE SMOOTH",
"156 654 OFFCURVE",
"46 508 OFFCURVE",
"46 356 CURVE SMOOTH",
"46 198 OFFCURVE",
"165 43 OFFCURVE",
"396 43 CURVE SMOOTH"
);
},
{
closed = 1;
nodes = (
"310 209 OFFCURVE",
"270 279 OFFCURVE",
"270 348 CURVE SMOOTH",
"270 418 OFFCURVE",
"310 487 OFFCURVE",
"390 487 CURVE SMOOTH",
"470 487 OFFCURVE",
"509 418 OFFCURVE",
"509 348 CURVE SMOOTH",
"509 279 OFFCURVE",
"470 209 OFFCURVE",
"390 209 CURVE SMOOTH"
);
}
);
width = 777;
}
);
unicode = 0A66;
},
{
glyphname = "one-gurmukhi";
layers = (
{
layerId = "5F4BB537-F6D4-41E2-86C5-F7A1868B70F1";
paths = (
{
closed = 1;
nodes = (
"634 0 LINE",
"634 368 LINE SMOOTH",
"634 599 OFFCURVE",
"469 715 OFFCURVE",
"303 715 CURVE SMOOTH",
"173 715 OFFCURVE",
"38 644 OFFCURVE",
"38 479 CURVE SMOOTH",
"38 301 OFFCURVE",
"195 210 OFFCURVE",
"342 210 CURVE SMOOTH",
"369 210 OFFCURVE",
"408 213 OFFCURVE",
"447 222 CURVE",
"419 266 LINE",
"419 0 LINE"
);
},
{
closed = 1;
nodes = (
"273 375 OFFCURVE",
"243 418 OFFCURVE",
"243 462 CURVE SMOOTH",
"243 504 OFFCURVE",
"272 547 OFFCURVE",
"330 547 CURVE SMOOTH",
"389 547 OFFCURVE",
"419 502 OFFCURVE",
"419 458 CURVE SMOOTH",
"419 416 OFFCURVE",
"391 375 OFFCURVE",
"333 375 CURVE SMOOTH"
);
}
);
width = 675;
}
);
unicode = 0A67;
},
{
glyphname = "two-gurmukhi";
layers = (
{
layerId = "5F4BB537-F6D4-41E2-86C5-F7A1868B70F1";
paths = (
{
closed = 1;
nodes = (
"619 87 OFFCURVE",
"583 207 OFFCURVE",
"470 281 CURVE",
"471 235 LINE",
"540 300 OFFCURVE",
"572 375 OFFCURVE",
"572 447 CURVE SMOOTH",
"572 590 OFFCURVE",
"445 719 OFFCURVE",
"242 719 CURVE SMOOTH",
"162 719 OFFCURVE",
"81 694 OFFCURVE",
"19 646 CURVE",
"103 501 LINE",
"150 528 OFFCURVE",
"211 547 OFFCURVE",
"260 547 CURVE SMOOTH",
"333 547 OFFCURVE",
"367 504 OFFCURVE",
"367 457 CURVE SMOOTH",
"367 412 OFFCURVE",
"334 363 OFFCURVE",
"268 346 CURVE",
"339 345 LINE",
"291 365 OFFCURVE",
"244 377 OFFCURVE",
"194 377 CURVE SMOOTH",
"149 377 OFFCURVE",
"105 367 OFFCURVE",
"67 349 CURVE",
"80 187 LINE",
"113 175 OFFCURVE",
"153 169 OFFCURVE",
"202 169 CURVE SMOOTH",
"258 169 OFFCURVE",
"324 177 OFFCURVE",
"378 197 CURVE",
"314 199 LINE",
"389 184 OFFCURVE",
"398 108 OFFCURVE",
"398 45 CURVE",
"398 0 LINE",
"619 0 LINE"
);
}
);
width = 632;
}
);
unicode = 0A68;
},
{
glyphname = "three-gurmukhi";
layers = (
{
layerId = "5F4BB537-F6D4-41E2-86C5-F7A1868B70F1";
paths = (
{
closed = 1;
nodes = (
"350 -119 LINE",
"375 17 LINE",
"317 -17 LINE",
"506 -17 OFFCURVE",
"609 75 OFFCURVE",
"609 179 CURVE SMOOTH",
"609 254 OFFCURVE",
"555 311 OFFCURVE",
"456 351 CURVE",
"456 323 LINE",
"536 353 OFFCURVE",
"597 401 OFFCURVE",
"597 491 CURVE SMOOTH",
"597 641 OFFCURVE",
"428 717 OFFCURVE",
"276 717 CURVE SMOOTH",
"192 717 OFFCURVE",
"111 694 OFFCURVE",
"48 646 CURVE",
"132 505 LINE",
"169 526 OFFCURVE",
"239 547 OFFCURVE",
"296 547 CURVE SMOOTH",
"344 547 OFFCURVE",
"382 532 OFFCURVE",
"382 491 CURVE SMOOTH",
"382 452 OFFCURVE",
"350 423 OFFCURVE",
"267 427 CURVE",
"357 416 LINE",
"297 439 OFFCURVE",
"256 446 OFFCURVE",
"213 446 CURVE SMOOTH",
"181 446 OFFCURVE",
"149 442 OFFCURVE",
"119 434 CURVE",
"132 272 LINE",
"167 260 OFFCURVE",
"209 255 OFFCURVE",
"249 255 CURVE SMOOTH",
"303 255 OFFCURVE",
"355 264 OFFCURVE",
"404 280 CURVE",
"339 279 LINE",
"376 271 OFFCURVE",
"394 246 OFFCURVE",
"394 220 CURVE SMOOTH",
"394 180 OFFCURVE",
"355 136 OFFCURVE",
"282 136 CURVE",
"350 112 LINE",
"315 182 OFFCURVE",
"201 211 OFFCURVE",
"99 223 CURVE",
"43 88 LINE",
"67 52 OFFCURVE",
"108 21 OFFCURVE",
"151 4 CURVE",
"129 -102 LINE",
"129 -119 LINE"
);
}
);
width = 659;
}
);
unicode = 0A69;
},
{
glyphname = "four-gurmukhi";
layers = (
{
layerId = "5F4BB537-F6D4-41E2-86C5-F7A1868B70F1";
paths = (
{
closed = 1;
nodes = (
"540 -10 OFFCURVE",
"655 63 OFFCURVE",
"655 167 CURVE SMOOTH",
"655 231 OFFCURVE",
"615 281 OFFCURVE",
"547 319 CURVE",
"548 280 LINE",
"623 323 OFFCURVE",
"674 395 OFFCURVE",
"674 480 CURVE SMOOTH",
"674 612 OFFCURVE",
"550 691 OFFCURVE",
"408 710 CURVE",
"389 543 LINE",
"421 535 OFFCURVE",
"450 519 OFFCURVE",
"450 483 CURVE SMOOTH",
"450 438 OFFCURVE",
"406 413 OFFCURVE",
"360 413 CURVE SMOOTH",
"313 413 OFFCURVE",
"269 438 OFFCURVE",
"269 482 CURVE SMOOTH",
"269 515 OFFCURVE",
"293 534 OFFCURVE",
"329 543 CURVE",
"309 710 LINE",
"167 695 OFFCURVE",
"45 615 OFFCURVE",
"45 498 CURVE SMOOTH",
"45 419 OFFCURVE",
"100 364 OFFCURVE",
"174 332 CURVE",
"160 363 LINE",
"108 325 OFFCURVE",
"63 264 OFFCURVE",
"63 188 CURVE SMOOTH",
"63 64 OFFCURVE",
"182 -10 OFFCURVE",
"362 -10 CURVE SMOOTH"
);
},
{
closed = 1;
nodes = (
"310 132 OFFCURVE",
"284 166 OFFCURVE",
"284 199 CURVE SMOOTH",
"284 233 OFFCURVE",
"310 266 OFFCURVE",
"360 266 CURVE SMOOTH",
"413 266 OFFCURVE",
"440 232 OFFCURVE",
"440 199 CURVE SMOOTH",
"440 165 OFFCURVE",
"414 132 OFFCURVE",
"363 132 CURVE SMOOTH"
);
}
);
width = 719;
}
);
unicode = 0A6A;
},
{
glyphname = "five-gurmukhi";
layers = (
{
layerId = "5F4BB537-F6D4-41E2-86C5-F7A1868B70F1";
paths = (
{
closed = 1;
nodes = (
"212 63 OFFCURVE",
"357 63 CURVE SMOOTH",
"418 63 OFFCURVE",
"477 78 OFFCURVE",
"522 108 CURVE",
"477 335 LINE",
"451 267 OFFCURVE",
"368 226 OFFCURVE",
"303 226 CURVE SMOOTH",
"253 226 OFFCURVE",
"213 251 OFFCURVE",
"219 309 CURVE",
"161 216 LINE",
"284 277 OFFCURVE",
"318 363 OFFCURVE",
"318 463 CURVE SMOOTH",
"318 534 OFFCURVE",
"301 612 OFFCURVE",
"286 694 CURVE",
"76 694 LINE",
"76 677 LINE",
"91 624 OFFCURVE",
"104 563 OFFCURVE",
"104 505 CURVE SMOOTH",
"104 435 OFFCURVE",
"84 368 OFFCURVE",
"22 320 CURVE",
"54 147 OFFCURVE"
);
},
{
closed = 1;
nodes = (
"687 0 LINE",
"687 694 LINE",
"465 694 LINE",
"465 0 LINE"
);
}
);
width = 728;
}
);
unicode = 0A6B;
},
{
glyphname = "six-gurmukhi";
layers = (
{
layerId = "5F4BB537-F6D4-41E2-86C5-F7A1868B70F1";
paths = (
{
closed = 1;
nodes = (
"426 -17 OFFCURVE",
"512 -6 OFFCURVE",
"583 26 CURVE",
"540 180 LINE",
"496 167 OFFCURVE",
"414 149 OFFCURVE",
"348 149 CURVE SMOOTH",
"292 149 OFFCURVE",
"247 162 OFFCURVE",
"247 204 CURVE SMOOTH",
"247 241 OFFCURVE",
"282 265 OFFCURVE",
"362 265 CURVE",
"302 274 LINE",
"348 260 OFFCURVE",
"382 255 OFFCURVE",
"417 255 CURVE SMOOTH",
"449 255 OFFCURVE",
"480 259 OFFCURVE",
"510 267 CURVE",
"523 429 LINE",
"480 441 OFFCURVE",
"427 447 OFFCURVE",
"380 447 CURVE SMOOTH",
"323 447 OFFCURVE",
"273 438 OFFCURVE",
"221 422 CURVE",
"277 414 LINE",
"266 433 OFFCURVE",
"261 453 OFFCURVE",
"261 471 CURVE SMOOTH",
"261 516 OFFCURVE",
"293 554 OFFCURVE",
"349 554 CURVE",
"285 570 LINE",
"335 533 OFFCURVE",
"396 517 OFFCURVE",
"452 517 CURVE SMOOTH",
"483 517 OFFCURVE",
"512 522 OFFCURVE",
"537 530 CURVE",
"567 672 LINE",
"512 696 OFFCURVE",
"427 717 OFFCURVE",
"342 718 CURVE",
"388 700 LINE",
"381 705 OFFCURVE",
"374 725 OFFCURVE",
"374 747 CURVE SMOOTH",
"374 792 OFFCURVE",
"404 812 OFFCURVE",
"438 812 CURVE SMOOTH",
"449 812 OFFCURVE",
"462 810 OFFCURVE",
"475 805 CURVE",
"546 931 LINE",
"513 956 OFFCURVE",
"472 965 OFFCURVE",
"427 965 CURVE SMOOTH",
"309 965 OFFCURVE",
"201 902 OFFCURVE",
"201 743 CURVE SMOOTH",
"201 728 OFFCURVE",
"202 702 OFFCURVE",
"210 676 CURVE",
"244 713 LINE",
"115 690 OFFCURVE",
"55 606 OFFCURVE",
"55 515 CURVE SMOOTH",
"55 451 OFFCURVE",
"85 383 OFFCURVE",
"141 330 CURVE",
"147 372 LINE",
"81 332 OFFCURVE",
"45 280 OFFCURVE",
"45 212 CURVE SMOOTH",
"45 57 OFFCURVE",
"221 -17 OFFCURVE",
"372 -17 CURVE SMOOTH"
);
}
);
width = 624;
}
);
unicode = 0A6C;
},
{
glyphname = "seven-gurmukhi";
layers = (
{
layerId = "5F4BB537-F6D4-41E2-86C5-F7A1868B70F1";
paths = (
{
closed = 1;
nodes = (
"177 715 OFFCURVE",
"100 610 OFFCURVE",
"100 487 CURVE SMOOTH",
"100 441 OFFCURVE",
"111 392 OFFCURVE",
"131 346 CURVE",
"328 414 LINE",
"320 434 OFFCURVE",
"315 456 OFFCURVE",
"315 477 CURVE SMOOTH",
"315 513 OFFCURVE",
"331 544 OFFCURVE",
"374 544 CURVE SMOOTH",
"445 544 OFFCURVE",
"476 456 OFFCURVE",
"476 372 CURVE SMOOTH",
"476 224 OFFCURVE",
"380 148 OFFCURVE",
"255 148 CURVE SMOOTH",
"202 148 OFFCURVE",
"138 162 OFFCURVE",
"69 187 CURVE",
"26 32 LINE",
"115 -2 OFFCURVE",
"205 -18 OFFCURVE",
"283 -18 CURVE SMOOTH",
"485 -18 OFFCURVE",
"687 90 OFFCURVE",
"687 354 CURVE SMOOTH",
"687 560 OFFCURVE",
"565 715 OFFCURVE",
"356 715 CURVE SMOOTH"
);
}
);
width = 738;
}
);
unicode = 0A6D;
},
{
glyphname = "eight-gurmukhi";
layers = (
{
layerId = "5F4BB537-F6D4-41E2-86C5-F7A1868B70F1";
paths = (
{
closed = 1;
nodes = (
"597 -18 OFFCURVE",
"666 -2 OFFCURVE",
"725 27 CURVE",
"682 182 LINE",
"627 164 OFFCURVE",
"568 148 OFFCURVE",
"510 148 CURVE SMOOTH",
"431 148 OFFCURVE",
"364 175 OFFCURVE",
"364 256 CURVE SMOOTH",
"364 426 LINE",
"691 426 LINE",
"692 590 LINE",
"329 590 LINE",
"278 645 OFFCURVE",
"150 671 OFFCURVE",
"64 678 CURVE",
"-3 544 LINE",
"40 489 OFFCURVE",
"99 457 OFFCURVE",
"156 439 CURVE",
"156 276 LINE SMOOTH",
"156 104 OFFCURVE",
"342 -18 OFFCURVE",
"526 -18 CURVE SMOOTH"
);
}
);
width = 770;
}
);
unicode = 0A6E;
},
{
glyphname = "nine-gurmukhi";
layers = (
{
components = (
{
name = "eight-gurmukhi";
}
);
layerId = "5F4BB537-F6D4-41E2-86C5-F7A1868B70F1";
paths = (
{
closed = 1;
nodes = (
"701 416 OFFCURVE",
"730 421 OFFCURVE",
"757 429 CURVE",
"692 590 LINE",
"682 585 OFFCURVE",
"671 583 OFFCURVE",
"662 583 CURVE SMOOTH",
"625 583 OFFCURVE",
"594 603 OFFCURVE",
"594 646 CURVE SMOOTH",
"594 689 OFFCURVE",
"624 710 OFFCURVE",
"657 710 CURVE SMOOTH",
"669 710 OFFCURVE",
"682 707 OFFCURVE",
"695 702 CURVE",
"766 828 LINE",
"733 853 OFFCURVE",
"691 863 OFFCURVE",
"649 863 CURVE SMOOTH",
"528 863 OFFCURVE",
"421 797 OFFCURVE",
"421 650 CURVE SMOOTH",
"421 489 OFFCURVE",
"548 416 OFFCURVE",
"674 416 CURVE SMOOTH"
);
}
);
width = 797;
}
);
leftMetricsKey = "eight-gurmukhi";
unicode = 0A6F;
},
{
glyphname = asterisk;
layers = (
{
layerId = "5F4BB537-F6D4-41E2-86C5-F7A1868B70F1";
paths = (
{
closed = 1;
nodes = (
"385 498 LINE",
"306 543 LINE",
"385 586 LINE",
"331 675 LINE",
"256 628 LINE",
"259 718 LINE",
"148 718 LINE",
"150 628 LINE",
"75 676 LINE",
"20 586 LINE",
"98 543 LINE",
"20 498 LINE",
"75 411 LINE",
"151 458 LINE",
"148 367 LINE",
"259 367 LINE",
"255 456 LINE",
"331 409 LINE"
);
}
);
width = 406;
}
);
unicode = 002A;
},
{
glyphname = bullet;
layers = (
{
layerId = "5F4BB537-F6D4-41E2-86C5-F7A1868B70F1";
paths = (
{
closed = 1;
nodes = (
"94 427 OFFCURVE",
"30 368 OFFCURVE",
"30 283 CURVE SMOOTH",
"30 196 OFFCURVE",
"94 137 OFFCURVE",
"183 137 CURVE SMOOTH",
"275 137 OFFCURVE",
"338 196 OFFCURVE",
"338 283 CURVE SMOOTH",
"338 368 OFFCURVE",
"275 427 OFFCURVE",
"183 427 CURVE SMOOTH"
);
}
);
width = 368;
}
);
leftMetricsKey = period;
rightMetricsKey = period;
unicode = 2022;
},
{
glyphname = comma;
layers = (
{
layerId = "5F4BB537-F6D4-41E2-86C5-F7A1868B70F1";
paths = (
{
closed = 1;
nodes = (
"18 -110 LINE",
"122 -110 LINE",
"209 16 LINE SMOOTH",
"225 39 OFFCURVE",
"236 65 OFFCURVE",
"236 96 CURVE SMOOTH",
"236 162 OFFCURVE",
"188 197 OFFCURVE",
"134 197 CURVE SMOOTH",
"74 197 OFFCURVE",
"31 155 OFFCURVE",
"31 95 CURVE SMOOTH",
"31 38 OFFCURVE",
"72 -10 OFFCURVE",
"166 -6 CURVE",
"102 96 LINE"
);
}
);
width = 265;
}
);
unicode = 002C;
},
{
glyphname = exclam;
layers = (
{
components = (
{
name = period;
transform = "{1, 0, 0, 1, 10, 0}";
}
);
layerId = "5F4BB537-F6D4-41E2-86C5-F7A1868B70F1";
paths = (
{
closed = 1;
nodes = (
"40 700 LINE",
"40 518 LINE",
"80 253 LINE",
"213 253 LINE",
"254 518 LINE",
"254 700 LINE"
);
}
);
width = 293;
}
);
unicode = 0021;
},
{
glyphname = exclamdown;
layers = (
{
layerId = "5F4BB537-F6D4-41E2-86C5-F7A1868B70F1";
paths = (
{
closed = 1;
nodes = (
"254 -154 LINE",
"254 28 LINE",
"214 293 LINE",
"81 293 LINE",
"40 28 LINE",
"40 -154 LINE"
);
},
{
closed = 1;
nodes = (
"212 361 OFFCURVE",
"254 400 OFFCURVE",
"254 457 CURVE SMOOTH",
"254 515 OFFCURVE",
"212 554 OFFCURVE",
"153 554 CURVE SMOOTH",
"90 554 OFFCURVE",
"49 515 OFFCURVE",
"49 457 CURVE SMOOTH",
"49 400 OFFCURVE",
"90 361 OFFCURVE",
"153 361 CURVE SMOOTH"
);
}
);
width = 293;
}
);
leftMetricsKey = exclam;
rightMetricsKey = exclam;
unicode = 00A1;
},
